<?xml version="1.0" encoding="utf-8" standalone="no"?>
<!DOCTYPE svg PUBLIC "-//W3C//DTD SVG 1.1//EN"
  "http://www.w3.org/Graphics/SVG/1.1/DTD/svg11.dtd">
<!-- Created with matplotlib (http://matplotlib.sourceforge.net/) -->
<svg height="358pt" version="1.1" viewBox="0 0 564 358" width="564pt" xmlns="http://www.w3.org/2000/svg" xmlns:xlink="http://www.w3.org/1999/xlink">
 <defs>
  <style type="text/css">
*{stroke-linecap:square;stroke-linejoin:round;}
  </style>
 </defs>
 <g id="figure_1">
  <g id="patch_1">
   <path d="
M0 358.2
L564.48 358.2
L564.48 0
L0 0
z
" style="fill:#ffffff;"/>
  </g>
  <g id="axes_1">
   <g id="patch_2">
    <path d="
M7.2 351
L557.28 351
L557.28 7.2
L7.2 7.2
z
" style="fill:#ffffff;"/>
   </g>
   <g id="LineCollection_1">
    <defs>
     <path d="
M274.226 -96.8453
L270.802 -97.2906
L268.883 -97.5424
L263.541 -98.5999
L258.198 -100.031
L256.418 -100.63
L252.855 -101.858
L247.83 -103.969
L247.513 -104.107
L242.17 -106.822
L241.335 -107.308
L236.827 -110.054
L235.962 -110.647
L231.485 -113.878
L231.349 -113.986
L227.367 -117.326
L226.142 -118.421
L223.829 -120.665
L220.799 -123.829
L220.643 -124.004
L217.831 -127.343
L215.457 -130.422
L215.266 -130.682
L212.988 -134.021
L210.917 -137.36
L210.114 -138.778
L209.065 -140.7
L207.41 -144.039
L205.931 -147.378
L204.771 -150.33
L204.623 -150.717
L203.485 -154.056
L202.5 -157.395
L201.664 -160.735
L200.974 -164.074
L200.427 -167.413
L200.019 -170.752
L199.748 -174.091
L199.613 -177.43
L199.613 -180.77
L199.748 -184.109
L200.019 -187.448
L200.427 -190.787
L200.974 -194.126
L201.664 -197.465
L202.5 -200.805
L203.485 -204.144
L204.623 -207.483
L204.771 -207.87
L205.931 -210.822
L207.41 -214.161
L209.065 -217.5
L210.114 -219.422
L210.917 -220.84
L212.988 -224.179
L215.266 -227.518
L215.457 -227.778
L217.831 -230.857
L220.643 -234.196
L220.799 -234.371
L223.829 -237.535
L226.142 -239.779
L227.367 -240.874
L231.349 -244.214
L231.485 -244.322
L235.962 -247.553
L236.827 -248.146
L241.335 -250.892
L242.17 -251.378
L247.513 -254.093
L247.83 -254.231
L252.855 -256.342
L256.418 -257.57
L258.198 -258.169
L263.541 -259.6
L268.883 -260.658
L270.802 -260.909
L274.226 -261.355
L279.569 -261.701
L284.911 -261.701
L290.254 -261.355
L293.678 -260.909
L295.597 -260.658
L300.939 -259.6
L306.282 -258.169
L308.062 -257.57
L311.625 -256.342
L316.65 -254.231
L316.967 -254.093
L322.31 -251.378
L323.145 -250.892
L327.653 -248.146
L328.518 -247.553
L332.995 -244.322
L333.131 -244.214
L337.113 -240.874
L338.338 -239.779
L340.651 -237.535
L343.681 -234.371
L343.837 -234.196
L346.649 -230.857
L349.023 -227.778
L349.214 -227.518
L351.492 -224.179
L353.563 -220.84
L354.366 -219.422
L355.415 -217.5
L357.07 -214.161
L358.549 -210.822
L359.709 -207.87
L359.857 -207.483
L360.995 -204.144
L361.98 -200.805
L362.816 -197.465
L363.506 -194.126
L364.053 -190.787
L364.461 -187.448
L364.732 -184.109
L364.867 -180.77
L364.867 -177.43
L364.732 -174.091
L364.461 -170.752
L364.053 -167.413
L363.506 -164.074
L362.816 -160.735
L361.98 -157.395
L360.995 -154.056
L359.857 -150.717
L359.709 -150.33
L358.549 -147.378
L357.07 -144.039
L355.415 -140.7
L354.366 -138.778
L353.563 -137.36
L351.492 -134.021
L349.214 -130.682
L349.023 -130.422
L346.649 -127.343
L343.837 -124.004
L343.681 -123.829
L340.651 -120.665
L338.338 -118.421
L337.113 -117.326
L333.131 -113.986
L332.995 -113.878
L328.518 -110.647
L327.653 -110.054
L323.145 -107.308
L322.31 -106.822
L316.967 -104.107
L316.65 -103.969
L311.625 -101.858
L308.062 -100.63
L306.282 -100.031
L300.939 -98.5999
L295.597 -97.5424
L293.678 -97.2906
L290.254 -96.8453
L284.911 -96.499
L279.569 -96.499
L274.226 -96.8453" id="C0_0_d32c50d4d6"/>
    </defs>
    <g clip-path="url(#paae918dff5)">
     <use style="fill:none;stroke:#000000;stroke-linecap:butt;" x="0" xlink:href="#C0_0_d32c50d4d6" y="358.2"/>
    </g>
   </g>
   <g id="LineCollection_2">
    <defs>
     <path d="
M252.855 -16.4447
L249.276 -17.1507
L247.513 -17.501
L242.17 -18.7425
L236.827 -20.1727
L235.775 -20.4899
L231.485 -21.798
L226.142 -23.6226
L225.593 -23.829
L220.799 -25.6564
L217.189 -27.1682
L215.457 -27.9049
L210.114 -30.3786
L209.856 -30.5073
L204.771 -33.0915
L203.389 -33.8465
L199.429 -36.0547
L197.53 -37.1857
L194.086 -39.2843
L192.17 -40.5248
L188.743 -42.7992
L187.226 -43.864
L183.401 -46.6216
L182.634 -47.2031
L178.354 -50.5423
L178.058 -50.7796
L174.365 -53.8815
L172.716 -55.312
L170.607 -57.2206
L167.373 -60.2498
L167.055 -60.5598
L163.724 -63.899
L162.03 -65.661
L160.566 -67.2381
L157.575 -70.5773
L156.688 -71.6036
L154.749 -73.9164
L152.06 -77.2556
L151.345 -78.1775
L149.52 -80.5948
L147.103 -83.9339
L146.002 -85.5176
L144.812 -87.2731
L142.64 -90.6122
L140.66 -93.8068
L140.572 -93.9514
L138.623 -97.2906
L136.77 -100.63
L135.317 -103.386
L135.015 -103.969
L133.361 -107.308
L131.796 -110.647
L130.318 -113.986
L129.974 -114.806
L128.931 -117.326
L127.629 -120.665
L126.407 -124.004
L125.265 -127.343
L124.632 -129.326
L124.203 -130.682
L123.219 -134.021
L122.31 -137.36
L121.475 -140.7
L120.714 -144.039
L120.025 -147.378
L119.407 -150.717
L119.289 -151.434
L118.86 -154.056
L118.383 -157.395
L117.975 -160.735
L117.636 -164.074
L117.365 -167.413
L117.163 -170.752
L117.027 -174.091
L116.96 -177.43
L116.96 -180.77
L117.027 -184.109
L117.163 -187.448
L117.365 -190.787
L117.636 -194.126
L117.975 -197.465
L118.383 -200.805
L118.86 -204.144
L119.289 -206.766
L119.407 -207.483
L120.025 -210.822
L120.714 -214.161
L121.475 -217.5
L122.31 -220.84
L123.219 -224.179
L124.203 -227.518
L124.632 -228.874
L125.265 -230.857
L126.407 -234.196
L127.629 -237.535
L128.931 -240.874
L129.974 -243.394
L130.318 -244.214
L131.796 -247.553
L133.361 -250.892
L135.015 -254.231
L135.317 -254.814
L136.77 -257.57
L138.623 -260.909
L140.572 -264.249
L140.66 -264.393
L142.64 -267.588
L144.812 -270.927
L146.002 -272.682
L147.103 -274.266
L149.52 -277.605
L151.345 -280.022
L152.06 -280.944
L154.749 -284.284
L156.688 -286.596
L157.575 -287.623
L160.566 -290.962
L162.03 -292.539
L163.724 -294.301
L167.055 -297.64
L167.373 -297.95
L170.607 -300.979
L172.716 -302.888
L174.365 -304.319
L178.058 -307.42
L178.354 -307.658
L182.634 -310.997
L183.401 -311.578
L187.226 -314.336
L188.743 -315.401
L192.17 -317.675
L194.086 -318.916
L197.53 -321.014
L199.429 -322.145
L203.389 -324.353
L204.771 -325.108
L209.856 -327.693
L210.114 -327.821
L215.457 -330.295
L217.189 -331.032
L220.799 -332.544
L225.593 -334.371
L226.142 -334.577
L231.485 -336.402
L235.775 -337.71
L236.827 -338.027
L242.17 -339.457
L247.513 -340.699
L249.276 -341.049
L252.855 -341.755
L258.198 -342.63
L263.541 -343.327
L268.883 -343.848
L274.226 -344.194
L279.569 -344.367
L284.911 -344.367
L290.254 -344.194
L295.597 -343.848
L300.939 -343.327
L306.282 -342.63
L311.625 -341.755
L315.204 -341.049
L316.967 -340.699
L322.31 -339.457
L327.653 -338.027
L328.705 -337.71
L332.995 -336.402
L338.338 -334.577
L338.887 -334.371
L343.681 -332.544
L347.291 -331.032
L349.023 -330.295
L354.366 -327.821
L354.624 -327.693
L359.709 -325.108
L361.091 -324.353
L365.051 -322.145
L366.95 -321.014
L370.394 -318.916
L372.31 -317.675
L375.737 -315.401
L377.254 -314.336
L381.079 -311.578
L381.846 -310.997
L386.126 -307.658
L386.422 -307.42
L390.115 -304.319
L391.764 -302.888
L393.873 -300.979
L397.107 -297.95
L397.425 -297.64
L400.756 -294.301
L402.45 -292.539
L403.914 -290.962
L406.905 -287.623
L407.792 -286.596
L409.731 -284.284
L412.42 -280.944
L413.135 -280.022
L414.96 -277.605
L417.377 -274.266
L418.478 -272.682
L419.668 -270.927
L421.84 -267.588
L423.82 -264.393
L423.908 -264.249
L425.857 -260.909
L427.71 -257.57
L429.163 -254.814
L429.465 -254.231
L431.119 -250.892
L432.684 -247.553
L434.162 -244.214
L434.506 -243.394
L435.549 -240.874
L436.851 -237.535
L438.073 -234.196
L439.215 -230.857
L439.848 -228.874
L440.277 -227.518
L441.261 -224.179
L442.17 -220.84
L443.005 -217.5
L443.766 -214.161
L444.455 -210.822
L445.073 -207.483
L445.191 -206.766
L445.62 -204.144
L446.097 -200.805
L446.505 -197.465
L446.844 -194.126
L447.115 -190.787
L447.317 -187.448
L447.453 -184.109
L447.52 -180.77
L447.52 -177.43
L447.453 -174.091
L447.317 -170.752
L447.115 -167.413
L446.844 -164.074
L446.505 -160.735
L446.097 -157.395
L445.62 -154.056
L445.191 -151.434
L445.073 -150.717
L444.455 -147.378
L443.766 -144.039
L443.005 -140.7
L442.17 -137.36
L441.261 -134.021
L440.277 -130.682
L439.848 -129.326
L439.215 -127.343
L438.073 -124.004
L436.851 -120.665
L435.549 -117.326
L434.506 -114.806
L434.162 -113.986
L432.684 -110.647
L431.119 -107.308
L429.465 -103.969
L429.163 -103.386
L427.71 -100.63
L425.857 -97.2906
L423.908 -93.9514
L423.82 -93.8068
L421.84 -90.6122
L419.668 -87.2731
L418.478 -85.5176
L417.377 -83.9339
L414.96 -80.5948
L413.135 -78.1775
L412.42 -77.2556
L409.731 -73.9164
L407.792 -71.6036
L406.905 -70.5773
L403.914 -67.2381
L402.45 -65.661
L400.756 -63.899
L397.425 -60.5598
L397.107 -60.2498
L393.873 -57.2206
L391.764 -55.312
L390.115 -53.8815
L386.422 -50.7796
L386.126 -50.5423
L381.846 -47.2031
L381.079 -46.6216
L377.254 -43.864
L375.737 -42.7992
L372.31 -40.5248
L370.394 -39.2843
L366.95 -37.1857
L365.051 -36.0547
L361.091 -33.8465
L359.709 -33.0915
L354.624 -30.5073
L354.366 -30.3786
L349.023 -27.9049
L347.291 -27.1682
L343.681 -25.6564
L338.887 -23.829
L338.338 -23.6226
L332.995 -21.798
L328.705 -20.4899
L327.653 -20.1727
L322.31 -18.7425
L316.967 -17.501
L315.204 -17.1507
L311.625 -16.4447
L306.282 -15.5696
L300.939 -14.8728
L295.597 -14.3521
L290.254 -14.0059
L284.911 -13.8331
L279.569 -13.8331
L274.226 -14.0059
L268.883 -14.3521
L263.541 -14.8728
L258.198 -15.5696
L252.855 -16.4447" id="C1_0_cd34b02992"/>
    </defs>
    <g clip-path="url(#paae918dff5)">
     <use style="fill:none;stroke:#808080;stroke-linecap:butt;" x="0" xlink:href="#C1_0_cd34b02992" y="358.2"/>
    </g>
   </g>
   <g id="LineCollection_3">
    <defs>
     <path d="
M434.506 -130.244
L432.519 -130.682
L429.163 -131.478
L423.82 -133.441
L422.615 -134.021
L418.478 -136.257
L416.796 -137.36
L413.135 -140.126
L412.465 -140.7
L409.074 -144.039
L407.792 -145.545
L406.323 -147.378
L404.09 -150.717
L402.45 -153.768
L402.297 -154.056
L400.853 -157.395
L399.758 -160.735
L398.982 -164.074
L398.507 -167.413
L398.321 -170.752
L398.417 -174.091
L398.8 -177.43
L399.481 -180.77
L400.478 -184.109
L401.819 -187.448
L402.45 -188.701
L403.515 -190.787
L405.63 -194.126
L407.792 -196.915
L408.246 -197.465
L411.49 -200.805
L413.135 -202.244
L415.597 -204.144
L418.478 -206.067
L421.059 -207.483
L423.82 -208.83
L429.163 -210.757
L429.435 -210.822
L434.506 -211.944
L439.848 -212.467
L445.191 -212.342
L450.534 -211.561
L453.211 -210.822
L455.876 -210.08
L461.219 -207.813
L461.796 -207.483
L466.562 -204.595
L467.149 -204.144
L471.152 -200.805
L471.904 -200.108
L474.294 -197.465
L476.905 -194.126
L477.247 -193.621
L478.95 -190.787
L480.616 -187.448
L481.943 -184.109
L482.59 -181.973
L482.932 -180.77
L483.607 -177.43
L484.002 -174.091
L484.121 -170.752
L483.966 -167.413
L483.534 -164.074
L482.82 -160.735
L482.59 -159.956
L481.783 -157.395
L480.41 -154.056
L478.693 -150.717
L477.247 -148.363
L476.565 -147.378
L473.885 -144.039
L471.904 -141.888
L470.597 -140.7
L466.562 -137.413
L466.48 -137.36
L461.219 -134.222
L460.756 -134.021
L455.876 -131.983
L451.108 -130.682
L450.534 -130.527
L445.191 -129.777
L439.848 -129.686
L434.506 -130.244" id="C2_0_06122c1ad4"/>
     <path d="
M113.946 -146.639
L111.269 -147.378
L108.604 -148.12
L103.261 -150.387
L102.684 -150.717
L97.9183 -153.605
L97.3309 -154.056
L93.3277 -157.395
L92.5757 -158.092
L90.1863 -160.735
L87.5751 -164.074
L87.233 -164.579
L85.5298 -167.413
L83.8638 -170.752
L82.5375 -174.091
L81.8903 -176.227
L81.548 -177.43
L80.8726 -180.77
L80.4776 -184.109
L80.3585 -187.448
L80.514 -190.787
L80.9461 -194.126
L81.66 -197.465
L81.8903 -198.244
L82.6968 -200.805
L84.0699 -204.144
L85.7867 -207.483
L87.233 -209.837
L87.9149 -210.822
L90.5955 -214.161
L92.5757 -216.312
L93.8828 -217.5
L97.9183 -220.787
L97.9999 -220.84
L103.261 -223.978
L103.724 -224.179
L108.604 -226.217
L113.372 -227.518
L113.946 -227.673
L119.289 -228.423
L124.632 -228.514
L129.974 -227.956
L131.961 -227.518
L135.317 -226.722
L140.66 -224.759
L141.865 -224.179
L146.002 -221.943
L147.684 -220.84
L151.345 -218.074
L152.015 -217.5
L155.406 -214.161
L156.688 -212.655
L158.157 -210.822
L160.39 -207.483
L162.03 -204.432
L162.183 -204.144
L163.627 -200.805
L164.722 -197.465
L165.498 -194.126
L165.973 -190.787
L166.159 -187.448
L166.063 -184.109
L165.68 -180.77
L164.999 -177.43
L164.002 -174.091
L162.661 -170.752
L162.03 -169.499
L160.965 -167.413
L158.85 -164.074
L156.688 -161.285
L156.234 -160.735
L152.99 -157.395
L151.345 -155.956
L148.883 -154.056
L146.002 -152.133
L143.421 -150.717
L140.66 -149.37
L135.317 -147.443
L135.045 -147.378
L129.974 -146.256
L124.632 -145.733
L119.289 -145.858
L113.946 -146.639" id="C2_1_a24d54d8b1"/>
    </defs>
    <g clip-path="url(#paae918dff5)">
     <use style="fill:none;stroke:#000000;stroke-linecap:butt;" x="0" xlink:href="#C2_0_06122c1ad4" y="358.2"/>
    </g>
    <g clip-path="url(#paae918dff5)">
     <use style="fill:none;stroke:#000000;stroke-linecap:butt;" x="0" xlink:href="#C2_1_a24d54d8b1" y="358.2"/>
    </g>
   </g>
   <g id="LineCollection_4">
    <defs>
     <path d="
M407.792 -90.5348
L407.358 -90.6122
L402.45 -91.5336
L397.107 -92.7758
L392.817 -93.9514
L391.764 -94.2579
L386.422 -95.9974
L382.844 -97.2906
L381.079 -97.9733
L375.737 -100.196
L374.745 -100.63
L370.394 -102.676
L367.754 -103.969
L365.051 -105.398
L361.515 -107.308
L359.709 -108.365
L355.829 -110.647
L354.366 -111.582
L350.565 -113.986
L349.023 -115.049
L345.638 -117.326
L343.681 -118.762
L340.987 -120.665
L338.338 -122.712
L336.576 -124.004
L332.995 -126.882
L332.381 -127.343
L328.321 -130.682
L327.653 -131.287
L324.359 -134.021
L322.31 -135.903
L320.548 -137.36
L316.967 -140.643
L316.898 -140.7
L313.168 -144.039
L311.625 -145.588
L309.536 -147.378
L306.282 -150.52
L306.034 -150.717
L302.323 -154.056
L300.939 -155.491
L298.553 -157.395
L295.597 -160.149
L294.691 -160.735
L290.345 -164.074
L290.254 -164.16
L284.911 -166.916
L279.569 -167.396
L274.226 -165.852
L271.413 -164.074
L268.883 -162.827
L266.109 -160.735
L263.541 -159.156
L261.396 -157.395
L258.198 -155.194
L256.867 -154.056
L252.855 -151.124
L252.385 -150.717
L247.955 -147.378
L247.513 -147.084
L243.509 -144.039
L242.17 -143.136
L238.928 -140.7
L236.827 -139.29
L234.193 -137.36
L231.485 -135.579
L229.273 -134.021
L226.142 -132.03
L224.13 -130.682
L220.799 -128.658
L218.71 -127.343
L215.457 -125.477
L212.939 -124.004
L210.114 -122.492
L206.712 -120.665
L204.771 -119.707
L199.876 -117.326
L199.429 -117.125
L194.086 -114.772
L192.221 -113.986
L188.743 -112.628
L183.401 -110.689
L183.278 -110.647
L178.058 -108.99
L172.716 -107.495
L171.963 -107.308
L167.373 -106.237
L162.03 -105.2
L156.688 -104.389
L152.832 -103.969
L151.345 -103.814
L146.002 -103.481
L140.66 -103.39
L135.317 -103.549
L129.974 -103.966
L129.953 -103.969
L124.632 -104.657
L119.289 -105.629
L113.946 -106.897
L112.567 -107.308
L108.604 -108.486
L103.261 -110.414
L102.718 -110.647
L97.9183 -112.72
L95.4107 -113.986
L92.5757 -115.438
L89.3821 -117.326
L87.233 -118.623
L84.2662 -120.665
L81.8903 -122.35
L79.8165 -124.004
L76.5477 -126.717
L75.8683 -127.343
L72.3986 -130.682
L71.205 -131.892
L69.2896 -134.021
L66.4664 -137.36
L65.8624 -138.12
L63.9664 -140.7
L61.6908 -144.039
L60.5197 -145.899
L59.6484 -147.378
L57.8369 -150.717
L56.1987 -154.056
L55.1771 -156.373
L54.7487 -157.395
L53.4957 -160.735
L52.3998 -164.074
L51.4592 -167.413
L50.6718 -170.752
L50.0354 -174.091
L49.8344 -175.463
L49.5549 -177.43
L49.2224 -180.77
L49.0321 -184.109
L48.9838 -187.448
L49.0772 -190.787
L49.3128 -194.126
L49.6911 -197.465
L49.8344 -198.385
L50.223 -200.805
L50.9086 -204.144
L51.7467 -207.483
L52.7398 -210.822
L53.8902 -214.161
L55.1771 -217.443
L55.2008 -217.5
L56.7291 -220.84
L58.4329 -224.179
L60.3134 -227.518
L60.5197 -227.858
L62.466 -230.857
L64.8235 -234.196
L65.8624 -235.571
L67.4699 -237.535
L70.3919 -240.874
L71.205 -241.754
L73.6989 -244.214
L76.5477 -246.873
L77.3573 -247.553
L81.509 -250.892
L81.8903 -251.188
L86.3073 -254.231
L87.233 -254.849
L91.8789 -257.57
L92.5757 -257.969
L97.9183 -260.616
L98.6165 -260.909
L103.261 -262.841
L107.322 -264.249
L108.604 -264.691
L113.946 -266.188
L119.289 -267.365
L120.674 -267.588
L124.632 -268.231
L129.974 -268.807
L135.317 -269.104
L140.66 -269.131
L146.002 -268.896
L151.345 -268.405
L156.688 -267.665
L157.122 -267.588
L162.03 -266.666
L167.373 -265.424
L171.663 -264.249
L172.716 -263.942
L178.058 -262.203
L181.636 -260.909
L183.401 -260.227
L188.743 -258.004
L189.735 -257.57
L194.086 -255.524
L196.726 -254.231
L199.429 -252.802
L202.965 -250.892
L204.771 -249.835
L208.651 -247.553
L210.114 -246.618
L213.915 -244.214
L215.457 -243.151
L218.842 -240.874
L220.799 -239.438
L223.493 -237.535
L226.142 -235.488
L227.904 -234.196
L231.485 -231.318
L232.099 -230.857
L236.159 -227.518
L236.827 -226.913
L240.121 -224.179
L242.17 -222.297
L243.932 -220.84
L247.513 -217.557
L247.582 -217.5
L251.312 -214.161
L252.855 -212.612
L254.944 -210.822
L258.198 -207.68
L258.446 -207.483
L262.157 -204.144
L263.541 -202.709
L265.927 -200.805
L268.883 -198.051
L269.789 -197.465
L274.135 -194.126
L274.226 -194.04
L279.569 -191.284
L284.911 -190.804
L290.254 -192.348
L293.067 -194.126
L295.597 -195.373
L298.371 -197.465
L300.939 -199.044
L303.084 -200.805
L306.282 -203.006
L307.613 -204.144
L311.625 -207.076
L312.095 -207.483
L316.525 -210.822
L316.967 -211.116
L320.971 -214.161
L322.31 -215.064
L325.552 -217.5
L327.653 -218.91
L330.287 -220.84
L332.995 -222.621
L335.207 -224.179
L338.338 -226.17
L340.35 -227.518
L343.681 -229.542
L345.77 -230.857
L349.023 -232.723
L351.541 -234.196
L354.366 -235.708
L357.768 -237.535
L359.709 -238.493
L364.604 -240.874
L365.051 -241.075
L370.394 -243.428
L372.259 -244.214
L375.737 -245.572
L381.079 -247.511
L381.202 -247.553
L386.422 -249.21
L391.764 -250.705
L392.517 -250.892
L397.107 -251.963
L402.45 -253
L407.792 -253.811
L411.648 -254.231
L413.135 -254.386
L418.478 -254.719
L423.82 -254.81
L429.163 -254.651
L434.506 -254.234
L434.527 -254.231
L439.848 -253.543
L445.191 -252.571
L450.534 -251.303
L451.913 -250.892
L455.876 -249.714
L461.219 -247.786
L461.762 -247.553
L466.562 -245.48
L469.069 -244.214
L471.904 -242.762
L475.098 -240.874
L477.247 -239.577
L480.214 -237.535
L482.59 -235.85
L484.663 -234.196
L487.932 -231.483
L488.612 -230.857
L492.081 -227.518
L493.275 -226.308
L495.19 -224.179
L498.014 -220.84
L498.618 -220.08
L500.514 -217.5
L502.789 -214.161
L503.96 -212.301
L504.832 -210.822
L506.643 -207.483
L508.281 -204.144
L509.303 -201.827
L509.731 -200.805
L510.984 -197.465
L512.08 -194.126
L513.021 -190.787
L513.808 -187.448
L514.445 -184.109
L514.646 -182.737
L514.925 -180.77
L515.258 -177.43
L515.448 -174.091
L515.496 -170.752
L515.403 -167.413
L515.167 -164.074
L514.789 -160.735
L514.646 -159.815
L514.257 -157.395
L513.571 -154.056
L512.733 -150.717
L511.74 -147.378
L510.59 -144.039
L509.303 -140.757
L509.279 -140.7
L507.751 -137.36
L506.047 -134.021
L504.167 -130.682
L503.96 -130.342
L502.014 -127.343
L499.657 -124.004
L498.618 -122.629
L497.01 -120.665
L494.088 -117.326
L493.275 -116.446
L490.781 -113.986
L487.932 -111.327
L487.123 -110.647
L482.971 -107.308
L482.59 -107.012
L478.173 -103.969
L477.247 -103.351
L472.601 -100.63
L471.904 -100.231
L466.562 -97.5838
L465.864 -97.2906
L461.219 -95.3587
L457.158 -93.9514
L455.876 -93.5091
L450.534 -92.0116
L445.191 -90.8354
L443.806 -90.6122
L439.848 -89.9687
L434.506 -89.3932
L429.163 -89.0963
L423.82 -89.069
L418.478 -89.3041
L413.135 -89.7948
L407.792 -90.5348" id="C3_0_822032de1a"/>
    </defs>
    <g clip-path="url(#paae918dff5)">
     <use style="fill:none;stroke:#808080;stroke-linecap:butt;" x="0" xlink:href="#C3_0_822032de1a" y="358.2"/>
    </g>
   </g>
   <g id="LineCollection_5">
    <defs>
     <path d="
M284.911 -99.9875
L281.775 -100.63
L279.569 -101.115
L274.226 -102.59
L270.011 -103.969
L268.883 -104.365
L263.541 -106.49
L261.673 -107.308
L258.198 -108.935
L254.8 -110.647
L252.855 -111.69
L248.815 -113.986
L247.513 -114.77
L243.465 -117.326
L242.17 -118.187
L238.597 -120.665
L236.827 -121.952
L234.113 -124.004
L231.485 -126.081
L229.947 -127.343
L226.142 -130.599
L226.049 -130.682
L222.472 -134.021
L220.799 -135.648
L219.108 -137.36
L215.957 -140.7
L215.457 -141.257
L213.066 -144.039
L210.338 -147.378
L210.114 -147.669
L207.868 -150.717
L205.562 -154.056
L204.771 -155.288
L203.471 -157.395
L201.576 -160.735
L199.853 -164.074
L199.429 -164.99
L198.343 -167.413
L197.022 -170.752
L195.883 -174.091
L194.929 -177.43
L194.162 -180.77
L194.086 -181.208
L193.593 -184.109
L193.21 -187.448
L193.016 -190.787
L193.009 -194.126
L193.193 -197.465
L193.566 -200.805
L194.086 -203.869
L194.133 -204.144
L194.899 -207.483
L195.863 -210.822
L197.03 -214.161
L198.406 -217.5
L199.429 -219.644
L200.005 -220.84
L201.85 -224.179
L203.932 -227.518
L204.771 -228.719
L206.307 -230.857
L208.981 -234.196
L210.114 -235.475
L212.027 -237.535
L215.448 -240.874
L215.457 -240.882
L219.455 -244.214
L220.799 -245.24
L224.121 -247.553
L226.142 -248.849
L229.726 -250.892
L231.485 -251.822
L236.78 -254.231
L236.827 -254.251
L242.17 -256.141
L247.317 -257.57
L247.513 -257.622
L252.855 -258.641
L258.198 -259.281
L263.541 -259.547
L268.883 -259.448
L274.226 -258.997
L279.569 -258.212
L282.705 -257.57
L284.911 -257.085
L290.254 -255.61
L294.469 -254.231
L295.597 -253.835
L300.939 -251.71
L302.807 -250.892
L306.282 -249.265
L309.68 -247.553
L311.625 -246.51
L315.665 -244.214
L316.967 -243.43
L321.015 -240.874
L322.31 -240.013
L325.883 -237.535
L327.653 -236.248
L330.367 -234.196
L332.995 -232.119
L334.533 -230.857
L338.338 -227.601
L338.431 -227.518
L342.008 -224.179
L343.681 -222.552
L345.372 -220.84
L348.523 -217.5
L349.023 -216.943
L351.414 -214.161
L354.142 -210.822
L354.366 -210.531
L356.612 -207.483
L358.918 -204.144
L359.709 -202.912
L361.009 -200.805
L362.904 -197.465
L364.627 -194.126
L365.051 -193.21
L366.137 -190.787
L367.458 -187.448
L368.597 -184.109
L369.551 -180.77
L370.318 -177.43
L370.394 -176.992
L370.887 -174.091
L371.27 -170.752
L371.464 -167.413
L371.471 -164.074
L371.287 -160.735
L370.914 -157.395
L370.394 -154.331
L370.347 -154.056
L369.581 -150.717
L368.617 -147.378
L367.45 -144.039
L366.074 -140.7
L365.051 -138.556
L364.475 -137.36
L362.63 -134.021
L360.548 -130.682
L359.709 -129.481
L358.173 -127.343
L355.499 -124.004
L354.366 -122.725
L352.453 -120.665
L349.032 -117.326
L349.023 -117.318
L345.025 -113.986
L343.681 -112.96
L340.359 -110.647
L338.338 -109.351
L334.754 -107.308
L332.995 -106.378
L327.7 -103.969
L327.653 -103.949
L322.31 -102.059
L317.163 -100.63
L316.967 -100.578
L311.625 -99.5587
L306.282 -98.9191
L300.939 -98.6535
L295.597 -98.7522
L290.254 -99.2025
L284.911 -99.9875" id="C4_0_3a756e02bd"/>
     <path d="
M509.303 -155.984
L505.728 -157.395
L503.96 -158.371
L501.212 -160.735
L498.925 -164.074
L498.618 -164.946
L497.72 -167.413
L497.396 -170.752
L497.924 -174.091
L498.618 -175.724
L499.34 -177.43
L501.999 -180.77
L503.96 -182.326
L507.615 -184.109
L509.303 -184.714
L514.646 -185.043
L517.811 -184.109
L519.988 -183.456
L523.494 -180.77
L525.331 -178.88
L526.248 -177.43
L527.603 -174.091
L528.116 -170.752
L527.812 -167.413
L526.672 -164.074
L525.331 -161.779
L524.408 -160.735
L520.263 -157.395
L519.988 -157.207
L514.646 -155.638
L509.303 -155.984" id="C4_1_ac56af6c72"/>
     <path d="
M49.8344 -173.157
L46.6689 -174.091
L44.4917 -174.744
L40.9857 -177.43
L39.1491 -179.32
L38.2324 -180.77
L36.8768 -184.109
L36.3644 -187.448
L36.6684 -190.787
L37.8077 -194.126
L39.1491 -196.421
L40.0723 -197.465
L44.2168 -200.805
L44.4917 -200.993
L49.8344 -202.562
L55.1771 -202.216
L58.7523 -200.805
L60.5197 -199.829
L63.2684 -197.465
L65.5547 -194.126
L65.8624 -193.254
L66.7597 -190.787
L67.0844 -187.448
L66.5561 -184.109
L65.8624 -182.476
L65.1399 -180.77
L62.4811 -177.43
L60.5197 -175.874
L56.8654 -174.091
L55.1771 -173.486
L49.8344 -173.157" id="C4_2_51a28eea1e"/>
    </defs>
    <g clip-path="url(#paae918dff5)">
     <use style="fill:none;stroke:#000000;stroke-linecap:butt;" x="0" xlink:href="#C4_0_3a756e02bd" y="358.2"/>
    </g>
    <g clip-path="url(#paae918dff5)">
     <use style="fill:none;stroke:#000000;stroke-linecap:butt;" x="0" xlink:href="#C4_1_ac56af6c72" y="358.2"/>
    </g>
    <g clip-path="url(#paae918dff5)">
     <use style="fill:none;stroke:#000000;stroke-linecap:butt;" x="0" xlink:href="#C4_2_51a28eea1e" y="358.2"/>
    </g>
   </g>
   <g id="LineCollection_6">
    <defs>
     <path d="
M274.226 -73.3438
L271.145 -73.9164
L268.883 -74.3595
L263.541 -75.5959
L258.198 -77.0095
L257.366 -77.2556
L252.855 -78.6586
L247.513 -80.4765
L247.192 -80.5948
L242.17 -82.5351
L238.771 -83.9339
L236.827 -84.7723
L231.485 -87.2028
L231.338 -87.2731
L226.142 -89.8672
L224.707 -90.6122
L220.799 -92.729
L218.617 -93.9514
L215.457 -95.795
L212.965 -97.2906
L210.114 -99.0711
L207.677 -100.63
L204.771 -102.561
L202.695 -103.969
L199.429 -106.268
L197.974 -107.308
L194.086 -110.192
L193.478 -110.647
L189.191 -113.986
L188.743 -114.349
L185.09 -117.326
L183.401 -118.755
L181.141 -120.665
L178.058 -123.371
L177.33 -124.004
L173.653 -127.343
L172.716 -128.232
L170.086 -130.682
L167.373 -133.316
L166.625 -134.021
L163.251 -137.36
L162.03 -138.629
L159.95 -140.7
L156.746 -144.039
L156.688 -144.103
L153.55 -147.378
L151.345 -149.801
L150.439 -150.717
L147.342 -154.056
L146.002 -155.603
L144.26 -157.395
L141.236 -160.735
L140.66 -161.434
L138.099 -164.074
L135.317 -167.205
L135.085 -167.413
L131.786 -170.752
L129.974 -172.859
L128.442 -174.091
L124.975 -177.43
L124.632 -177.87
L119.901 -180.77
L119.289 -181.344
L114.413 -180.77
L113.946 -180.74
L108.613 -177.43
L108.604 -177.427
L104.131 -174.091
L103.261 -173.641
L99.3398 -170.752
L97.9183 -169.99
L94.0266 -167.413
L92.5757 -166.69
L87.8281 -164.074
L87.233 -163.82
L81.8903 -161.468
L80.0662 -160.735
L76.5477 -159.604
L71.205 -158.25
L65.8624 -157.43
L65.1599 -157.395
L60.5197 -157.201
L57.9821 -157.395
L55.1771 -157.594
L49.8344 -158.691
L44.4917 -160.614
L44.2757 -160.735
L39.1491 -163.619
L38.58 -164.074
L34.6749 -167.413
L33.8064 -168.239
L31.8215 -170.752
L29.6193 -174.091
L28.4638 -176.333
L27.9933 -177.43
L26.9345 -180.77
L26.2837 -184.109
L26.0384 -187.448
L26.1967 -190.787
L26.7605 -194.126
L27.7334 -197.465
L28.4638 -199.256
L29.2181 -200.805
L31.3213 -204.144
L33.8064 -207.36
L33.9332 -207.483
L37.7676 -210.822
L39.1491 -211.93
L43.1371 -214.161
L44.4917 -214.907
L49.8344 -216.801
L53.4427 -217.5
L55.1771 -217.857
L60.5197 -218.202
L65.8624 -217.923
L68.716 -217.5
L71.205 -217.06
L76.5477 -215.634
L80.8496 -214.161
L81.8903 -213.713
L87.233 -211.273
L88.2461 -210.822
L92.5757 -208.331
L94.2241 -207.483
L97.9183 -204.958
L99.4032 -204.144
L103.261 -201.242
L104.095 -200.805
L108.536 -197.465
L108.604 -197.387
L113.866 -194.126
L113.946 -194.034
L119.289 -193.413
L120.056 -194.126
L124.632 -196.928
L125.05 -197.465
L128.483 -200.805
L129.974 -202.018
L131.769 -204.144
L135.002 -207.483
L135.317 -207.77
L137.958 -210.822
L140.66 -213.684
L141.039 -214.161
L143.977 -217.5
L146.002 -219.646
L147 -220.84
L150.01 -224.179
L151.345 -225.565
L153.066 -227.518
L156.193 -230.857
L156.688 -231.351
L159.355 -234.196
L162.03 -236.897
L162.633 -237.535
L165.992 -240.874
L167.373 -242.172
L169.479 -244.214
L172.716 -247.182
L173.113 -247.553
L176.909 -250.892
L178.058 -251.848
L180.909 -254.231
L183.401 -256.202
L185.142 -257.57
L188.743 -260.247
L189.651 -260.909
L194.086 -263.971
L194.499 -264.249
L199.429 -267.375
L199.777 -267.588
L204.771 -270.467
L205.613 -270.927
L210.114 -273.259
L212.19 -274.266
L215.457 -275.769
L219.781 -277.605
L220.799 -278.016
L226.142 -279.972
L229.121 -280.944
L231.485 -281.678
L236.827 -283.123
L241.905 -284.284
L242.17 -284.341
L247.513 -285.286
L252.855 -286.007
L258.198 -286.504
L263.541 -286.775
L268.883 -286.822
L274.226 -286.648
L279.569 -286.258
L284.911 -285.658
L290.254 -284.856
L293.335 -284.284
L295.597 -283.841
L300.939 -282.604
L306.282 -281.19
L307.114 -280.944
L311.625 -279.541
L316.967 -277.723
L317.288 -277.605
L322.31 -275.665
L325.709 -274.266
L327.653 -273.428
L332.995 -270.997
L333.142 -270.927
L338.338 -268.333
L339.773 -267.588
L343.681 -265.471
L345.863 -264.249
L349.023 -262.405
L351.515 -260.909
L354.366 -259.129
L356.803 -257.57
L359.709 -255.639
L361.785 -254.231
L365.051 -251.932
L366.506 -250.892
L370.394 -248.008
L371.002 -247.553
L375.289 -244.214
L375.737 -243.851
L379.39 -240.874
L381.079 -239.445
L383.339 -237.535
L386.422 -234.829
L387.15 -234.196
L390.827 -230.857
L391.764 -229.968
L394.394 -227.518
L397.107 -224.884
L397.855 -224.179
L401.229 -220.84
L402.45 -219.571
L404.53 -217.5
L407.734 -214.161
L407.792 -214.097
L410.93 -210.822
L413.135 -208.399
L414.041 -207.483
L417.138 -204.144
L418.478 -202.597
L420.22 -200.805
L423.244 -197.465
L423.82 -196.766
L426.381 -194.126
L429.163 -190.995
L429.395 -190.787
L432.694 -187.448
L434.506 -185.341
L436.038 -184.109
L439.505 -180.77
L439.848 -180.33
L444.579 -177.43
L445.191 -176.856
L450.067 -177.43
L450.534 -177.46
L455.867 -180.77
L455.876 -180.773
L460.349 -184.109
L461.219 -184.559
L465.14 -187.448
L466.562 -188.21
L470.453 -190.787
L471.904 -191.51
L476.652 -194.126
L477.247 -194.38
L482.59 -196.732
L484.414 -197.465
L487.932 -198.596
L493.275 -199.95
L498.618 -200.77
L499.32 -200.805
L503.96 -200.999
L506.498 -200.805
L509.303 -200.606
L514.646 -199.509
L519.988 -197.586
L520.204 -197.465
L525.331 -194.581
L525.9 -194.126
L529.805 -190.787
L530.674 -189.961
L532.658 -187.448
L534.861 -184.109
L536.016 -181.867
L536.487 -180.77
L537.545 -177.43
L538.196 -174.091
L538.442 -170.752
L538.283 -167.413
L537.72 -164.074
L536.747 -160.735
L536.016 -158.944
L535.262 -157.395
L533.159 -154.056
L530.674 -150.84
L530.547 -150.717
L526.712 -147.378
L525.331 -146.27
L521.343 -144.039
L519.988 -143.293
L514.646 -141.399
L511.037 -140.7
L509.303 -140.343
L503.96 -139.998
L498.618 -140.277
L495.764 -140.7
L493.275 -141.14
L487.932 -142.566
L483.63 -144.039
L482.59 -144.487
L477.247 -146.927
L476.234 -147.378
L471.904 -149.869
L470.256 -150.717
L466.562 -153.242
L465.077 -154.056
L461.219 -156.958
L460.385 -157.395
L455.944 -160.735
L455.876 -160.813
L450.614 -164.074
L450.534 -164.166
L445.191 -164.787
L444.424 -164.074
L439.848 -161.272
L439.43 -160.735
L435.997 -157.395
L434.506 -156.182
L432.711 -154.056
L429.478 -150.717
L429.163 -150.43
L426.522 -147.378
L423.82 -144.516
L423.441 -144.039
L420.503 -140.7
L418.478 -138.554
L417.48 -137.36
L414.47 -134.021
L413.135 -132.635
L411.414 -130.682
L408.287 -127.343
L407.792 -126.849
L405.125 -124.004
L402.45 -121.303
L401.847 -120.665
L398.488 -117.326
L397.107 -116.028
L395.001 -113.986
L391.764 -111.018
L391.367 -110.647
L387.571 -107.308
L386.422 -106.352
L383.571 -103.969
L381.079 -101.998
L379.338 -100.63
L375.737 -97.9535
L374.829 -97.2906
L370.394 -94.2288
L369.981 -93.9514
L365.051 -90.8247
L364.703 -90.6122
L359.709 -87.7334
L358.867 -87.2731
L354.366 -84.9413
L352.29 -83.9339
L349.023 -82.4313
L344.699 -80.5948
L343.681 -80.184
L338.338 -78.2276
L335.359 -77.2556
L332.995 -76.5216
L327.653 -75.0773
L322.575 -73.9164
L322.31 -73.8586
L316.967 -72.9143
L311.625 -72.1927
L306.282 -71.6961
L300.939 -71.425
L295.597 -71.378
L290.254 -71.552
L284.911 -71.9423
L279.569 -72.5423
L274.226 -73.3438" id="C5_0_8b71e9f1ec"/>
    </defs>
    <g clip-path="url(#paae918dff5)">
     <use style="fill:none;stroke:#808080;stroke-linecap:butt;" x="0" xlink:href="#C5_0_8b71e9f1ec" y="358.2"/>
    </g>
   </g>
   <g id="matplotlib.axis_1"/>
   <g id="matplotlib.axis_2"/>
  </g>
 </g>
 <defs>
  <clipPath id="paae918dff5">
   <rect height="343.8" width="550.08" x="7.2" y="7.2"/>
  </clipPath>
 </defs>
</svg>
