<?xml version="1.0" encoding="utf-8" standalone="no"?>
<!DOCTYPE svg PUBLIC "-//W3C//DTD SVG 1.1//EN"
  "http://www.w3.org/Graphics/SVG/1.1/DTD/svg11.dtd">
<!-- Created with matplotlib (http://matplotlib.sourceforge.net/) -->
<svg height="420pt" version="1.1" viewBox="0 0 420 420" width="420pt" xmlns="http://www.w3.org/2000/svg" xmlns:xlink="http://www.w3.org/1999/xlink">
 <defs>
  <style type="text/css">
*{stroke-linecap:square;stroke-linejoin:round;}
  </style>
 </defs>
 <g id="figure_1">
  <g id="patch_1">
   <path d="
M0 420.48
L420.48 420.48
L420.48 0
L0 0
z
" style="fill:#ffffff;"/>
  </g>
  <g id="axes_1">
   <g id="patch_2">
    <path d="
M7.2 413.28
L413.28 413.28
L413.28 7.2
L7.2 7.2
z
" style="fill:#ffffff;"/>
   </g>
   <g id="PathCollection_1">
    <defs>
     <path d="
M287.149 -122.892
L288.263 -125.443
L287.149 -126.508
L286.241 -125.443
L287.149 -122.892" id="C0_0_7f02a6715c"/>
     <path d="
M275.317 -132.772
L278.045 -133.331
L275.317 -134.688
L274.951 -133.331
L275.317 -132.772" id="C0_1_a910f2fec0"/>
    </defs>
    <g clip-path="url(#p85c0e9ffdb)">
     <use style="fill:#f0b8b6;" x="0" xlink:href="#C0_0_7f02a6715c" y="420.48"/>
    </g>
    <g clip-path="url(#p85c0e9ffdb)">
     <use style="fill:#f0b8b6;" x="0" xlink:href="#C0_1_a910f2fec0" y="420.48"/>
    </g>
   </g>
   <g id="PathCollection_2">
    <defs>
     <path d="
M243.764 -68.6956
L244.898 -70.226
L243.764 -71.6961
L242.678 -70.226
L243.764 -68.6956" id="C1_0_519acb8198"/>
     <path d="
M267.429 -68.546
L271.373 -69.4777
L272.146 -70.226
L271.373 -72.7787
L271.051 -74.1701
L267.429 -75.2298
L266.648 -74.1701
L266.883 -70.226
L267.429 -68.546" id="C1_1_2dd286caa6"/>
     <path d="
M291.093 -84.3717
L295.037 -83.6747
L298.981 -83.7563
L302.925 -84.3965
L306.869 -85.4468
L308.544 -86.0022
L310.813 -86.8666
L314.757 -88.6273
L317.268 -89.9463
L318.702 -90.7781
L322.646 -93.4073
L323.291 -93.8903
L326.59 -96.6597
L327.843 -97.8344
L330.534 -100.734
L331.427 -101.778
L334.283 -105.723
L334.478 -106.045
L336.574 -109.667
L338.356 -113.611
L338.422 -113.797
L339.738 -117.555
L340.72 -121.499
L341.333 -125.443
L341.599 -129.387
L341.527 -133.331
L341.114 -137.275
L340.347 -141.219
L339.199 -145.163
L338.422 -147.157
L337.655 -149.107
L335.663 -153.051
L334.478 -154.948
L333.14 -156.995
L330.534 -160.279
L329.969 -160.939
L326.59 -164.303
L325.937 -164.883
L322.646 -167.453
L320.578 -168.827
L318.702 -169.953
L314.757 -171.906
L312.516 -172.771
L310.813 -173.387
L306.869 -174.443
L302.925 -175.093
L298.981 -175.353
L295.037 -175.223
L291.093 -174.691
L287.149 -173.716
L284.658 -172.771
L283.205 -172.257
L279.261 -170.251
L277.241 -168.827
L275.317 -167.502
L272.58 -164.883
L271.373 -163.685
L269.364 -160.939
L267.429 -157.741
L267.091 -156.995
L265.748 -153.051
L265.2 -149.107
L265.494 -145.163
L266.459 -141.219
L267.328 -137.275
L267.429 -133.826
L267.467 -133.331
L268.361 -129.387
L270.529 -125.443
L271.373 -124.464
L274.93 -121.499
L275.317 -121.293
L279.261 -119.97
L283.205 -117.995
L283.758 -117.555
L286.53 -113.611
L287.149 -110.762
L287.945 -109.667
L288.598 -105.723
L287.149 -102.421
L286.97 -101.778
L283.854 -97.8344
L283.205 -97.3626
L282.079 -93.8903
L283.205 -92.96
L286.073 -89.9463
L287.149 -86.4822
L289 -86.0022
L291.093 -84.3717
M275.317 -132.772
L274.951 -133.331
L275.317 -134.688
L278.045 -133.331
L275.317 -132.772
M287.149 -122.892
L286.241 -125.443
L287.149 -126.508
L288.263 -125.443
L287.149 -122.892" id="C1_2_ddf3bb39bf"/>
     <path d="
M224.044 -86.7084
L226.014 -89.9463
L224.044 -91.1078
L223.033 -89.9463
L224.044 -86.7084" id="C1_3_77609c00e7"/>
     <path d="
M224.044 -111.786
L227.259 -113.611
L224.044 -115.051
L222.602 -113.611
L224.044 -111.786" id="C1_4_445165725f"/>
     <path d="
M243.764 -128.644
L247.709 -129.175
L247.994 -129.387
L249.796 -133.331
L247.709 -136.437
L243.764 -135.903
L241.718 -133.331
L242.774 -129.387
L243.764 -128.644" id="C1_5_cf733f73a2"/>
    </defs>
    <g clip-path="url(#p85c0e9ffdb)">
     <use style="fill:#d5c1ca;" x="0" xlink:href="#C1_0_519acb8198" y="420.48"/>
    </g>
    <g clip-path="url(#p85c0e9ffdb)">
     <use style="fill:#d5c1ca;" x="0" xlink:href="#C1_1_2dd286caa6" y="420.48"/>
    </g>
    <g clip-path="url(#p85c0e9ffdb)">
     <use style="fill:#d5c1ca;" x="0" xlink:href="#C1_2_ddf3bb39bf" y="420.48"/>
    </g>
    <g clip-path="url(#p85c0e9ffdb)">
     <use style="fill:#d5c1ca;" x="0" xlink:href="#C1_3_77609c00e7" y="420.48"/>
    </g>
    <g clip-path="url(#p85c0e9ffdb)">
     <use style="fill:#d5c1ca;" x="0" xlink:href="#C1_4_445165725f" y="420.48"/>
    </g>
    <g clip-path="url(#p85c0e9ffdb)">
     <use style="fill:#d5c1ca;" x="0" xlink:href="#C1_5_cf733f73a2" y="420.48"/>
    </g>
   </g>
   <g id="PathCollection_3">
    <defs>
     <path d="
M15.0092 -15.0092
L18.9533 -15.0092
L22.8973 -15.0092
L26.8414 -15.0092
L30.7855 -15.0092
L34.7295 -15.0092
L38.6736 -15.0092
L42.6176 -15.0092
L46.5617 -15.0092
L50.5057 -15.0092
L54.4498 -15.0092
L58.3938 -15.0092
L62.3379 -15.0092
L66.282 -15.0092
L70.226 -15.0092
L74.1701 -15.0092
L78.1141 -15.0092
L82.0582 -15.0092
L86.0022 -15.0092
L89.9463 -15.0092
L93.8903 -15.0092
L97.8344 -15.0092
L101.778 -15.0092
L105.723 -15.0092
L109.667 -15.0092
L113.611 -15.0092
L117.555 -15.0092
L121.499 -15.0092
L125.443 -15.0092
L129.387 -15.0092
L133.331 -15.0092
L137.275 -15.0092
L141.219 -15.0092
L145.163 -15.0092
L149.107 -15.0092
L153.051 -15.0092
L156.995 -15.0092
L160.939 -15.0092
L164.883 -15.0092
L168.827 -15.0092
L172.771 -15.0092
L176.716 -15.0092
L180.66 -15.0092
L184.604 -15.0092
L188.548 -15.0092
L192.492 -15.0092
L196.436 -15.0092
L200.38 -15.0092
L204.324 -15.0092
L208.268 -15.0092
L212.212 -15.0092
L216.156 -15.0092
L220.1 -15.0092
L224.044 -15.0092
L227.988 -15.0092
L231.932 -15.0092
L235.876 -15.0092
L239.82 -15.0092
L243.764 -15.0092
L247.709 -15.0092
L251.653 -15.0092
L255.597 -15.0092
L259.541 -15.0092
L263.485 -15.0092
L267.429 -15.0092
L271.373 -15.0092
L275.317 -15.0092
L279.261 -15.0092
L283.205 -15.0092
L287.149 -15.0092
L291.093 -15.0092
L295.037 -15.0092
L298.981 -15.0092
L302.925 -15.0092
L306.869 -15.0092
L310.813 -15.0092
L314.757 -15.0092
L318.702 -15.0092
L322.646 -15.0092
L326.59 -15.0092
L330.534 -15.0092
L334.478 -15.0092
L338.422 -15.0092
L342.366 -15.0092
L346.31 -15.0092
L350.254 -15.0092
L354.198 -15.0092
L358.142 -15.0092
L362.086 -15.0092
L366.03 -15.0092
L369.974 -15.0092
L373.918 -15.0092
L377.862 -15.0092
L381.806 -15.0092
L385.75 -15.0092
L389.695 -15.0092
L393.639 -15.0092
L397.583 -15.0092
L401.527 -15.0092
L405.471 -15.0092
L405.471 -18.9533
L405.471 -22.8973
L405.471 -26.8414
L405.471 -30.7855
L405.471 -34.7295
L405.471 -38.6736
L405.471 -42.6176
L405.471 -46.5617
L405.471 -50.5057
L405.471 -54.4498
L405.471 -58.3938
L405.471 -62.3379
L405.471 -66.282
L405.471 -70.226
L405.471 -74.1701
L405.471 -78.1141
L405.471 -82.0582
L405.471 -86.0022
L405.471 -89.9463
L405.471 -93.8903
L405.471 -97.8344
L405.471 -101.778
L405.471 -105.723
L405.471 -109.667
L405.471 -113.611
L405.471 -117.555
L405.471 -121.499
L405.471 -125.443
L405.471 -129.387
L405.471 -133.331
L405.471 -137.275
L405.471 -141.219
L405.471 -145.163
L405.471 -149.107
L405.471 -153.051
L405.471 -156.995
L405.471 -160.939
L405.471 -164.883
L405.471 -168.827
L405.471 -172.771
L405.471 -176.716
L405.471 -180.66
L405.471 -184.604
L405.471 -188.548
L405.471 -192.492
L405.471 -196.436
L405.471 -200.38
L405.471 -204.324
L405.471 -208.268
L405.471 -212.212
L405.471 -216.156
L405.471 -220.1
L405.471 -224.044
L405.471 -227.988
L405.471 -231.932
L405.471 -235.876
L405.471 -239.82
L405.471 -243.764
L405.471 -247.709
L405.471 -251.653
L405.471 -255.597
L405.471 -259.541
L405.471 -263.485
L405.471 -267.429
L405.471 -271.373
L405.471 -275.317
L405.471 -279.261
L405.471 -283.205
L405.471 -287.149
L405.471 -291.093
L405.471 -295.037
L405.471 -298.981
L405.471 -302.925
L405.471 -306.869
L405.471 -310.813
L405.471 -314.757
L405.471 -318.702
L405.471 -322.646
L405.471 -326.59
L405.471 -330.534
L405.471 -334.478
L405.471 -338.422
L405.471 -342.366
L405.471 -346.31
L405.471 -350.254
L405.471 -354.198
L405.471 -358.142
L405.471 -362.086
L405.471 -366.03
L405.471 -369.974
L405.471 -373.918
L405.471 -377.862
L405.471 -381.806
L405.471 -385.75
L405.471 -389.695
L405.471 -393.639
L405.471 -397.583
L405.471 -401.527
L405.471 -405.471
L401.527 -405.471
L397.583 -405.471
L393.639 -405.471
L389.695 -405.471
L385.75 -405.471
L381.806 -405.471
L377.862 -405.471
L373.918 -405.471
L369.974 -405.471
L366.03 -405.471
L362.086 -405.471
L358.142 -405.471
L354.198 -405.471
L350.254 -405.471
L346.31 -405.471
L342.366 -405.471
L338.422 -405.471
L334.478 -405.471
L330.534 -405.471
L326.59 -405.471
L322.646 -405.471
L318.702 -405.471
L314.757 -405.471
L310.813 -405.471
L306.869 -405.471
L302.925 -405.471
L298.981 -405.471
L295.037 -405.471
L291.093 -405.471
L287.149 -405.471
L283.205 -405.471
L279.261 -405.471
L275.317 -405.471
L271.373 -405.471
L267.429 -405.471
L263.485 -405.471
L259.541 -405.471
L255.597 -405.471
L251.653 -405.471
L247.709 -405.471
L243.764 -405.471
L239.82 -405.471
L235.876 -405.471
L231.932 -405.471
L227.988 -405.471
L224.044 -405.471
L220.1 -405.471
L216.156 -405.471
L212.212 -405.471
L208.268 -405.471
L204.324 -405.471
L200.38 -405.471
L196.436 -405.471
L192.492 -405.471
L188.548 -405.471
L184.604 -405.471
L180.66 -405.471
L176.716 -405.471
L172.771 -405.471
L168.827 -405.471
L164.883 -405.471
L160.939 -405.471
L156.995 -405.471
L153.051 -405.471
L149.107 -405.471
L145.163 -405.471
L141.219 -405.471
L137.275 -405.471
L133.331 -405.471
L129.387 -405.471
L125.443 -405.471
L121.499 -405.471
L117.555 -405.471
L113.611 -405.471
L109.667 -405.471
L105.723 -405.471
L101.778 -405.471
L97.8344 -405.471
L93.8903 -405.471
L89.9463 -405.471
L86.0022 -405.471
L82.0582 -405.471
L78.1141 -405.471
L74.1701 -405.471
L70.226 -405.471
L66.282 -405.471
L62.3379 -405.471
L58.3938 -405.471
L54.4498 -405.471
L50.5057 -405.471
L46.5617 -405.471
L42.6176 -405.471
L38.6736 -405.471
L34.7295 -405.471
L30.7855 -405.471
L26.8414 -405.471
L22.8973 -405.471
L18.9533 -405.471
L15.0092 -405.471
L15.0092 -401.527
L15.0092 -397.583
L15.0092 -393.639
L15.0092 -389.695
L15.0092 -385.75
L15.0092 -381.806
L15.0092 -377.862
L15.0092 -373.918
L15.0092 -369.974
L15.0092 -366.03
L15.0092 -362.086
L15.0092 -358.142
L15.0092 -354.198
L15.0092 -350.254
L15.0092 -346.31
L15.0092 -342.366
L15.0092 -338.422
L15.0092 -334.478
L15.0092 -330.534
L15.0092 -326.59
L15.0092 -322.646
L15.0092 -318.702
L15.0092 -314.757
L15.0092 -310.813
L15.0092 -306.869
L15.0092 -302.925
L15.0092 -298.981
L15.0092 -295.037
L15.0092 -291.093
L15.0092 -287.149
L15.0092 -283.205
L15.0092 -279.261
L15.0092 -275.317
L15.0092 -271.373
L15.0092 -267.429
L15.0092 -263.485
L15.0092 -259.541
L15.0092 -255.597
L15.0092 -251.653
L15.0092 -247.709
L15.0092 -243.764
L15.0092 -239.82
L15.0092 -235.876
L15.0092 -231.932
L15.0092 -227.988
L15.0092 -224.044
L15.0092 -220.1
L15.0092 -216.156
L15.0092 -212.212
L15.0092 -208.268
L15.0092 -204.324
L15.0092 -200.38
L15.0092 -196.436
L15.0092 -192.492
L15.0092 -188.548
L15.0092 -184.604
L15.0092 -180.66
L15.0092 -176.716
L15.0092 -172.771
L15.0092 -168.827
L15.0092 -164.883
L15.0092 -160.939
L15.0092 -156.995
L15.0092 -153.051
L15.0092 -149.107
L15.0092 -145.163
L15.0092 -141.219
L15.0092 -137.275
L15.0092 -133.331
L15.0092 -129.387
L15.0092 -125.443
L15.0092 -121.499
L15.0092 -117.555
L15.0092 -113.611
L15.0092 -109.667
L15.0092 -105.723
L15.0092 -101.778
L15.0092 -97.8344
L15.0092 -93.8903
L15.0092 -89.9463
L15.0092 -86.0022
L15.0092 -82.0582
L15.0092 -78.1141
L15.0092 -74.1701
L15.0092 -70.226
L15.0092 -66.282
L15.0092 -62.3379
L15.0092 -58.3938
L15.0092 -54.4498
L15.0092 -50.5057
L15.0092 -46.5617
L15.0092 -42.6176
L15.0092 -38.6736
L15.0092 -34.7295
L15.0092 -30.7855
L15.0092 -26.8414
L15.0092 -22.8973
L15.0092 -18.9533
L15.0092 -15.0092
M224.044 -86.7084
L223.033 -89.9463
L224.044 -91.1078
L226.014 -89.9463
L224.044 -86.7084
M224.044 -111.786
L222.602 -113.611
L224.044 -115.051
L227.259 -113.611
L224.044 -111.786
M243.764 -68.6956
L242.678 -70.226
L243.764 -71.6961
L244.898 -70.226
L243.764 -68.6956
M243.764 -128.644
L242.774 -129.387
L241.718 -133.331
L243.764 -135.903
L247.709 -136.437
L249.796 -133.331
L247.994 -129.387
L247.709 -129.175
L243.764 -128.644
M247.709 -92.8372
L246.606 -93.8903
L244.524 -97.8344
L244.461 -101.778
L246.492 -105.723
L247.709 -106.909
L251.653 -108.227
L255.597 -108.032
L258.474 -105.723
L259.541 -104.316
L260.942 -101.778
L260.927 -97.8344
L259.541 -95.4508
L258.271 -93.8903
L255.597 -91.7516
L251.653 -91.5539
L247.709 -92.8372
M267.429 -68.546
L266.883 -70.226
L266.648 -74.1701
L267.429 -75.2298
L271.051 -74.1701
L271.373 -72.7787
L272.146 -70.226
L271.373 -69.4777
L267.429 -68.546
M291.093 -84.3717
L289 -86.0022
L287.149 -86.4822
L286.073 -89.9463
L283.205 -92.96
L282.079 -93.8903
L283.205 -97.3626
L283.854 -97.8344
L286.97 -101.778
L287.149 -102.421
L288.598 -105.723
L287.945 -109.667
L287.149 -110.762
L286.53 -113.611
L283.758 -117.555
L283.205 -117.995
L279.261 -119.97
L275.317 -121.293
L274.93 -121.499
L271.373 -124.464
L270.529 -125.443
L268.361 -129.387
L267.467 -133.331
L267.429 -133.826
L267.328 -137.275
L266.459 -141.219
L265.494 -145.163
L265.2 -149.107
L265.748 -153.051
L267.091 -156.995
L267.429 -157.741
L269.364 -160.939
L271.373 -163.685
L272.58 -164.883
L275.317 -167.502
L277.241 -168.827
L279.261 -170.251
L283.205 -172.257
L284.658 -172.771
L287.149 -173.716
L291.093 -174.691
L295.037 -175.223
L298.981 -175.353
L302.925 -175.093
L306.869 -174.443
L310.813 -173.387
L312.516 -172.771
L314.757 -171.906
L318.702 -169.953
L320.578 -168.827
L322.646 -167.453
L325.937 -164.883
L326.59 -164.303
L329.969 -160.939
L330.534 -160.279
L333.14 -156.995
L334.478 -154.948
L335.663 -153.051
L337.655 -149.107
L338.422 -147.157
L339.199 -145.163
L340.347 -141.219
L341.114 -137.275
L341.527 -133.331
L341.599 -129.387
L341.333 -125.443
L340.72 -121.499
L339.738 -117.555
L338.422 -113.797
L338.356 -113.611
L336.574 -109.667
L334.478 -106.045
L334.283 -105.723
L331.427 -101.778
L330.534 -100.734
L327.843 -97.8344
L326.59 -96.6597
L323.291 -93.8903
L322.646 -93.4073
L318.702 -90.7781
L317.268 -89.9463
L314.757 -88.6273
L310.813 -86.8666
L308.544 -86.0022
L306.869 -85.4468
L302.925 -84.3965
L298.981 -83.7563
L295.037 -83.6747
L291.093 -84.3717" id="C2_0_ab33d84cf1"/>
    </defs>
    <g clip-path="url(#p85c0e9ffdb)">
     <use style="fill:#d6dad6;" x="0" xlink:href="#C2_0_ab33d84cf1" y="420.48"/>
    </g>
   </g>
   <g id="PathCollection_4">
    <defs>
     <path d="
M247.709 -92.8372
L251.653 -91.5539
L255.597 -91.7516
L258.271 -93.8903
L259.541 -95.4508
L260.927 -97.8344
L260.942 -101.778
L259.541 -104.316
L258.474 -105.723
L255.597 -108.032
L251.653 -108.227
L247.709 -106.909
L246.492 -105.723
L244.461 -101.778
L244.524 -97.8344
L246.606 -93.8903
L247.709 -92.8372" id="C3_0_31a38c16d6"/>
    </defs>
    <g clip-path="url(#p85c0e9ffdb)">
     <use style="fill:#e9d8c5;" x="0" xlink:href="#C3_0_31a38c16d6" y="420.48"/>
    </g>
   </g>
   <g id="PathCollection_5">
    <defs>
     <path d="
M283.205 -185.814
L287.149 -185.15
L290.284 -188.548
L288.672 -192.492
L287.149 -193.519
L283.205 -192.743
L283.001 -192.492
L281.347 -188.548
L283.205 -185.814" id="C4_0_69cd116d4a"/>
     <path d="
M318.702 -186.414
L322.646 -186.043
L326.233 -188.548
L326.59 -190.318
L327.041 -192.492
L326.59 -193.69
L324.418 -196.436
L322.646 -197.696
L318.702 -197.694
L316.757 -196.436
L314.757 -193.123
L314.536 -192.492
L314.757 -191.901
L315.666 -188.548
L318.702 -186.414" id="C4_1_4bee00b8da"/>
    </defs>
    <g clip-path="url(#p85c0e9ffdb)">
     <use style="fill:#f0b8b6;" x="0" xlink:href="#C4_0_69cd116d4a" y="420.48"/>
    </g>
    <g clip-path="url(#p85c0e9ffdb)">
     <use style="fill:#f0b8b6;" x="0" xlink:href="#C4_1_4bee00b8da" y="420.48"/>
    </g>
   </g>
   <g id="PathCollection_6">
    <defs>
     <path d="
M397.583 -61.8454
L401.527 -61.3103
L405.471 -60.8693
L405.471 -62.3379
L405.471 -66.282
L405.471 -70.226
L405.471 -74.1701
L405.471 -78.1141
L405.471 -82.0582
L405.471 -86.0022
L405.471 -89.9463
L405.471 -93.8903
L405.471 -97.8344
L405.471 -101.778
L405.471 -105.723
L405.471 -109.667
L405.471 -113.611
L405.471 -117.555
L405.471 -121.499
L405.471 -125.443
L405.471 -129.387
L405.471 -133.331
L405.471 -137.275
L405.471 -141.219
L405.471 -145.163
L405.471 -149.107
L405.471 -153.051
L405.471 -156.995
L405.471 -160.939
L405.471 -164.883
L405.471 -168.827
L405.471 -172.771
L405.471 -176.716
L405.471 -180.66
L405.471 -184.604
L405.471 -188.548
L405.471 -192.492
L405.471 -196.436
L405.471 -200.38
L405.471 -204.324
L405.471 -208.268
L405.471 -212.212
L405.471 -216.156
L405.471 -220.1
L405.471 -224.044
L405.471 -227.988
L405.471 -231.932
L405.471 -235.876
L405.471 -239.82
L405.471 -243.764
L405.471 -247.709
L405.471 -251.653
L405.471 -255.597
L405.471 -259.541
L405.471 -263.485
L405.471 -267.429
L405.471 -271.373
L405.471 -275.317
L405.471 -279.261
L405.471 -283.205
L405.471 -287.149
L405.471 -291.093
L405.471 -295.037
L405.471 -298.981
L405.471 -302.925
L405.471 -306.869
L405.471 -310.813
L405.471 -314.757
L405.471 -318.702
L405.471 -322.646
L405.471 -326.59
L405.471 -330.534
L405.471 -334.478
L405.471 -338.422
L405.471 -342.366
L405.471 -346.31
L405.471 -350.254
L405.471 -354.198
L405.471 -358.142
L405.471 -362.086
L405.471 -366.03
L405.471 -369.974
L405.471 -373.918
L405.471 -377.862
L405.471 -381.806
L405.471 -385.75
L405.471 -389.695
L405.471 -393.639
L405.471 -397.583
L405.471 -401.527
L405.471 -405.471
L401.527 -405.471
L397.583 -405.471
L393.639 -405.471
L389.695 -405.471
L385.75 -405.471
L381.806 -405.471
L377.862 -405.471
L373.918 -405.471
L369.974 -405.471
L366.03 -405.471
L362.086 -405.471
L358.142 -405.471
L354.198 -405.471
L350.254 -405.471
L346.31 -405.471
L342.366 -405.471
L338.422 -405.471
L334.478 -405.471
L330.534 -405.471
L326.59 -405.471
L322.646 -405.471
L318.702 -405.471
L314.757 -405.471
L310.813 -405.471
L306.869 -405.471
L302.925 -405.471
L298.981 -405.471
L295.037 -405.471
L291.093 -405.471
L287.149 -405.471
L283.205 -405.471
L279.261 -405.471
L275.317 -405.471
L271.373 -405.471
L267.429 -405.471
L263.485 -405.471
L259.541 -405.471
L255.597 -405.471
L251.653 -405.471
L247.709 -405.471
L243.764 -405.471
L239.82 -405.471
L235.876 -405.471
L231.932 -405.471
L227.988 -405.471
L224.044 -405.471
L220.1 -405.471
L216.156 -405.471
L212.212 -405.471
L208.268 -405.471
L204.324 -405.471
L200.38 -405.471
L196.436 -405.471
L192.492 -405.471
L188.548 -405.471
L184.604 -405.471
L180.66 -405.471
L176.716 -405.471
L172.771 -405.471
L168.827 -405.471
L164.883 -405.471
L160.939 -405.471
L156.995 -405.471
L153.051 -405.471
L149.795 -405.471
L149.107 -403.607
L148.355 -401.527
L147.004 -397.583
L145.745 -393.639
L145.163 -391.7
L144.572 -389.695
L143.484 -385.75
L142.484 -381.806
L141.571 -377.862
L141.219 -376.209
L140.739 -373.918
L139.99 -369.974
L139.325 -366.03
L138.744 -362.086
L138.246 -358.142
L137.83 -354.198
L137.498 -350.254
L137.275 -346.742
L137.248 -346.31
L137.078 -342.366
L136.992 -338.422
L136.99 -334.478
L137.072 -330.534
L137.24 -326.59
L137.275 -326.059
L137.491 -322.646
L137.827 -318.702
L138.251 -314.757
L138.763 -310.813
L139.368 -306.869
L140.066 -302.925
L140.862 -298.981
L141.219 -297.425
L141.747 -295.037
L142.725 -291.093
L143.81 -287.149
L145.007 -283.205
L145.163 -282.741
L146.292 -279.261
L147.694 -275.317
L149.107 -271.683
L149.223 -271.373
L150.845 -267.429
L152.613 -263.485
L153.051 -262.591
L154.49 -259.541
L156.52 -255.597
L156.995 -254.753
L158.673 -251.653
L160.939 -247.82
L161.003 -247.709
L163.456 -243.764
L164.883 -241.673
L166.098 -239.82
L168.827 -236.033
L168.936 -235.876
L171.94 -231.932
L172.771 -230.943
L175.161 -227.988
L176.716 -226.253
L178.62 -224.044
L180.66 -221.916
L182.337 -220.1
L184.604 -217.9
L186.337 -216.156
L188.548 -214.171
L190.657 -212.212
L192.492 -210.698
L195.349 -208.268
L196.436 -207.451
L200.38 -204.406
L200.482 -204.324
L204.324 -201.622
L206.049 -200.38
L208.268 -198.99
L212.212 -196.485
L212.286 -196.436
L216.156 -194.227
L219.181 -192.492
L220.1 -192.043
L224.044 -190.056
L227.028 -188.548
L227.988 -188.142
L231.932 -186.421
L235.876 -184.739
L236.179 -184.604
L239.82 -183.284
L243.764 -181.929
L247.709 -180.696
L247.828 -180.66
L251.653 -179.769
L255.597 -179.095
L259.541 -178.715
L263.485 -178.562
L267.429 -178.405
L271.373 -177.704
L273.314 -176.716
L275.317 -176.096
L279.261 -173.849
L281.33 -172.771
L283.205 -171.845
L287.149 -170.522
L291.093 -169.659
L295.037 -169.218
L298.981 -169.154
L302.925 -169.424
L306.869 -169.994
L310.813 -170.821
L314.757 -171.789
L318.702 -172.523
L322.646 -172.396
L326.59 -170.736
L329.729 -168.827
L330.534 -167.972
L334.304 -164.883
L334.478 -164.644
L338.11 -160.939
L338.422 -160.427
L341.145 -156.995
L342.366 -154.431
L343.214 -153.051
L344.573 -149.107
L345.029 -145.163
L344.62 -141.219
L343.143 -137.275
L342.366 -136.192
L340.745 -133.331
L338.422 -130.911
L337.348 -129.387
L334.478 -126.597
L333.712 -125.443
L330.629 -121.499
L330.534 -121.383
L328.974 -117.555
L328.454 -113.611
L329.533 -109.667
L330.534 -107.714
L331.936 -105.723
L333.079 -101.778
L334.394 -97.8344
L334.478 -97.5443
L336.803 -93.8903
L338.422 -90.9453
L339.454 -89.9463
L342.366 -86.2439
L342.679 -86.0022
L346.31 -82.3601
L346.757 -82.0582
L350.254 -79.0976
L351.853 -78.1141
L354.198 -76.365
L358.02 -74.1701
L358.142 -74.0878
L362.086 -72.004
L366.03 -70.2687
L366.149 -70.226
L369.974 -68.6668
L373.918 -67.2914
L377.266 -66.282
L377.862 -66.0828
L381.806 -64.9848
L385.75 -64.0302
L389.695 -63.1989
L393.639 -62.4775
L394.555 -62.3379
L397.583 -61.8454
M283.205 -185.814
L281.347 -188.548
L283.001 -192.492
L283.205 -192.743
L287.149 -193.519
L288.672 -192.492
L290.284 -188.548
L287.149 -185.15
L283.205 -185.814
M318.702 -186.414
L315.666 -188.548
L314.757 -191.901
L314.536 -192.492
L314.757 -193.123
L316.757 -196.436
L318.702 -197.694
L322.646 -197.696
L324.418 -196.436
L326.59 -193.69
L327.041 -192.492
L326.59 -190.318
L326.233 -188.548
L322.646 -186.043
L318.702 -186.414" id="C5_0_cba90808be"/>
     <path d="
M271.373 -69.4993
L272.222 -70.226
L271.373 -70.7124
L271.11 -70.226
L271.373 -69.4993" id="C5_1_77419a73d2"/>
     <path d="
M243.764 -73.0254
L247.221 -74.1701
L244.657 -78.1141
L243.764 -78.6555
L242.245 -78.1141
L240.351 -74.1701
L243.764 -73.0254" id="C5_2_73999c75f3"/>
     <path d="
M263.485 -73.9943
L263.551 -74.1701
L267.429 -77.7991
L270.627 -78.1141
L267.429 -80.3946
L263.485 -79.3866
L262.422 -78.1141
L263.282 -74.1701
L263.485 -73.9943" id="C5_3_50b2b78437"/>
     <path d="
M291.093 -82.5986
L294.919 -86.0022
L291.093 -87.4067
L289.42 -86.0022
L291.093 -82.5986" id="C5_4_f309f0951e"/>
     <path d="
M227.988 -87.5646
L230.768 -89.9463
L230.106 -93.8903
L227.988 -95.6241
L224.95 -93.8903
L227.708 -89.9463
L227.988 -87.5646" id="C5_5_bb36eef725"/>
     <path d="
M279.261 -91.4773
L280.075 -93.8903
L283.205 -97.5515
L283.436 -97.8344
L283.205 -100.623
L279.261 -100.726
L276.274 -97.8344
L275.74 -93.8903
L279.261 -91.4773" id="C5_6_0245824fa2"/>
     <path d="
M227.988 -111.697
L231.932 -111.275
L233.883 -113.611
L233.392 -117.555
L231.932 -118.939
L227.988 -119.004
L227.545 -117.555
L227.868 -113.611
L227.988 -111.697" id="C5_7_e7233159bf"/>
     <path d="
M271.373 -114.68
L275.317 -114.292
L277.175 -117.555
L275.317 -121.326
L274.98 -121.499
L271.373 -122.232
L268.398 -121.499
L268.582 -117.555
L271.373 -114.68" id="C5_8_f09ce942bd"/>
     <path d="
M247.709 -123.544
L251.653 -123.24
L254.37 -125.443
L255.326 -129.387
L251.653 -131.802
L250.271 -129.387
L247.709 -125.999
L245.729 -125.443
L247.709 -123.544" id="C5_9_3af80d5997"/>
     <path d="
M267.429 -140.597
L267.779 -141.219
L267.429 -141.799
L266.824 -141.219
L267.429 -140.597" id="C5_a_6962dd5f98"/>
     <path d="
M263.485 -152.76
L267.429 -150.922
L269.27 -153.051
L267.429 -156.421
L263.485 -154.442
L263.183 -153.051
L263.485 -152.76" id="C5_b_b85bb9399f"/>
    </defs>
    <g clip-path="url(#p85c0e9ffdb)">
     <use style="fill:#d5c1ca;" x="0" xlink:href="#C5_0_cba90808be" y="420.48"/>
    </g>
    <g clip-path="url(#p85c0e9ffdb)">
     <use style="fill:#d5c1ca;" x="0" xlink:href="#C5_1_77419a73d2" y="420.48"/>
    </g>
    <g clip-path="url(#p85c0e9ffdb)">
     <use style="fill:#d5c1ca;" x="0" xlink:href="#C5_2_73999c75f3" y="420.48"/>
    </g>
    <g clip-path="url(#p85c0e9ffdb)">
     <use style="fill:#d5c1ca;" x="0" xlink:href="#C5_3_50b2b78437" y="420.48"/>
    </g>
    <g clip-path="url(#p85c0e9ffdb)">
     <use style="fill:#d5c1ca;" x="0" xlink:href="#C5_4_f309f0951e" y="420.48"/>
    </g>
    <g clip-path="url(#p85c0e9ffdb)">
     <use style="fill:#d5c1ca;" x="0" xlink:href="#C5_5_bb36eef725" y="420.48"/>
    </g>
    <g clip-path="url(#p85c0e9ffdb)">
     <use style="fill:#d5c1ca;" x="0" xlink:href="#C5_6_0245824fa2" y="420.48"/>
    </g>
    <g clip-path="url(#p85c0e9ffdb)">
     <use style="fill:#d5c1ca;" x="0" xlink:href="#C5_7_e7233159bf" y="420.48"/>
    </g>
    <g clip-path="url(#p85c0e9ffdb)">
     <use style="fill:#d5c1ca;" x="0" xlink:href="#C5_8_f09ce942bd" y="420.48"/>
    </g>
    <g clip-path="url(#p85c0e9ffdb)">
     <use style="fill:#d5c1ca;" x="0" xlink:href="#C5_9_3af80d5997" y="420.48"/>
    </g>
    <g clip-path="url(#p85c0e9ffdb)">
     <use style="fill:#d5c1ca;" x="0" xlink:href="#C5_a_6962dd5f98" y="420.48"/>
    </g>
    <g clip-path="url(#p85c0e9ffdb)">
     <use style="fill:#d5c1ca;" x="0" xlink:href="#C5_b_b85bb9399f" y="420.48"/>
    </g>
   </g>
   <g id="PathCollection_7">
    <defs>
     <path d="
M15.0092 -15.0092
L18.9533 -15.0092
L22.8973 -15.0092
L26.8414 -15.0092
L30.7855 -15.0092
L34.7295 -15.0092
L38.6736 -15.0092
L42.6176 -15.0092
L46.5617 -15.0092
L50.5057 -15.0092
L54.4498 -15.0092
L58.3938 -15.0092
L62.3379 -15.0092
L66.282 -15.0092
L70.226 -15.0092
L74.1701 -15.0092
L78.1141 -15.0092
L82.0582 -15.0092
L86.0022 -15.0092
L89.9463 -15.0092
L93.8903 -15.0092
L97.8344 -15.0092
L101.778 -15.0092
L105.723 -15.0092
L109.667 -15.0092
L113.611 -15.0092
L117.555 -15.0092
L121.499 -15.0092
L125.443 -15.0092
L129.387 -15.0092
L133.331 -15.0092
L137.275 -15.0092
L141.219 -15.0092
L145.163 -15.0092
L149.107 -15.0092
L153.051 -15.0092
L156.995 -15.0092
L160.939 -15.0092
L164.883 -15.0092
L168.827 -15.0092
L172.771 -15.0092
L176.716 -15.0092
L180.66 -15.0092
L184.604 -15.0092
L188.548 -15.0092
L192.492 -15.0092
L196.436 -15.0092
L200.38 -15.0092
L204.324 -15.0092
L208.268 -15.0092
L212.212 -15.0092
L216.156 -15.0092
L220.1 -15.0092
L224.044 -15.0092
L227.988 -15.0092
L231.932 -15.0092
L235.876 -15.0092
L239.82 -15.0092
L243.764 -15.0092
L247.709 -15.0092
L251.653 -15.0092
L255.597 -15.0092
L259.541 -15.0092
L263.485 -15.0092
L267.429 -15.0092
L271.373 -15.0092
L275.317 -15.0092
L279.261 -15.0092
L283.205 -15.0092
L287.149 -15.0092
L291.093 -15.0092
L295.037 -15.0092
L298.981 -15.0092
L302.925 -15.0092
L306.869 -15.0092
L310.813 -15.0092
L314.757 -15.0092
L318.702 -15.0092
L322.646 -15.0092
L326.59 -15.0092
L330.534 -15.0092
L334.478 -15.0092
L338.422 -15.0092
L342.366 -15.0092
L346.31 -15.0092
L350.254 -15.0092
L354.198 -15.0092
L358.142 -15.0092
L362.086 -15.0092
L366.03 -15.0092
L369.974 -15.0092
L373.918 -15.0092
L377.862 -15.0092
L381.806 -15.0092
L385.75 -15.0092
L389.695 -15.0092
L393.639 -15.0092
L397.583 -15.0092
L401.527 -15.0092
L405.471 -15.0092
L405.471 -18.9533
L405.471 -22.8973
L405.471 -26.8414
L405.471 -30.7855
L405.471 -34.7295
L405.471 -38.6736
L405.471 -42.6176
L405.471 -46.5617
L405.471 -50.5057
L405.471 -54.4498
L405.471 -58.3938
L405.471 -60.8693
L401.527 -61.3103
L397.583 -61.8454
L394.555 -62.3379
L393.639 -62.4775
L389.695 -63.1989
L385.75 -64.0302
L381.806 -64.9848
L377.862 -66.0828
L377.266 -66.282
L373.918 -67.2914
L369.974 -68.6668
L366.149 -70.226
L366.03 -70.2687
L362.086 -72.004
L358.142 -74.0878
L358.02 -74.1701
L354.198 -76.365
L351.853 -78.1141
L350.254 -79.0976
L346.757 -82.0582
L346.31 -82.3601
L342.679 -86.0022
L342.366 -86.2439
L339.454 -89.9463
L338.422 -90.9453
L336.803 -93.8903
L334.478 -97.5443
L334.394 -97.8344
L333.079 -101.778
L331.936 -105.723
L330.534 -107.714
L329.533 -109.667
L328.454 -113.611
L328.974 -117.555
L330.534 -121.383
L330.629 -121.499
L333.712 -125.443
L334.478 -126.597
L337.348 -129.387
L338.422 -130.911
L340.745 -133.331
L342.366 -136.192
L343.143 -137.275
L344.62 -141.219
L345.029 -145.163
L344.573 -149.107
L343.214 -153.051
L342.366 -154.431
L341.145 -156.995
L338.422 -160.427
L338.11 -160.939
L334.478 -164.644
L334.304 -164.883
L330.534 -167.972
L329.729 -168.827
L326.59 -170.736
L322.646 -172.396
L318.702 -172.523
L314.757 -171.789
L310.813 -170.821
L306.869 -169.994
L302.925 -169.424
L298.981 -169.154
L295.037 -169.218
L291.093 -169.659
L287.149 -170.522
L283.205 -171.845
L281.33 -172.771
L279.261 -173.849
L275.317 -176.096
L273.314 -176.716
L271.373 -177.704
L267.429 -178.405
L263.485 -178.562
L259.541 -178.715
L255.597 -179.095
L251.653 -179.769
L247.828 -180.66
L247.709 -180.696
L243.764 -181.929
L239.82 -183.284
L236.179 -184.604
L235.876 -184.739
L231.932 -186.421
L227.988 -188.142
L227.028 -188.548
L224.044 -190.056
L220.1 -192.043
L219.181 -192.492
L216.156 -194.227
L212.286 -196.436
L212.212 -196.485
L208.268 -198.99
L206.049 -200.38
L204.324 -201.622
L200.482 -204.324
L200.38 -204.406
L196.436 -207.451
L195.349 -208.268
L192.492 -210.698
L190.657 -212.212
L188.548 -214.171
L186.337 -216.156
L184.604 -217.9
L182.337 -220.1
L180.66 -221.916
L178.62 -224.044
L176.716 -226.253
L175.161 -227.988
L172.771 -230.943
L171.94 -231.932
L168.936 -235.876
L168.827 -236.033
L166.098 -239.82
L164.883 -241.673
L163.456 -243.764
L161.003 -247.709
L160.939 -247.82
L158.673 -251.653
L156.995 -254.753
L156.52 -255.597
L154.49 -259.541
L153.051 -262.591
L152.613 -263.485
L150.845 -267.429
L149.223 -271.373
L149.107 -271.683
L147.694 -275.317
L146.292 -279.261
L145.163 -282.741
L145.007 -283.205
L143.81 -287.149
L142.725 -291.093
L141.747 -295.037
L141.219 -297.425
L140.862 -298.981
L140.066 -302.925
L139.368 -306.869
L138.763 -310.813
L138.251 -314.757
L137.827 -318.702
L137.491 -322.646
L137.275 -326.059
L137.24 -326.59
L137.072 -330.534
L136.99 -334.478
L136.992 -338.422
L137.078 -342.366
L137.248 -346.31
L137.275 -346.742
L137.498 -350.254
L137.83 -354.198
L138.246 -358.142
L138.744 -362.086
L139.325 -366.03
L139.99 -369.974
L140.739 -373.918
L141.219 -376.209
L141.571 -377.862
L142.484 -381.806
L143.484 -385.75
L144.572 -389.695
L145.163 -391.7
L145.745 -393.639
L147.004 -397.583
L148.355 -401.527
L149.107 -403.607
L149.795 -405.471
L149.107 -405.471
L145.163 -405.471
L141.219 -405.471
L137.275 -405.471
L133.331 -405.471
L129.387 -405.471
L125.443 -405.471
L121.499 -405.471
L117.555 -405.471
L113.611 -405.471
L109.667 -405.471
L105.723 -405.471
L101.778 -405.471
L97.8344 -405.471
L93.8903 -405.471
L89.9463 -405.471
L86.0022 -405.471
L82.0582 -405.471
L78.1141 -405.471
L74.1701 -405.471
L70.226 -405.471
L66.282 -405.471
L62.3379 -405.471
L58.3938 -405.471
L54.4498 -405.471
L50.5057 -405.471
L46.5617 -405.471
L42.6176 -405.471
L38.6736 -405.471
L34.7295 -405.471
L30.7855 -405.471
L26.8414 -405.471
L22.8973 -405.471
L18.9533 -405.471
L15.0092 -405.471
L15.0092 -401.527
L15.0092 -397.583
L15.0092 -393.639
L15.0092 -389.695
L15.0092 -385.75
L15.0092 -381.806
L15.0092 -377.862
L15.0092 -373.918
L15.0092 -369.974
L15.0092 -366.03
L15.0092 -362.086
L15.0092 -358.142
L15.0092 -354.198
L15.0092 -350.254
L15.0092 -346.31
L15.0092 -342.366
L15.0092 -338.422
L15.0092 -334.478
L15.0092 -330.534
L15.0092 -326.59
L15.0092 -322.646
L15.0092 -318.702
L15.0092 -314.757
L15.0092 -310.813
L15.0092 -306.869
L15.0092 -302.925
L15.0092 -298.981
L15.0092 -295.037
L15.0092 -291.093
L15.0092 -287.149
L15.0092 -283.205
L15.0092 -279.261
L15.0092 -275.317
L15.0092 -271.373
L15.0092 -267.429
L15.0092 -263.485
L15.0092 -259.541
L15.0092 -255.597
L15.0092 -251.653
L15.0092 -247.709
L15.0092 -243.764
L15.0092 -239.82
L15.0092 -235.876
L15.0092 -231.932
L15.0092 -227.988
L15.0092 -224.044
L15.0092 -220.1
L15.0092 -216.156
L15.0092 -212.212
L15.0092 -208.268
L15.0092 -204.324
L15.0092 -200.38
L15.0092 -196.436
L15.0092 -192.492
L15.0092 -188.548
L15.0092 -184.604
L15.0092 -180.66
L15.0092 -176.716
L15.0092 -172.771
L15.0092 -168.827
L15.0092 -164.883
L15.0092 -160.939
L15.0092 -156.995
L15.0092 -153.051
L15.0092 -149.107
L15.0092 -145.163
L15.0092 -141.219
L15.0092 -137.275
L15.0092 -133.331
L15.0092 -129.387
L15.0092 -125.443
L15.0092 -121.499
L15.0092 -117.555
L15.0092 -113.611
L15.0092 -109.667
L15.0092 -105.723
L15.0092 -101.778
L15.0092 -97.8344
L15.0092 -93.8903
L15.0092 -89.9463
L15.0092 -86.0022
L15.0092 -82.0582
L15.0092 -78.1141
L15.0092 -74.1701
L15.0092 -70.226
L15.0092 -66.282
L15.0092 -62.3379
L15.0092 -58.3938
L15.0092 -54.4498
L15.0092 -50.5057
L15.0092 -46.5617
L15.0092 -42.6176
L15.0092 -38.6736
L15.0092 -34.7295
L15.0092 -30.7855
L15.0092 -26.8414
L15.0092 -22.8973
L15.0092 -18.9533
L15.0092 -15.0092
M227.988 -87.5646
L227.708 -89.9463
L224.95 -93.8903
L227.988 -95.6241
L230.106 -93.8903
L230.768 -89.9463
L227.988 -87.5646
M227.988 -111.697
L227.868 -113.611
L227.545 -117.555
L227.988 -119.004
L231.932 -118.939
L233.392 -117.555
L233.883 -113.611
L231.932 -111.275
L227.988 -111.697
M243.764 -73.0254
L240.351 -74.1701
L242.245 -78.1141
L243.764 -78.6555
L244.657 -78.1141
L247.221 -74.1701
L243.764 -73.0254
M247.709 -123.544
L245.729 -125.443
L247.709 -125.999
L250.271 -129.387
L251.653 -131.802
L255.326 -129.387
L254.37 -125.443
L251.653 -123.24
L247.709 -123.544
M263.485 -73.9943
L263.282 -74.1701
L262.422 -78.1141
L263.485 -79.3866
L267.429 -80.3946
L270.627 -78.1141
L267.429 -77.7991
L263.551 -74.1701
L263.485 -73.9943
M263.485 -152.76
L263.183 -153.051
L263.485 -154.442
L267.429 -156.421
L269.27 -153.051
L267.429 -150.922
L263.485 -152.76
M267.429 -140.597
L266.824 -141.219
L267.429 -141.799
L267.779 -141.219
L267.429 -140.597
M271.373 -69.4993
L271.11 -70.226
L271.373 -70.7124
L272.222 -70.226
L271.373 -69.4993
M271.373 -114.68
L268.582 -117.555
L268.398 -121.499
L271.373 -122.232
L274.98 -121.499
L275.317 -121.326
L277.175 -117.555
L275.317 -114.292
L271.373 -114.68
M279.261 -91.4773
L275.74 -93.8903
L276.274 -97.8344
L279.261 -100.726
L283.205 -100.623
L283.436 -97.8344
L283.205 -97.5515
L280.075 -93.8903
L279.261 -91.4773
M287.149 -119.314
L284.008 -121.499
L283.205 -122.998
L281.252 -125.443
L279.261 -127.67
L276.349 -129.387
L275.317 -129.653
L272.418 -133.331
L273.338 -137.275
L275.317 -139.799
L279.261 -140.277
L283.205 -139.05
L285.604 -137.275
L287.149 -135.846
L291.093 -133.489
L291.239 -133.331
L293.142 -129.387
L294.369 -125.443
L292.736 -121.499
L291.093 -120.271
L287.149 -119.314
M291.093 -82.5986
L289.42 -86.0022
L291.093 -87.4067
L294.919 -86.0022
L291.093 -82.5986" id="C6_0_3193897882"/>
    </defs>
    <g clip-path="url(#p85c0e9ffdb)">
     <use style="fill:#d6dad6;" x="0" xlink:href="#C6_0_3193897882" y="420.48"/>
    </g>
   </g>
   <g id="PathCollection_8">
    <defs>
     <path d="
M287.149 -119.314
L291.093 -120.271
L292.736 -121.499
L294.369 -125.443
L293.142 -129.387
L291.239 -133.331
L291.093 -133.489
L287.149 -135.846
L285.604 -137.275
L283.205 -139.05
L279.261 -140.277
L275.317 -139.799
L273.338 -137.275
L272.418 -133.331
L275.317 -129.653
L276.349 -129.387
L279.261 -127.67
L281.252 -125.443
L283.205 -122.998
L284.008 -121.499
L287.149 -119.314" id="C7_0_abf9ce1414"/>
    </defs>
    <g clip-path="url(#p85c0e9ffdb)">
     <use style="fill:#e9d8c5;" x="0" xlink:href="#C7_0_abf9ce1414" y="420.48"/>
    </g>
   </g>
   <g id="PathCollection_9">
    <defs>
     <path d="
M231.932 -121.397
L232.041 -121.499
L231.932 -121.601
L231.753 -121.499
L231.932 -121.397" id="C8_0_67fb4f5d0b"/>
     <path d="
M164.883 -164.314
L168.827 -163.251
L172.771 -163.483
L176.077 -164.883
L176.716 -165.134
L180.434 -168.827
L180.66 -169.177
L182.025 -172.771
L182.19 -176.716
L180.937 -180.66
L180.66 -181.113
L177.214 -184.604
L176.716 -185
L172.771 -186.451
L168.827 -186.508
L164.883 -185.295
L163.6 -184.604
L160.939 -182.129
L159.642 -180.66
L158.11 -176.716
L158.097 -172.771
L159.629 -168.827
L160.939 -167.283
L163.822 -164.883
L164.883 -164.314" id="C8_1_c9254002f5"/>
     <path d="
M15.0092 -192.492
L15.0092 -192.104
L18.9533 -192.009
L22.8973 -192.247
L24.5532 -192.492
L26.8414 -192.823
L30.7855 -193.751
L34.7295 -195.076
L37.7721 -196.436
L38.6736 -196.845
L42.6176 -199.114
L44.3881 -200.38
L46.5617 -202.018
L49.0695 -204.324
L50.5057 -205.76
L52.6146 -208.268
L54.4498 -210.745
L55.3842 -212.212
L57.5402 -216.156
L58.3938 -218.053
L59.2061 -220.1
L60.4447 -224.044
L61.3236 -227.988
L61.8652 -231.932
L62.0863 -235.876
L61.9974 -239.82
L61.6024 -243.764
L60.8977 -247.709
L59.874 -251.653
L58.5188 -255.597
L58.3938 -255.883
L56.7552 -259.541
L54.5952 -263.485
L54.4498 -263.709
L51.8823 -267.429
L50.5057 -269.147
L48.5478 -271.373
L46.5617 -273.367
L44.3603 -275.317
L42.6176 -276.72
L38.9263 -279.261
L38.6736 -279.424
L34.7295 -281.545
L30.8573 -283.205
L30.7855 -283.235
L26.8414 -284.48
L22.8973 -285.354
L18.9533 -285.868
L15.0092 -286.031
L15.0092 -283.205
L15.0092 -279.261
L15.0092 -275.317
L15.0092 -271.373
L15.0092 -267.429
L15.0092 -263.485
L15.0092 -259.541
L15.0092 -255.597
L15.0092 -251.653
L15.0092 -247.709
L15.0092 -243.764
L15.0092 -239.82
L15.0092 -235.876
L15.0092 -231.932
L15.0092 -227.988
L15.0092 -224.044
L15.0092 -220.1
L15.0092 -216.156
L15.0092 -212.212
L15.0092 -208.268
L15.0092 -204.324
L15.0092 -200.38
L15.0092 -196.436
L15.0092 -192.492" id="C8_2_13cc0438bd"/>
    </defs>
    <g clip-path="url(#p85c0e9ffdb)">
     <use style="fill:#f0b8b6;" x="0" xlink:href="#C8_0_67fb4f5d0b" y="420.48"/>
    </g>
    <g clip-path="url(#p85c0e9ffdb)">
     <use style="fill:#f0b8b6;" x="0" xlink:href="#C8_1_c9254002f5" y="420.48"/>
    </g>
    <g clip-path="url(#p85c0e9ffdb)">
     <use style="fill:#f0b8b6;" x="0" xlink:href="#C8_2_13cc0438bd" y="420.48"/>
    </g>
   </g>
   <g id="PathCollection_10">
    <defs>
     <path d="
M239.82 -76.8511
L242.731 -78.1141
L243.764 -79.8666
L245.808 -78.1141
L247.709 -76.8996
L250.63 -78.1141
L251.596 -82.0582
L251.65 -86.0022
L250.6 -89.9463
L247.709 -91.5043
L245.873 -89.9463
L243.764 -88.9024
L241.122 -86.0022
L239.82 -85.259
L237.036 -82.0582
L237.23 -78.1141
L239.82 -76.8511" id="C9_0_c8e7a52605"/>
     <path d="
M259.541 -75.5035
L261.264 -78.1141
L263.485 -81.2518
L267.429 -81.8633
L268.756 -82.0582
L267.429 -85.9316
L267.353 -86.0022
L263.616 -89.9463
L267.429 -90.8876
L271.373 -91.3345
L272.096 -89.9463
L275.317 -87.0103
L279.261 -87.2772
L281.177 -89.9463
L279.261 -90.5708
L275.317 -93.7583
L275.012 -93.8903
L275.317 -94.2006
L275.763 -97.8344
L275.355 -101.778
L275.317 -101.87
L271.373 -102.941
L267.429 -102.326
L265.838 -105.723
L267.429 -106.743
L271.373 -106.395
L273.969 -109.667
L275.317 -110.752
L277.775 -113.611
L275.317 -114.154
L271.373 -113.897
L268.271 -117.555
L267.429 -119.374
L263.485 -117.738
L263.14 -117.555
L260.238 -113.611
L259.541 -111.21
L259.165 -113.611
L258.656 -117.555
L258.389 -121.499
L258.306 -125.443
L257.306 -129.387
L255.597 -131.154
L255.4 -129.387
L254.357 -125.443
L251.653 -121.919
L247.709 -121.874
L245.29 -121.499
L245.654 -117.555
L247.123 -113.611
L243.764 -112.233
L242.95 -113.611
L239.82 -116.149
L239.015 -117.555
L235.876 -120.343
L234.848 -121.499
L231.932 -124.219
L230.056 -125.443
L229.868 -129.387
L229.609 -133.331
L231.932 -136.075
L233.038 -137.275
L235.051 -141.219
L232.258 -145.163
L231.932 -145.743
L229.566 -149.107
L227.988 -151.634
L227.029 -153.051
L224.302 -156.995
L224.044 -157.311
L221.246 -160.939
L220.1 -162.132
L217.925 -164.883
L216.156 -166.749
L214.669 -168.827
L212.212 -172.329
L211.96 -172.771
L209.845 -176.716
L208.625 -180.66
L208.268 -182.86
L207.858 -184.604
L207.317 -188.548
L206.933 -192.492
L206.546 -196.436
L206.078 -200.38
L205.496 -204.324
L204.792 -208.268
L204.324 -210.572
L203.912 -212.212
L202.842 -216.156
L201.68 -220.1
L200.438 -224.044
L200.38 -224.223
L198.954 -227.988
L197.413 -231.932
L196.436 -234.38
L195.753 -235.876
L193.942 -239.82
L192.492 -242.948
L192.067 -243.764
L190.018 -247.709
L188.548 -250.529
L187.903 -251.653
L185.641 -255.597
L184.604 -257.397
L183.268 -259.541
L180.808 -263.485
L180.66 -263.72
L178.164 -267.429
L176.716 -269.568
L175.425 -271.373
L172.771 -275.055
L172.574 -275.317
L169.55 -279.261
L168.827 -280.187
L166.392 -283.205
L164.883 -285.038
L163.101 -287.149
L160.939 -289.653
L159.675 -291.093
L156.995 -294.067
L156.113 -295.037
L153.051 -298.313
L152.427 -298.981
L149.107 -302.429
L148.633 -302.925
L145.163 -306.454
L144.762 -306.869
L141.219 -310.436
L140.854 -310.813
L137.275 -314.429
L136.961 -314.757
L133.331 -318.5
L133.143 -318.702
L129.46 -322.646
L129.387 -322.724
L125.956 -326.59
L125.443 -327.186
L122.68 -330.534
L121.499 -332.061
L119.673 -334.478
L117.555 -337.58
L116.978 -338.422
L114.529 -342.366
L113.611 -344.084
L112.362 -346.31
L110.476 -350.254
L109.667 -352.285
L108.827 -354.198
L107.381 -358.142
L106.206 -362.086
L105.723 -364.098
L105.188 -366.03
L104.317 -369.974
L103.634 -373.918
L103.111 -377.862
L102.729 -381.806
L102.472 -385.75
L102.33 -389.695
L102.295 -393.639
L102.36 -397.583
L102.519 -401.527
L102.77 -405.471
L101.778 -405.471
L97.8344 -405.471
L93.8903 -405.471
L89.9463 -405.471
L86.0022 -405.471
L82.0582 -405.471
L78.1141 -405.471
L74.1701 -405.471
L70.226 -405.471
L66.282 -405.471
L62.3379 -405.471
L58.3938 -405.471
L54.4498 -405.471
L50.5057 -405.471
L46.5617 -405.471
L42.6176 -405.471
L38.6736 -405.471
L34.7295 -405.471
L30.7855 -405.471
L26.8414 -405.471
L22.8973 -405.471
L18.9533 -405.471
L15.0092 -405.471
L15.0092 -401.527
L15.0092 -397.583
L15.0092 -393.639
L15.0092 -389.695
L15.0092 -385.75
L15.0092 -381.806
L15.0092 -377.862
L15.0092 -373.918
L15.0092 -369.974
L15.0092 -366.03
L15.0092 -362.086
L15.0092 -358.142
L15.0092 -354.198
L15.0092 -350.254
L15.0092 -346.31
L15.0092 -342.366
L15.0092 -338.422
L15.0092 -334.478
L15.0092 -330.534
L15.0092 -326.59
L15.0092 -322.646
L15.0092 -318.702
L15.0092 -314.757
L15.0092 -310.813
L15.0092 -306.869
L15.0092 -302.925
L15.0092 -298.981
L15.0092 -295.037
L15.0092 -291.093
L15.0092 -287.149
L15.0092 -286.031
L18.9533 -285.868
L22.8973 -285.354
L26.8414 -284.48
L30.7855 -283.235
L30.8573 -283.205
L34.7295 -281.545
L38.6736 -279.424
L38.9263 -279.261
L42.6176 -276.72
L44.3603 -275.317
L46.5617 -273.367
L48.5478 -271.373
L50.5057 -269.147
L51.8823 -267.429
L54.4498 -263.709
L54.5952 -263.485
L56.7552 -259.541
L58.3938 -255.883
L58.5188 -255.597
L59.874 -251.653
L60.8977 -247.709
L61.6024 -243.764
L61.9974 -239.82
L62.0863 -235.876
L61.8652 -231.932
L61.3236 -227.988
L60.4447 -224.044
L59.2061 -220.1
L58.3938 -218.053
L57.5402 -216.156
L55.3842 -212.212
L54.4498 -210.745
L52.6146 -208.268
L50.5057 -205.76
L49.0695 -204.324
L46.5617 -202.018
L44.3881 -200.38
L42.6176 -199.114
L38.6736 -196.845
L37.7721 -196.436
L34.7295 -195.076
L30.7855 -193.751
L26.8414 -192.823
L24.5532 -192.492
L22.8973 -192.247
L18.9533 -192.009
L15.0092 -192.104
L15.0092 -188.548
L15.0092 -184.604
L15.0092 -180.66
L15.0092 -176.716
L15.0092 -172.771
L15.0092 -168.827
L15.0092 -164.883
L15.0092 -160.939
L15.0092 -156.995
L15.0092 -153.051
L15.0092 -149.107
L15.0092 -145.163
L15.0092 -141.219
L15.0092 -137.275
L15.0092 -133.331
L15.0092 -130.449
L18.9533 -130.453
L22.8973 -130.456
L26.8414 -130.46
L30.7855 -130.464
L34.7295 -130.469
L38.6736 -130.473
L42.6176 -130.478
L46.5617 -130.483
L50.5057 -130.488
L54.4498 -130.493
L58.3938 -130.498
L62.3379 -130.504
L66.282 -130.51
L70.226 -130.516
L74.1701 -130.522
L78.1141 -130.528
L82.0582 -130.534
L86.0022 -130.541
L89.9463 -130.547
L93.8903 -130.554
L97.8344 -130.56
L101.778 -130.567
L105.723 -130.574
L109.667 -130.581
L113.611 -130.588
L117.555 -130.595
L121.499 -130.602
L125.443 -130.609
L129.387 -130.617
L133.331 -130.624
L137.275 -130.633
L141.219 -130.641
L145.163 -130.651
L149.107 -130.661
L153.051 -130.672
L156.995 -130.685
L160.939 -130.7
L164.883 -130.718
L168.827 -130.738
L172.771 -130.762
L176.716 -130.79
L180.66 -130.824
L184.604 -130.864
L188.548 -130.911
L192.492 -130.967
L196.436 -131.033
L200.38 -131.11
L204.324 -131.201
L206.224 -129.387
L208.268 -127.366
L212.212 -127.487
L216.156 -127.613
L218.514 -125.443
L218.814 -121.499
L220.1 -120.327
L224.044 -120.994
L227.988 -120.771
L231.932 -118.789
L233.307 -117.555
L235.07 -113.611
L231.932 -110.374
L230.601 -109.667
L231.932 -106.737
L234.583 -105.723
L235.876 -104.682
L239.82 -103.877
L243.764 -104.168
L247.709 -105.289
L248.296 -105.723
L247.709 -106.495
L246.753 -109.667
L247.709 -112.718
L250.396 -109.667
L251.653 -108.674
L252.466 -109.667
L255.597 -110.945
L259.053 -109.667
L258.876 -105.723
L259.541 -105.062
L263.485 -102.501
L266.139 -101.778
L263.485 -100.494
L260.207 -97.8344
L263.485 -96.1829
L264.541 -93.8903
L263.485 -90.0593
L259.541 -91.9536
L255.597 -92.7607
L252.654 -89.9463
L255.597 -88.202
L257.096 -86.0022
L256.696 -82.0582
L256.467 -78.1141
L259.541 -75.5035
M164.883 -164.314
L163.822 -164.883
L160.939 -167.283
L159.629 -168.827
L158.097 -172.771
L158.11 -176.716
L159.642 -180.66
L160.939 -182.129
L163.6 -184.604
L164.883 -185.295
L168.827 -186.508
L172.771 -186.451
L176.716 -185
L177.214 -184.604
L180.66 -181.113
L180.937 -180.66
L182.19 -176.716
L182.025 -172.771
L180.66 -169.177
L180.434 -168.827
L176.716 -165.134
L176.077 -164.883
L172.771 -163.483
L168.827 -163.251
L164.883 -164.314
M231.932 -121.397
L231.753 -121.499
L231.932 -121.601
L232.041 -121.499
L231.932 -121.397" id="C9_1_a4dbb4eef9"/>
     <path d="
M346.31 -76.3402
L350.254 -75.8827
L354.198 -77.8541
L354.437 -78.1141
L356.961 -82.0582
L357.337 -86.0022
L355.827 -89.9463
L354.198 -91.1464
L350.254 -92.9934
L346.31 -92.0391
L344.623 -89.9463
L342.366 -86.0851
L342.164 -86.0022
L341.871 -82.0582
L342.366 -80.5641
L344.254 -78.1141
L346.31 -76.3402" id="C9_2_e2eb558900"/>
     <path d="
M231.932 -87.9476
L235.876 -88.7063
L238.655 -89.9463
L239.82 -90.8816
L242.698 -93.8903
L243.764 -95.7639
L244.743 -97.8344
L243.764 -98.9883
L239.82 -100.573
L235.876 -100.793
L231.932 -100.73
L227.988 -100.901
L224.044 -100.636
L221.406 -97.8344
L220.1 -96.0372
L218.053 -93.8903
L220.1 -92.0389
L222.271 -93.8903
L224.044 -95.1747
L227.988 -96.6539
L231.626 -93.8903
L231.592 -89.9463
L231.932 -87.9476" id="C9_3_9e9efd04f5"/>
     <path d="
M291.093 -89.7926
L295.037 -89.6485
L295.769 -89.9463
L295.037 -90.7032
L291.093 -91.7115
L289.991 -89.9463
L291.093 -89.7926" id="C9_4_467ddf9eb4"/>
     <path d="
M291.093 -106.51
L294.077 -109.667
L291.093 -111.961
L289.456 -109.667
L291.093 -106.51" id="C9_5_b31684d64a"/>
     <path d="
M318.702 -113.417
L322.646 -112.039
L326.59 -113.551
L326.609 -113.611
L328.483 -117.555
L329.337 -121.499
L330.534 -123.95
L334.478 -124.788
L335.484 -125.443
L335.872 -129.387
L334.478 -133.285
L333.979 -133.331
L330.534 -134.129
L326.816 -133.331
L326.59 -133.275
L322.646 -131.625
L319.762 -129.387
L318.702 -128.451
L316.698 -125.443
L315.496 -121.499
L315.794 -117.555
L318.411 -113.611
L318.702 -113.417" id="C9_6_196a2967e6"/>
     <path d="
M259.541 -132.167
L260.445 -133.331
L259.541 -134.687
L258.329 -133.331
L259.541 -132.167" id="C9_7_d2b6d79300"/>
     <path d="
M271.373 -150.13
L275.317 -152.963
L275.39 -153.051
L275.317 -154.329
L275.184 -156.995
L271.373 -159.336
L270.231 -156.995
L271.038 -153.051
L271.373 -150.13" id="C9_8_95d55ad90f"/>
     <path d="
M342.366 -151.836
L346.31 -152.196
L347.052 -153.051
L348.569 -156.995
L346.31 -158.828
L342.366 -157.682
L340.324 -156.995
L341.23 -153.051
L342.366 -151.836" id="C9_9_e474ef6763"/>
     <path d="
M298.981 -155.879
L302.925 -155.061
L306.869 -155.982
L308.145 -156.995
L310.813 -160.204
L311.103 -160.939
L311.299 -164.883
L310.813 -165.277
L308.742 -168.827
L306.869 -170.016
L302.925 -169.865
L300.03 -168.827
L298.981 -167.681
L296.946 -168.827
L295.037 -169.251
L292.951 -168.827
L291.569 -164.883
L293.294 -160.939
L295.037 -158.722
L297.125 -156.995
L298.981 -155.879" id="C9_a_c536c7049b"/>
     <path d="
M330.534 -167.853
L331.287 -168.827
L330.534 -169.209
L329.888 -168.827
L330.534 -167.853" id="C9_b_6d02e4c709"/>
     <path d="
M247.709 -176.518
L248.075 -176.716
L251.653 -178.108
L253.82 -180.66
L252.124 -184.604
L251.653 -185.074
L247.709 -185.548
L246 -184.604
L243.851 -180.66
L247.069 -176.716
L247.709 -176.518" id="C9_c_26d1695344"/>
    </defs>
    <g clip-path="url(#p85c0e9ffdb)">
     <use style="fill:#d5c1ca;" x="0" xlink:href="#C9_0_c8e7a52605" y="420.48"/>
    </g>
    <g clip-path="url(#p85c0e9ffdb)">
     <use style="fill:#d5c1ca;" x="0" xlink:href="#C9_1_a4dbb4eef9" y="420.48"/>
    </g>
    <g clip-path="url(#p85c0e9ffdb)">
     <use style="fill:#d5c1ca;" x="0" xlink:href="#C9_2_e2eb558900" y="420.48"/>
    </g>
    <g clip-path="url(#p85c0e9ffdb)">
     <use style="fill:#d5c1ca;" x="0" xlink:href="#C9_3_9e9efd04f5" y="420.48"/>
    </g>
    <g clip-path="url(#p85c0e9ffdb)">
     <use style="fill:#d5c1ca;" x="0" xlink:href="#C9_4_467ddf9eb4" y="420.48"/>
    </g>
    <g clip-path="url(#p85c0e9ffdb)">
     <use style="fill:#d5c1ca;" x="0" xlink:href="#C9_5_b31684d64a" y="420.48"/>
    </g>
    <g clip-path="url(#p85c0e9ffdb)">
     <use style="fill:#d5c1ca;" x="0" xlink:href="#C9_6_196a2967e6" y="420.48"/>
    </g>
    <g clip-path="url(#p85c0e9ffdb)">
     <use style="fill:#d5c1ca;" x="0" xlink:href="#C9_7_d2b6d79300" y="420.48"/>
    </g>
    <g clip-path="url(#p85c0e9ffdb)">
     <use style="fill:#d5c1ca;" x="0" xlink:href="#C9_8_95d55ad90f" y="420.48"/>
    </g>
    <g clip-path="url(#p85c0e9ffdb)">
     <use style="fill:#d5c1ca;" x="0" xlink:href="#C9_9_e474ef6763" y="420.48"/>
    </g>
    <g clip-path="url(#p85c0e9ffdb)">
     <use style="fill:#d5c1ca;" x="0" xlink:href="#C9_a_c536c7049b" y="420.48"/>
    </g>
    <g clip-path="url(#p85c0e9ffdb)">
     <use style="fill:#d5c1ca;" x="0" xlink:href="#C9_b_6d02e4c709" y="420.48"/>
    </g>
    <g clip-path="url(#p85c0e9ffdb)">
     <use style="fill:#d5c1ca;" x="0" xlink:href="#C9_c_26d1695344" y="420.48"/>
    </g>
   </g>
   <g id="PathCollection_11">
    <defs>
     <path d="
M15.0092 -15.0092
L18.9533 -15.0092
L22.8973 -15.0092
L26.8414 -15.0092
L30.7855 -15.0092
L34.7295 -15.0092
L38.6736 -15.0092
L42.6176 -15.0092
L46.5617 -15.0092
L50.5057 -15.0092
L54.4498 -15.0092
L58.3938 -15.0092
L62.3379 -15.0092
L66.282 -15.0092
L70.226 -15.0092
L74.1701 -15.0092
L78.1141 -15.0092
L82.0582 -15.0092
L86.0022 -15.0092
L89.9463 -15.0092
L93.8903 -15.0092
L97.8344 -15.0092
L101.778 -15.0092
L105.723 -15.0092
L109.667 -15.0092
L113.611 -15.0092
L117.555 -15.0092
L121.499 -15.0092
L125.443 -15.0092
L129.387 -15.0092
L133.331 -15.0092
L137.275 -15.0092
L141.219 -15.0092
L145.163 -15.0092
L149.107 -15.0092
L153.051 -15.0092
L156.995 -15.0092
L160.939 -15.0092
L164.883 -15.0092
L168.827 -15.0092
L172.771 -15.0092
L176.716 -15.0092
L180.66 -15.0092
L184.604 -15.0092
L188.548 -15.0092
L192.492 -15.0092
L196.436 -15.0092
L200.38 -15.0092
L204.324 -15.0092
L208.268 -15.0092
L212.212 -15.0092
L216.156 -15.0092
L220.1 -15.0092
L224.044 -15.0092
L227.988 -15.0092
L231.932 -15.0092
L235.876 -15.0092
L239.82 -15.0092
L243.764 -15.0092
L247.709 -15.0092
L251.653 -15.0092
L255.597 -15.0092
L259.541 -15.0092
L263.485 -15.0092
L267.429 -15.0092
L271.373 -15.0092
L275.317 -15.0092
L279.261 -15.0092
L283.205 -15.0092
L287.149 -15.0092
L291.093 -15.0092
L295.037 -15.0092
L298.981 -15.0092
L302.925 -15.0092
L306.869 -15.0092
L310.813 -15.0092
L314.757 -15.0092
L318.702 -15.0092
L322.646 -15.0092
L326.59 -15.0092
L330.534 -15.0092
L334.478 -15.0092
L338.422 -15.0092
L342.366 -15.0092
L346.31 -15.0092
L350.254 -15.0092
L354.198 -15.0092
L358.142 -15.0092
L362.086 -15.0092
L366.03 -15.0092
L369.974 -15.0092
L373.918 -15.0092
L377.862 -15.0092
L381.806 -15.0092
L385.75 -15.0092
L389.695 -15.0092
L393.639 -15.0092
L397.583 -15.0092
L401.527 -15.0092
L405.471 -15.0092
L405.471 -18.9533
L405.471 -22.8973
L405.471 -26.8414
L405.471 -30.7855
L405.471 -34.7295
L405.471 -38.6736
L405.471 -42.6176
L405.471 -46.5617
L405.471 -50.5057
L405.471 -54.4498
L405.471 -58.3938
L405.471 -62.3379
L405.471 -66.282
L405.471 -70.226
L405.471 -74.1701
L405.471 -78.1141
L405.471 -82.0582
L405.471 -86.0022
L405.471 -89.9463
L405.471 -93.8903
L405.471 -97.8344
L405.471 -101.778
L405.471 -105.723
L405.471 -109.667
L405.471 -113.611
L405.471 -117.555
L405.471 -121.499
L405.471 -125.443
L405.471 -129.387
L405.471 -133.331
L405.471 -137.275
L405.471 -141.219
L405.471 -145.163
L405.471 -149.107
L405.471 -153.051
L405.471 -156.995
L405.471 -160.939
L405.471 -164.883
L405.471 -168.827
L405.471 -172.771
L405.471 -176.716
L405.471 -180.66
L405.471 -184.604
L405.471 -188.548
L405.471 -192.492
L405.471 -196.436
L405.471 -200.38
L405.471 -204.324
L405.471 -208.268
L405.471 -212.212
L405.471 -216.156
L405.471 -220.1
L405.471 -224.044
L405.471 -227.988
L405.471 -231.932
L405.471 -235.876
L405.471 -239.82
L405.471 -243.764
L405.471 -247.709
L405.471 -251.653
L405.471 -255.597
L405.471 -259.541
L405.471 -263.485
L405.471 -267.429
L405.471 -271.373
L405.471 -275.317
L405.471 -279.261
L405.471 -283.205
L405.471 -287.149
L405.471 -291.093
L405.471 -295.037
L405.471 -298.981
L405.471 -302.925
L405.471 -306.869
L405.471 -310.813
L405.471 -314.757
L405.471 -318.702
L405.471 -322.646
L405.471 -326.59
L405.471 -330.534
L405.471 -334.478
L405.471 -338.422
L405.471 -342.366
L405.471 -346.31
L405.471 -350.254
L405.471 -354.198
L405.471 -358.142
L405.471 -362.086
L405.471 -366.03
L405.471 -369.974
L405.471 -373.918
L405.471 -377.862
L405.471 -381.806
L405.471 -385.75
L405.471 -389.695
L405.471 -393.639
L405.471 -397.583
L405.471 -401.527
L405.471 -405.471
L401.527 -405.471
L397.583 -405.471
L393.639 -405.471
L389.695 -405.471
L385.75 -405.471
L381.806 -405.471
L377.862 -405.471
L373.918 -405.471
L369.974 -405.471
L366.03 -405.471
L362.086 -405.471
L358.142 -405.471
L354.198 -405.471
L350.254 -405.471
L346.31 -405.471
L342.366 -405.471
L338.422 -405.471
L334.478 -405.471
L330.534 -405.471
L326.59 -405.471
L322.646 -405.471
L318.702 -405.471
L314.757 -405.471
L310.813 -405.471
L306.869 -405.471
L302.925 -405.471
L298.981 -405.471
L295.037 -405.471
L291.093 -405.471
L287.149 -405.471
L283.205 -405.471
L279.261 -405.471
L275.317 -405.471
L271.373 -405.471
L267.429 -405.471
L263.485 -405.471
L259.541 -405.471
L255.597 -405.471
L251.653 -405.471
L247.709 -405.471
L243.764 -405.471
L239.82 -405.471
L235.876 -405.471
L231.932 -405.471
L227.988 -405.471
L224.044 -405.471
L220.1 -405.471
L216.156 -405.471
L212.212 -405.471
L208.268 -405.471
L204.324 -405.471
L200.38 -405.471
L196.436 -405.471
L192.492 -405.471
L188.548 -405.471
L184.604 -405.471
L180.66 -405.471
L176.716 -405.471
L172.771 -405.471
L168.827 -405.471
L164.883 -405.471
L160.939 -405.471
L156.995 -405.471
L153.051 -405.471
L149.107 -405.471
L145.163 -405.471
L141.219 -405.471
L137.275 -405.471
L133.331 -405.471
L129.387 -405.471
L125.443 -405.471
L121.499 -405.471
L117.555 -405.471
L113.611 -405.471
L109.667 -405.471
L105.723 -405.471
L102.77 -405.471
L102.519 -401.527
L102.36 -397.583
L102.295 -393.639
L102.33 -389.695
L102.472 -385.75
L102.729 -381.806
L103.111 -377.862
L103.634 -373.918
L104.317 -369.974
L105.188 -366.03
L105.723 -364.098
L106.206 -362.086
L107.381 -358.142
L108.827 -354.198
L109.667 -352.285
L110.476 -350.254
L112.362 -346.31
L113.611 -344.084
L114.529 -342.366
L116.978 -338.422
L117.555 -337.58
L119.673 -334.478
L121.499 -332.061
L122.68 -330.534
L125.443 -327.186
L125.956 -326.59
L129.387 -322.724
L129.46 -322.646
L133.143 -318.702
L133.331 -318.5
L136.961 -314.757
L137.275 -314.429
L140.854 -310.813
L141.219 -310.436
L144.762 -306.869
L145.163 -306.454
L148.633 -302.925
L149.107 -302.429
L152.427 -298.981
L153.051 -298.313
L156.113 -295.037
L156.995 -294.067
L159.675 -291.093
L160.939 -289.653
L163.101 -287.149
L164.883 -285.038
L166.392 -283.205
L168.827 -280.187
L169.55 -279.261
L172.574 -275.317
L172.771 -275.055
L175.425 -271.373
L176.716 -269.568
L178.164 -267.429
L180.66 -263.72
L180.808 -263.485
L183.268 -259.541
L184.604 -257.397
L185.641 -255.597
L187.903 -251.653
L188.548 -250.529
L190.018 -247.709
L192.067 -243.764
L192.492 -242.948
L193.942 -239.82
L195.753 -235.876
L196.436 -234.38
L197.413 -231.932
L198.954 -227.988
L200.38 -224.223
L200.438 -224.044
L201.68 -220.1
L202.842 -216.156
L203.912 -212.212
L204.324 -210.572
L204.792 -208.268
L205.496 -204.324
L206.078 -200.38
L206.546 -196.436
L206.933 -192.492
L207.317 -188.548
L207.858 -184.604
L208.268 -182.86
L208.625 -180.66
L209.845 -176.716
L211.96 -172.771
L212.212 -172.329
L214.669 -168.827
L216.156 -166.749
L217.925 -164.883
L220.1 -162.132
L221.246 -160.939
L224.044 -157.311
L224.302 -156.995
L227.029 -153.051
L227.988 -151.634
L229.566 -149.107
L231.932 -145.743
L232.258 -145.163
L235.051 -141.219
L233.038 -137.275
L231.932 -136.075
L229.609 -133.331
L229.868 -129.387
L230.056 -125.443
L231.932 -124.219
L234.848 -121.499
L235.876 -120.343
L239.015 -117.555
L239.82 -116.149
L242.95 -113.611
L243.764 -112.233
L247.123 -113.611
L245.654 -117.555
L245.29 -121.499
L247.709 -121.874
L251.653 -121.919
L254.357 -125.443
L255.4 -129.387
L255.597 -131.154
L257.306 -129.387
L258.306 -125.443
L258.389 -121.499
L258.656 -117.555
L259.165 -113.611
L259.541 -111.21
L260.238 -113.611
L263.14 -117.555
L263.485 -117.738
L267.429 -119.374
L268.271 -117.555
L271.373 -113.897
L275.317 -114.154
L277.775 -113.611
L275.317 -110.752
L273.969 -109.667
L271.373 -106.395
L267.429 -106.743
L265.838 -105.723
L267.429 -102.326
L271.373 -102.941
L275.317 -101.87
L275.355 -101.778
L275.763 -97.8344
L275.317 -94.2006
L275.012 -93.8903
L275.317 -93.7583
L279.261 -90.5708
L281.177 -89.9463
L279.261 -87.2772
L275.317 -87.0103
L272.096 -89.9463
L271.373 -91.3345
L267.429 -90.8876
L263.616 -89.9463
L267.353 -86.0022
L267.429 -85.9316
L268.756 -82.0582
L267.429 -81.8633
L263.485 -81.2518
L261.264 -78.1141
L259.541 -75.5035
L256.467 -78.1141
L256.696 -82.0582
L257.096 -86.0022
L255.597 -88.202
L252.654 -89.9463
L255.597 -92.7607
L259.541 -91.9536
L263.485 -90.0593
L264.541 -93.8903
L263.485 -96.1829
L260.207 -97.8344
L263.485 -100.494
L266.139 -101.778
L263.485 -102.501
L259.541 -105.062
L258.876 -105.723
L259.053 -109.667
L255.597 -110.945
L252.466 -109.667
L251.653 -108.674
L250.396 -109.667
L247.709 -112.718
L246.753 -109.667
L247.709 -106.495
L248.296 -105.723
L247.709 -105.289
L243.764 -104.168
L239.82 -103.877
L235.876 -104.682
L234.583 -105.723
L231.932 -106.737
L230.601 -109.667
L231.932 -110.374
L235.07 -113.611
L233.307 -117.555
L231.932 -118.789
L227.988 -120.771
L224.044 -120.994
L220.1 -120.327
L218.814 -121.499
L218.514 -125.443
L216.156 -127.613
L212.212 -127.487
L208.268 -127.366
L206.224 -129.387
L204.324 -131.201
L200.38 -131.11
L196.436 -131.033
L192.492 -130.967
L188.548 -130.911
L184.604 -130.864
L180.66 -130.824
L176.716 -130.79
L172.771 -130.762
L168.827 -130.738
L164.883 -130.718
L160.939 -130.7
L156.995 -130.685
L153.051 -130.672
L149.107 -130.661
L145.163 -130.651
L141.219 -130.641
L137.275 -130.633
L133.331 -130.624
L129.387 -130.617
L125.443 -130.609
L121.499 -130.602
L117.555 -130.595
L113.611 -130.588
L109.667 -130.581
L105.723 -130.574
L101.778 -130.567
L97.8344 -130.56
L93.8903 -130.554
L89.9463 -130.547
L86.0022 -130.541
L82.0582 -130.534
L78.1141 -130.528
L74.1701 -130.522
L70.226 -130.516
L66.282 -130.51
L62.3379 -130.504
L58.3938 -130.498
L54.4498 -130.493
L50.5057 -130.488
L46.5617 -130.483
L42.6176 -130.478
L38.6736 -130.473
L34.7295 -130.469
L30.7855 -130.464
L26.8414 -130.46
L22.8973 -130.456
L18.9533 -130.453
L15.0092 -130.449
L15.0092 -129.387
L15.0092 -125.443
L15.0092 -121.499
L15.0092 -117.555
L15.0092 -113.611
L15.0092 -109.667
L15.0092 -105.723
L15.0092 -101.778
L15.0092 -97.8344
L15.0092 -93.8903
L15.0092 -89.9463
L15.0092 -86.0022
L15.0092 -82.0582
L15.0092 -78.1141
L15.0092 -74.1701
L15.0092 -70.226
L15.0092 -66.282
L15.0092 -62.3379
L15.0092 -58.3938
L15.0092 -54.4498
L15.0092 -50.5057
L15.0092 -46.5617
L15.0092 -42.6176
L15.0092 -38.6736
L15.0092 -34.7295
L15.0092 -30.7855
L15.0092 -26.8414
L15.0092 -22.8973
L15.0092 -18.9533
L15.0092 -15.0092
M231.932 -87.9476
L231.592 -89.9463
L231.626 -93.8903
L227.988 -96.6539
L224.044 -95.1747
L222.271 -93.8903
L220.1 -92.0389
L218.053 -93.8903
L220.1 -96.0372
L221.406 -97.8344
L224.044 -100.636
L227.988 -100.901
L231.932 -100.73
L235.876 -100.793
L239.82 -100.573
L243.764 -98.9883
L244.743 -97.8344
L243.764 -95.7639
L242.698 -93.8903
L239.82 -90.8816
L238.655 -89.9463
L235.876 -88.7063
L231.932 -87.9476
M239.82 -76.8511
L237.23 -78.1141
L237.036 -82.0582
L239.82 -85.259
L241.122 -86.0022
L243.764 -88.9024
L245.873 -89.9463
L247.709 -91.5043
L250.6 -89.9463
L251.65 -86.0022
L251.596 -82.0582
L250.63 -78.1141
L247.709 -76.8996
L245.808 -78.1141
L243.764 -79.8666
L242.731 -78.1141
L239.82 -76.8511
M291.093 -89.7926
L289.991 -89.9463
L291.093 -91.7115
L295.037 -90.7032
L295.769 -89.9463
L295.037 -89.6485
L291.093 -89.7926
M291.093 -106.51
L289.456 -109.667
L291.093 -111.961
L294.077 -109.667
L291.093 -106.51
M298.981 -155.879
L297.125 -156.995
L295.037 -158.722
L293.294 -160.939
L291.569 -164.883
L292.951 -168.827
L295.037 -169.251
L296.946 -168.827
L298.981 -167.681
L300.03 -168.827
L302.925 -169.865
L306.869 -170.016
L308.742 -168.827
L310.813 -165.277
L311.299 -164.883
L311.103 -160.939
L310.813 -160.204
L308.145 -156.995
L306.869 -155.982
L302.925 -155.061
L298.981 -155.879
M318.702 -113.417
L318.411 -113.611
L315.794 -117.555
L315.496 -121.499
L316.698 -125.443
L318.702 -128.451
L319.762 -129.387
L322.646 -131.625
L326.59 -133.275
L326.816 -133.331
L330.534 -134.129
L333.979 -133.331
L334.478 -133.285
L335.872 -129.387
L335.484 -125.443
L334.478 -124.788
L330.534 -123.95
L329.337 -121.499
L328.483 -117.555
L326.609 -113.611
L326.59 -113.551
L322.646 -112.039
L318.702 -113.417
M330.534 -167.853
L329.888 -168.827
L330.534 -169.209
L331.287 -168.827
L330.534 -167.853
M334.478 -107.91
L333.031 -109.667
L334.478 -112.774
L338.367 -109.667
L334.478 -107.91
M346.31 -76.3402
L344.254 -78.1141
L342.366 -80.5641
L341.871 -82.0582
L342.164 -86.0022
L342.366 -86.0851
L344.623 -89.9463
L346.31 -92.0391
L350.254 -92.9934
L354.198 -91.1464
L355.827 -89.9463
L357.337 -86.0022
L356.961 -82.0582
L354.437 -78.1141
L354.198 -77.8541
L350.254 -75.8827
L346.31 -76.3402
M342.366 -151.836
L341.23 -153.051
L340.324 -156.995
L342.366 -157.682
L346.31 -158.828
L348.569 -156.995
L347.052 -153.051
L346.31 -152.196
L342.366 -151.836
M247.709 -176.518
L247.069 -176.716
L243.851 -180.66
L246 -184.604
L247.709 -185.548
L251.653 -185.074
L252.124 -184.604
L253.82 -180.66
L251.653 -178.108
L248.075 -176.716
L247.709 -176.518
M259.541 -132.167
L258.329 -133.331
L259.541 -134.687
L260.445 -133.331
L259.541 -132.167
M271.373 -150.13
L271.038 -153.051
L270.231 -156.995
L271.373 -159.336
L275.184 -156.995
L275.317 -154.329
L275.39 -153.051
L275.317 -152.963
L271.373 -150.13
M279.261 -184.041
L278.576 -184.604
L276.262 -188.548
L275.317 -192.188
L275.181 -192.492
L275.317 -193.03
L276.288 -196.436
L277.747 -200.38
L279.261 -204.221
L279.351 -204.324
L283.205 -206.959
L286.343 -208.268
L287.149 -208.699
L291.093 -210.418
L295.037 -212.102
L295.284 -212.212
L298.981 -214.078
L302.925 -216.147
L302.942 -216.156
L306.869 -218.306
L310.813 -218.244
L314.757 -217.454
L318.702 -216.427
L319.48 -216.156
L322.646 -215.205
L326.59 -213.559
L328.956 -212.212
L330.534 -211.37
L334.478 -208.44
L334.668 -208.268
L337.061 -204.324
L337.324 -200.38
L337.261 -196.436
L336.819 -192.492
L335.843 -188.548
L334.478 -187.233
L331.283 -184.604
L330.534 -184.154
L326.59 -181.992
L322.646 -181.06
L318.702 -181.378
L314.757 -182.243
L310.813 -183.225
L307.366 -184.604
L306.869 -184.945
L302.925 -185.653
L300.442 -184.604
L298.981 -184.128
L295.037 -183.227
L291.093 -181.22
L287.149 -180.895
L283.205 -181.457
L279.261 -184.041" id="Ca_0_9aad7e73e0"/>
    </defs>
    <g clip-path="url(#p85c0e9ffdb)">
     <use style="fill:#d6dad6;" x="0" xlink:href="#Ca_0_9aad7e73e0" y="420.48"/>
    </g>
   </g>
   <g id="PathCollection_12">
    <defs>
     <path d="
M334.478 -107.91
L338.367 -109.667
L334.478 -112.774
L333.031 -109.667
L334.478 -107.91" id="Cb_0_db48623966"/>
     <path d="
M279.261 -184.041
L283.205 -181.457
L287.149 -180.895
L291.093 -181.22
L295.037 -183.227
L298.981 -184.128
L300.442 -184.604
L302.925 -185.653
L306.869 -184.945
L307.366 -184.604
L310.813 -183.225
L314.757 -182.243
L318.702 -181.378
L322.646 -181.06
L326.59 -181.992
L330.534 -184.154
L331.283 -184.604
L334.478 -187.233
L335.843 -188.548
L336.819 -192.492
L337.261 -196.436
L337.324 -200.38
L337.061 -204.324
L334.668 -208.268
L334.478 -208.44
L330.534 -211.37
L328.956 -212.212
L326.59 -213.559
L322.646 -215.205
L319.48 -216.156
L318.702 -216.427
L314.757 -217.454
L310.813 -218.244
L306.869 -218.306
L302.942 -216.156
L302.925 -216.147
L298.981 -214.078
L295.284 -212.212
L295.037 -212.102
L291.093 -210.418
L287.149 -208.699
L286.343 -208.268
L283.205 -206.959
L279.351 -204.324
L279.261 -204.221
L277.747 -200.38
L276.288 -196.436
L275.317 -193.03
L275.181 -192.492
L275.317 -192.188
L276.262 -188.548
L278.576 -184.604
L279.261 -184.041" id="Cb_1_ace1505c4a"/>
    </defs>
    <g clip-path="url(#p85c0e9ffdb)">
     <use style="fill:#e9d8c5;" x="0" xlink:href="#Cb_0_db48623966" y="420.48"/>
    </g>
    <g clip-path="url(#p85c0e9ffdb)">
     <use style="fill:#e9d8c5;" x="0" xlink:href="#Cb_1_ace1505c4a" y="420.48"/>
    </g>
   </g>
   <g id="LineCollection_1">
    <defs>
     <path d="
M287.149 -122.892
L286.241 -125.443
L287.149 -126.508
L288.263 -125.443
L287.149 -122.892" id="Cc_0_47e90f707c"/>
     <path d="
M275.317 -132.772
L274.951 -133.331
L275.317 -134.688
L278.045 -133.331
L275.317 -132.772" id="Cc_1_20220565f0"/>
    </defs>
    <g clip-path="url(#p85c0e9ffdb)">
     <use style="fill:none;stroke:#fbb4ae;stroke-linecap:butt;" x="0" xlink:href="#Cc_0_47e90f707c" y="420.48"/>
    </g>
    <g clip-path="url(#p85c0e9ffdb)">
     <use style="fill:none;stroke:#fbb4ae;stroke-linecap:butt;" x="0" xlink:href="#Cc_1_20220565f0" y="420.48"/>
    </g>
   </g>
   <g id="LineCollection_2">
    <defs>
     <path d="
M243.764 -68.6956
L242.678 -70.226
L243.764 -71.6961
L244.898 -70.226
L243.764 -68.6956" id="Cd_0_41d5e7e00e"/>
     <path d="
M267.429 -68.546
L266.883 -70.226
L266.648 -74.1701
L267.429 -75.2298
L271.051 -74.1701
L271.373 -72.7787
L272.146 -70.226
L271.373 -69.4777
L267.429 -68.546" id="Cd_1_9dc7671b04"/>
     <path d="
M291.093 -84.3717
L289 -86.0022
L287.149 -86.4822
L286.073 -89.9463
L283.205 -92.96
L282.079 -93.8903
L283.205 -97.3626
L283.854 -97.8344
L286.97 -101.778
L287.149 -102.421
L288.598 -105.723
L287.945 -109.667
L287.149 -110.762
L286.53 -113.611
L283.758 -117.555
L283.205 -117.995
L279.261 -119.97
L275.317 -121.293
L274.93 -121.499
L271.373 -124.464
L270.529 -125.443
L268.361 -129.387
L267.467 -133.331
L267.429 -133.826
L267.328 -137.275
L266.459 -141.219
L265.494 -145.163
L265.2 -149.107
L265.748 -153.051
L267.091 -156.995
L267.429 -157.741
L269.364 -160.939
L271.373 -163.685
L272.58 -164.883
L275.317 -167.502
L277.241 -168.827
L279.261 -170.251
L283.205 -172.257
L284.658 -172.771
L287.149 -173.716
L291.093 -174.691
L295.037 -175.223
L298.981 -175.353
L302.925 -175.093
L306.869 -174.443
L310.813 -173.387
L312.516 -172.771
L314.757 -171.906
L318.702 -169.953
L320.578 -168.827
L322.646 -167.453
L325.937 -164.883
L326.59 -164.303
L329.969 -160.939
L330.534 -160.279
L333.14 -156.995
L334.478 -154.948
L335.663 -153.051
L337.655 -149.107
L338.422 -147.157
L339.199 -145.163
L340.347 -141.219
L341.114 -137.275
L341.527 -133.331
L341.599 -129.387
L341.333 -125.443
L340.72 -121.499
L339.738 -117.555
L338.422 -113.797
L338.356 -113.611
L336.574 -109.667
L334.478 -106.045
L334.283 -105.723
L331.427 -101.778
L330.534 -100.734
L327.843 -97.8344
L326.59 -96.6597
L323.291 -93.8903
L322.646 -93.4073
L318.702 -90.7781
L317.268 -89.9463
L314.757 -88.6273
L310.813 -86.8666
L308.544 -86.0022
L306.869 -85.4468
L302.925 -84.3965
L298.981 -83.7563
L295.037 -83.6747
L291.093 -84.3717" id="Cd_2_cfaf0bf0ef"/>
     <path d="
M224.044 -86.7084
L223.033 -89.9463
L224.044 -91.1078
L226.014 -89.9463
L224.044 -86.7084" id="Cd_3_e57efcbf96"/>
     <path d="
M224.044 -111.786
L222.602 -113.611
L224.044 -115.051
L227.259 -113.611
L224.044 -111.786" id="Cd_4_6596e80898"/>
     <path d="
M243.764 -128.644
L242.774 -129.387
L241.718 -133.331
L243.764 -135.903
L247.709 -136.437
L249.796 -133.331
L247.994 -129.387
L247.709 -129.175
L243.764 -128.644" id="Cd_5_6280d731fa"/>
    </defs>
    <g clip-path="url(#p85c0e9ffdb)">
     <use style="fill:none;stroke:#c7c6d4;stroke-linecap:butt;" x="0" xlink:href="#Cd_0_41d5e7e00e" y="420.48"/>
    </g>
    <g clip-path="url(#p85c0e9ffdb)">
     <use style="fill:none;stroke:#c7c6d4;stroke-linecap:butt;" x="0" xlink:href="#Cd_1_9dc7671b04" y="420.48"/>
    </g>
    <g clip-path="url(#p85c0e9ffdb)">
     <use style="fill:none;stroke:#c7c6d4;stroke-linecap:butt;" x="0" xlink:href="#Cd_2_cfaf0bf0ef" y="420.48"/>
    </g>
    <g clip-path="url(#p85c0e9ffdb)">
     <use style="fill:none;stroke:#c7c6d4;stroke-linecap:butt;" x="0" xlink:href="#Cd_3_e57efcbf96" y="420.48"/>
    </g>
    <g clip-path="url(#p85c0e9ffdb)">
     <use style="fill:none;stroke:#c7c6d4;stroke-linecap:butt;" x="0" xlink:href="#Cd_4_6596e80898" y="420.48"/>
    </g>
    <g clip-path="url(#p85c0e9ffdb)">
     <use style="fill:none;stroke:#c7c6d4;stroke-linecap:butt;" x="0" xlink:href="#Cd_5_6280d731fa" y="420.48"/>
    </g>
   </g>
   <g id="LineCollection_3">
    <defs>
     <path d="
M247.709 -92.8372
L251.653 -91.5539
L255.597 -91.7516
L258.271 -93.8903
L259.541 -95.4508
L260.927 -97.8344
L260.942 -101.778
L259.541 -104.316
L258.474 -105.723
L255.597 -108.032
L251.653 -108.227
L247.709 -106.909
L246.492 -105.723
L244.461 -101.778
L244.524 -97.8344
L246.606 -93.8903
L247.709 -92.8372" id="Ce_0_31a38c16d6"/>
    </defs>
    <g clip-path="url(#p85c0e9ffdb)">
     <use style="fill:none;stroke:#f2f2f2;stroke-linecap:butt;" x="0" xlink:href="#Ce_0_31a38c16d6" y="420.48"/>
    </g>
   </g>
   <g id="LineCollection_4">
    <defs>
     <path d="
M283.205 -185.814
L281.347 -188.548
L283.001 -192.492
L283.205 -192.743
L287.149 -193.519
L288.672 -192.492
L290.284 -188.548
L287.149 -185.15
L283.205 -185.814" id="Cf_0_d894453223"/>
     <path d="
M318.702 -186.414
L315.666 -188.548
L314.757 -191.901
L314.536 -192.492
L314.757 -193.123
L316.757 -196.436
L318.702 -197.694
L322.646 -197.696
L324.418 -196.436
L326.59 -193.69
L327.041 -192.492
L326.59 -190.318
L326.233 -188.548
L322.646 -186.043
L318.702 -186.414" id="Cf_1_b6f797aaa8"/>
    </defs>
    <g clip-path="url(#p85c0e9ffdb)">
     <use style="fill:none;stroke:#fbb4ae;stroke-linecap:butt;" x="0" xlink:href="#Cf_0_d894453223" y="420.48"/>
    </g>
    <g clip-path="url(#p85c0e9ffdb)">
     <use style="fill:none;stroke:#fbb4ae;stroke-linecap:butt;" x="0" xlink:href="#Cf_1_b6f797aaa8" y="420.48"/>
    </g>
   </g>
   <g id="LineCollection_5">
    <defs>
     <path d="
M405.471 -60.8693
L401.527 -61.3103
L397.583 -61.8454
L394.555 -62.3379
L393.639 -62.4775
L389.695 -63.1989
L385.75 -64.0302
L381.806 -64.9848
L377.862 -66.0828
L377.266 -66.282
L373.918 -67.2914
L369.974 -68.6668
L366.149 -70.226
L366.03 -70.2687
L362.086 -72.004
L358.142 -74.0878
L358.02 -74.1701
L354.198 -76.365
L351.853 -78.1141
L350.254 -79.0976
L346.757 -82.0582
L346.31 -82.3601
L342.679 -86.0022
L342.366 -86.2439
L339.454 -89.9463
L338.422 -90.9453
L336.803 -93.8903
L334.478 -97.5443
L334.394 -97.8344
L333.079 -101.778
L331.936 -105.723
L330.534 -107.714
L329.533 -109.667
L328.454 -113.611
L328.974 -117.555
L330.534 -121.383
L330.629 -121.499
L333.712 -125.443
L334.478 -126.597
L337.348 -129.387
L338.422 -130.911
L340.745 -133.331
L342.366 -136.192
L343.143 -137.275
L344.62 -141.219
L345.029 -145.163
L344.573 -149.107
L343.214 -153.051
L342.366 -154.431
L341.145 -156.995
L338.422 -160.427
L338.11 -160.939
L334.478 -164.644
L334.304 -164.883
L330.534 -167.972
L329.729 -168.827
L326.59 -170.736
L322.646 -172.396
L318.702 -172.523
L314.757 -171.789
L310.813 -170.821
L306.869 -169.994
L302.925 -169.424
L298.981 -169.154
L295.037 -169.218
L291.093 -169.659
L287.149 -170.522
L283.205 -171.845
L281.33 -172.771
L279.261 -173.849
L275.317 -176.096
L273.314 -176.716
L271.373 -177.704
L267.429 -178.405
L263.485 -178.562
L259.541 -178.715
L255.597 -179.095
L251.653 -179.769
L247.828 -180.66
L247.709 -180.696
L243.764 -181.929
L239.82 -183.284
L236.179 -184.604
L235.876 -184.739
L231.932 -186.421
L227.988 -188.142
L227.028 -188.548
L224.044 -190.056
L220.1 -192.043
L219.181 -192.492
L216.156 -194.227
L212.286 -196.436
L212.212 -196.485
L208.268 -198.99
L206.049 -200.38
L204.324 -201.622
L200.482 -204.324
L200.38 -204.406
L196.436 -207.451
L195.349 -208.268
L192.492 -210.698
L190.657 -212.212
L188.548 -214.171
L186.337 -216.156
L184.604 -217.9
L182.337 -220.1
L180.66 -221.916
L178.62 -224.044
L176.716 -226.253
L175.161 -227.988
L172.771 -230.943
L171.94 -231.932
L168.936 -235.876
L168.827 -236.033
L166.098 -239.82
L164.883 -241.673
L163.456 -243.764
L161.003 -247.709
L160.939 -247.82
L158.673 -251.653
L156.995 -254.753
L156.52 -255.597
L154.49 -259.541
L153.051 -262.591
L152.613 -263.485
L150.845 -267.429
L149.223 -271.373
L149.107 -271.683
L147.694 -275.317
L146.292 -279.261
L145.163 -282.741
L145.007 -283.205
L143.81 -287.149
L142.725 -291.093
L141.747 -295.037
L141.219 -297.425
L140.862 -298.981
L140.066 -302.925
L139.368 -306.869
L138.763 -310.813
L138.251 -314.757
L137.827 -318.702
L137.491 -322.646
L137.275 -326.059
L137.24 -326.59
L137.072 -330.534
L136.99 -334.478
L136.992 -338.422
L137.078 -342.366
L137.248 -346.31
L137.275 -346.742
L137.498 -350.254
L137.83 -354.198
L138.246 -358.142
L138.744 -362.086
L139.325 -366.03
L139.99 -369.974
L140.739 -373.918
L141.219 -376.209
L141.571 -377.862
L142.484 -381.806
L143.484 -385.75
L144.572 -389.695
L145.163 -391.7
L145.745 -393.639
L147.004 -397.583
L148.355 -401.527
L149.107 -403.607
L149.795 -405.471" id="C10_0_24795c733a"/>
     <path d="
M271.373 -69.4993
L271.11 -70.226
L271.373 -70.7124
L272.222 -70.226
L271.373 -69.4993" id="C10_1_933cde83e8"/>
     <path d="
M243.764 -73.0254
L240.351 -74.1701
L242.245 -78.1141
L243.764 -78.6555
L244.657 -78.1141
L247.221 -74.1701
L243.764 -73.0254" id="C10_2_f34c3d7bf1"/>
     <path d="
M263.485 -73.9943
L263.282 -74.1701
L262.422 -78.1141
L263.485 -79.3866
L267.429 -80.3946
L270.627 -78.1141
L267.429 -77.7991
L263.551 -74.1701
L263.485 -73.9943" id="C10_3_f6e9efa0b3"/>
     <path d="
M291.093 -82.5986
L289.42 -86.0022
L291.093 -87.4067
L294.919 -86.0022
L291.093 -82.5986" id="C10_4_d03d67564b"/>
     <path d="
M227.988 -87.5646
L227.708 -89.9463
L224.95 -93.8903
L227.988 -95.6241
L230.106 -93.8903
L230.768 -89.9463
L227.988 -87.5646" id="C10_5_baf188cd2d"/>
     <path d="
M279.261 -91.4773
L275.74 -93.8903
L276.274 -97.8344
L279.261 -100.726
L283.205 -100.623
L283.436 -97.8344
L283.205 -97.5515
L280.075 -93.8903
L279.261 -91.4773" id="C10_6_6a97f3e6ec"/>
     <path d="
M227.988 -111.697
L227.868 -113.611
L227.545 -117.555
L227.988 -119.004
L231.932 -118.939
L233.392 -117.555
L233.883 -113.611
L231.932 -111.275
L227.988 -111.697" id="C10_7_87be92cbbb"/>
     <path d="
M271.373 -114.68
L268.582 -117.555
L268.398 -121.499
L271.373 -122.232
L274.98 -121.499
L275.317 -121.326
L277.175 -117.555
L275.317 -114.292
L271.373 -114.68" id="C10_8_8f896b6db7"/>
     <path d="
M247.709 -123.544
L245.729 -125.443
L247.709 -125.999
L250.271 -129.387
L251.653 -131.802
L255.326 -129.387
L254.37 -125.443
L251.653 -123.24
L247.709 -123.544" id="C10_9_4ce54bd14a"/>
     <path d="
M267.429 -140.597
L266.824 -141.219
L267.429 -141.799
L267.779 -141.219
L267.429 -140.597" id="C10_a_df8c8337f8"/>
     <path d="
M263.485 -152.76
L263.183 -153.051
L263.485 -154.442
L267.429 -156.421
L269.27 -153.051
L267.429 -150.922
L263.485 -152.76" id="C10_b_72d63d07d7"/>
    </defs>
    <g clip-path="url(#p85c0e9ffdb)">
     <use style="fill:none;stroke:#c7c6d4;stroke-linecap:butt;" x="0" xlink:href="#C10_0_24795c733a" y="420.48"/>
    </g>
    <g clip-path="url(#p85c0e9ffdb)">
     <use style="fill:none;stroke:#c7c6d4;stroke-linecap:butt;" x="0" xlink:href="#C10_1_933cde83e8" y="420.48"/>
    </g>
    <g clip-path="url(#p85c0e9ffdb)">
     <use style="fill:none;stroke:#c7c6d4;stroke-linecap:butt;" x="0" xlink:href="#C10_2_f34c3d7bf1" y="420.48"/>
    </g>
    <g clip-path="url(#p85c0e9ffdb)">
     <use style="fill:none;stroke:#c7c6d4;stroke-linecap:butt;" x="0" xlink:href="#C10_3_f6e9efa0b3" y="420.48"/>
    </g>
    <g clip-path="url(#p85c0e9ffdb)">
     <use style="fill:none;stroke:#c7c6d4;stroke-linecap:butt;" x="0" xlink:href="#C10_4_d03d67564b" y="420.48"/>
    </g>
    <g clip-path="url(#p85c0e9ffdb)">
     <use style="fill:none;stroke:#c7c6d4;stroke-linecap:butt;" x="0" xlink:href="#C10_5_baf188cd2d" y="420.48"/>
    </g>
    <g clip-path="url(#p85c0e9ffdb)">
     <use style="fill:none;stroke:#c7c6d4;stroke-linecap:butt;" x="0" xlink:href="#C10_6_6a97f3e6ec" y="420.48"/>
    </g>
    <g clip-path="url(#p85c0e9ffdb)">
     <use style="fill:none;stroke:#c7c6d4;stroke-linecap:butt;" x="0" xlink:href="#C10_7_87be92cbbb" y="420.48"/>
    </g>
    <g clip-path="url(#p85c0e9ffdb)">
     <use style="fill:none;stroke:#c7c6d4;stroke-linecap:butt;" x="0" xlink:href="#C10_8_8f896b6db7" y="420.48"/>
    </g>
    <g clip-path="url(#p85c0e9ffdb)">
     <use style="fill:none;stroke:#c7c6d4;stroke-linecap:butt;" x="0" xlink:href="#C10_9_4ce54bd14a" y="420.48"/>
    </g>
    <g clip-path="url(#p85c0e9ffdb)">
     <use style="fill:none;stroke:#c7c6d4;stroke-linecap:butt;" x="0" xlink:href="#C10_a_df8c8337f8" y="420.48"/>
    </g>
    <g clip-path="url(#p85c0e9ffdb)">
     <use style="fill:none;stroke:#c7c6d4;stroke-linecap:butt;" x="0" xlink:href="#C10_b_72d63d07d7" y="420.48"/>
    </g>
   </g>
   <g id="LineCollection_6">
    <defs>
     <path d="
M287.149 -119.314
L291.093 -120.271
L292.736 -121.499
L294.369 -125.443
L293.142 -129.387
L291.239 -133.331
L291.093 -133.489
L287.149 -135.846
L285.604 -137.275
L283.205 -139.05
L279.261 -140.277
L275.317 -139.799
L273.338 -137.275
L272.418 -133.331
L275.317 -129.653
L276.349 -129.387
L279.261 -127.67
L281.252 -125.443
L283.205 -122.998
L284.008 -121.499
L287.149 -119.314" id="C11_0_abf9ce1414"/>
    </defs>
    <g clip-path="url(#p85c0e9ffdb)">
     <use style="fill:none;stroke:#f2f2f2;stroke-linecap:butt;" x="0" xlink:href="#C11_0_abf9ce1414" y="420.48"/>
    </g>
   </g>
   <g id="LineCollection_7">
    <defs>
     <path d="
M231.932 -121.397
L231.753 -121.499
L231.932 -121.601
L232.041 -121.499
L231.932 -121.397" id="C12_0_98dd80309a"/>
     <path d="
M164.883 -164.314
L163.822 -164.883
L160.939 -167.283
L159.629 -168.827
L158.097 -172.771
L158.11 -176.716
L159.642 -180.66
L160.939 -182.129
L163.6 -184.604
L164.883 -185.295
L168.827 -186.508
L172.771 -186.451
L176.716 -185
L177.214 -184.604
L180.66 -181.113
L180.937 -180.66
L182.19 -176.716
L182.025 -172.771
L180.66 -169.177
L180.434 -168.827
L176.716 -165.134
L176.077 -164.883
L172.771 -163.483
L168.827 -163.251
L164.883 -164.314" id="C12_1_f1cf9a5fb5"/>
     <path d="
M15.0092 -192.104
L18.9533 -192.009
L22.8973 -192.247
L24.5532 -192.492
L26.8414 -192.823
L30.7855 -193.751
L34.7295 -195.076
L37.7721 -196.436
L38.6736 -196.845
L42.6176 -199.114
L44.3881 -200.38
L46.5617 -202.018
L49.0695 -204.324
L50.5057 -205.76
L52.6146 -208.268
L54.4498 -210.745
L55.3842 -212.212
L57.5402 -216.156
L58.3938 -218.053
L59.2061 -220.1
L60.4447 -224.044
L61.3236 -227.988
L61.8652 -231.932
L62.0863 -235.876
L61.9974 -239.82
L61.6024 -243.764
L60.8977 -247.709
L59.874 -251.653
L58.5188 -255.597
L58.3938 -255.883
L56.7552 -259.541
L54.5952 -263.485
L54.4498 -263.709
L51.8823 -267.429
L50.5057 -269.147
L48.5478 -271.373
L46.5617 -273.367
L44.3603 -275.317
L42.6176 -276.72
L38.9263 -279.261
L38.6736 -279.424
L34.7295 -281.545
L30.8573 -283.205
L30.7855 -283.235
L26.8414 -284.48
L22.8973 -285.354
L18.9533 -285.868
L15.0092 -286.031" id="C12_2_9d7668439d"/>
    </defs>
    <g clip-path="url(#p85c0e9ffdb)">
     <use style="fill:none;stroke:#fbb4ae;stroke-linecap:butt;" x="0" xlink:href="#C12_0_98dd80309a" y="420.48"/>
    </g>
    <g clip-path="url(#p85c0e9ffdb)">
     <use style="fill:none;stroke:#fbb4ae;stroke-linecap:butt;" x="0" xlink:href="#C12_1_f1cf9a5fb5" y="420.48"/>
    </g>
    <g clip-path="url(#p85c0e9ffdb)">
     <use style="fill:none;stroke:#fbb4ae;stroke-linecap:butt;" x="0" xlink:href="#C12_2_9d7668439d" y="420.48"/>
    </g>
   </g>
   <g id="LineCollection_8">
    <defs>
     <path d="
M239.82 -76.8511
L237.23 -78.1141
L237.036 -82.0582
L239.82 -85.259
L241.122 -86.0022
L243.764 -88.9024
L245.873 -89.9463
L247.709 -91.5043
L250.6 -89.9463
L251.65 -86.0022
L251.596 -82.0582
L250.63 -78.1141
L247.709 -76.8996
L245.808 -78.1141
L243.764 -79.8666
L242.731 -78.1141
L239.82 -76.8511" id="C13_0_61d1fcacaa"/>
     <path d="
M346.31 -76.3402
L344.254 -78.1141
L342.366 -80.5641
L341.871 -82.0582
L342.164 -86.0022
L342.366 -86.0851
L344.623 -89.9463
L346.31 -92.0391
L350.254 -92.9934
L354.198 -91.1464
L355.827 -89.9463
L357.337 -86.0022
L356.961 -82.0582
L354.437 -78.1141
L354.198 -77.8541
L350.254 -75.8827
L346.31 -76.3402" id="C13_1_e58655b58c"/>
     <path d="
M231.932 -87.9476
L231.592 -89.9463
L231.626 -93.8903
L227.988 -96.6539
L224.044 -95.1747
L222.271 -93.8903
L220.1 -92.0389
L218.053 -93.8903
L220.1 -96.0372
L221.406 -97.8344
L224.044 -100.636
L227.988 -100.901
L231.932 -100.73
L235.876 -100.793
L239.82 -100.573
L243.764 -98.9883
L244.743 -97.8344
L243.764 -95.7639
L242.698 -93.8903
L239.82 -90.8816
L238.655 -89.9463
L235.876 -88.7063
L231.932 -87.9476" id="C13_2_f46d89ce98"/>
     <path d="
M291.093 -89.7926
L289.991 -89.9463
L291.093 -91.7115
L295.037 -90.7032
L295.769 -89.9463
L295.037 -89.6485
L291.093 -89.7926" id="C13_3_6ddea9c4e2"/>
     <path d="
M291.093 -106.51
L289.456 -109.667
L291.093 -111.961
L294.077 -109.667
L291.093 -106.51" id="C13_4_589e56dc9a"/>
     <path d="
M318.702 -113.417
L318.411 -113.611
L315.794 -117.555
L315.496 -121.499
L316.698 -125.443
L318.702 -128.451
L319.762 -129.387
L322.646 -131.625
L326.59 -133.275
L326.816 -133.331
L330.534 -134.129
L333.979 -133.331
L334.478 -133.285
L335.872 -129.387
L335.484 -125.443
L334.478 -124.788
L330.534 -123.95
L329.337 -121.499
L328.483 -117.555
L326.609 -113.611
L326.59 -113.551
L322.646 -112.039
L318.702 -113.417" id="C13_5_5933bff3f7"/>
     <path d="
M259.541 -132.167
L258.329 -133.331
L259.541 -134.687
L260.445 -133.331
L259.541 -132.167" id="C13_6_d09e1e68af"/>
     <path d="
M271.373 -150.13
L271.038 -153.051
L270.231 -156.995
L271.373 -159.336
L275.184 -156.995
L275.317 -154.329
L275.39 -153.051
L275.317 -152.963
L271.373 -150.13" id="C13_7_c70790492b"/>
     <path d="
M342.366 -151.836
L341.23 -153.051
L340.324 -156.995
L342.366 -157.682
L346.31 -158.828
L348.569 -156.995
L347.052 -153.051
L346.31 -152.196
L342.366 -151.836" id="C13_8_ed07e5161f"/>
     <path d="
M298.981 -155.879
L297.125 -156.995
L295.037 -158.722
L293.294 -160.939
L291.569 -164.883
L292.951 -168.827
L295.037 -169.251
L296.946 -168.827
L298.981 -167.681
L300.03 -168.827
L302.925 -169.865
L306.869 -170.016
L308.742 -168.827
L310.813 -165.277
L311.299 -164.883
L311.103 -160.939
L310.813 -160.204
L308.145 -156.995
L306.869 -155.982
L302.925 -155.061
L298.981 -155.879" id="C13_9_d85d7dbc35"/>
     <path d="
M330.534 -167.853
L329.888 -168.827
L330.534 -169.209
L331.287 -168.827
L330.534 -167.853" id="C13_a_c394b76637"/>
     <path d="
M247.709 -176.518
L247.069 -176.716
L243.851 -180.66
L246 -184.604
L247.709 -185.548
L251.653 -185.074
L252.124 -184.604
L253.82 -180.66
L251.653 -178.108
L248.075 -176.716
L247.709 -176.518" id="C13_b_cd0148c9ae"/>
     <path d="
M102.77 -405.471
L102.519 -401.527
L102.36 -397.583
L102.295 -393.639
L102.33 -389.695
L102.472 -385.75
L102.729 -381.806
L103.111 -377.862
L103.634 -373.918
L104.317 -369.974
L105.188 -366.03
L105.723 -364.098
L106.206 -362.086
L107.381 -358.142
L108.827 -354.198
L109.667 -352.285
L110.476 -350.254
L112.362 -346.31
L113.611 -344.084
L114.529 -342.366
L116.978 -338.422
L117.555 -337.58
L119.673 -334.478
L121.499 -332.061
L122.68 -330.534
L125.443 -327.186
L125.956 -326.59
L129.387 -322.724
L129.46 -322.646
L133.143 -318.702
L133.331 -318.5
L136.961 -314.757
L137.275 -314.429
L140.854 -310.813
L141.219 -310.436
L144.762 -306.869
L145.163 -306.454
L148.633 -302.925
L149.107 -302.429
L152.427 -298.981
L153.051 -298.313
L156.113 -295.037
L156.995 -294.067
L159.675 -291.093
L160.939 -289.653
L163.101 -287.149
L164.883 -285.038
L166.392 -283.205
L168.827 -280.187
L169.55 -279.261
L172.574 -275.317
L172.771 -275.055
L175.425 -271.373
L176.716 -269.568
L178.164 -267.429
L180.66 -263.72
L180.808 -263.485
L183.268 -259.541
L184.604 -257.397
L185.641 -255.597
L187.903 -251.653
L188.548 -250.529
L190.018 -247.709
L192.067 -243.764
L192.492 -242.948
L193.942 -239.82
L195.753 -235.876
L196.436 -234.38
L197.413 -231.932
L198.954 -227.988
L200.38 -224.223
L200.438 -224.044
L201.68 -220.1
L202.842 -216.156
L203.912 -212.212
L204.324 -210.572
L204.792 -208.268
L205.496 -204.324
L206.078 -200.38
L206.546 -196.436
L206.933 -192.492
L207.317 -188.548
L207.858 -184.604
L208.268 -182.86
L208.625 -180.66
L209.845 -176.716
L211.96 -172.771
L212.212 -172.329
L214.669 -168.827
L216.156 -166.749
L217.925 -164.883
L220.1 -162.132
L221.246 -160.939
L224.044 -157.311
L224.302 -156.995
L227.029 -153.051
L227.988 -151.634
L229.566 -149.107
L231.932 -145.743
L232.258 -145.163
L235.051 -141.219
L233.038 -137.275
L231.932 -136.075
L229.609 -133.331
L229.868 -129.387
L230.056 -125.443
L231.932 -124.219
L234.848 -121.499
L235.876 -120.343
L239.015 -117.555
L239.82 -116.149
L242.95 -113.611
L243.764 -112.233
L247.123 -113.611
L245.654 -117.555
L245.29 -121.499
L247.709 -121.874
L251.653 -121.919
L254.357 -125.443
L255.4 -129.387
L255.597 -131.154
L257.306 -129.387
L258.306 -125.443
L258.389 -121.499
L258.656 -117.555
L259.165 -113.611
L259.541 -111.21
L260.238 -113.611
L263.14 -117.555
L263.485 -117.738
L267.429 -119.374
L268.271 -117.555
L271.373 -113.897
L275.317 -114.154
L277.775 -113.611
L275.317 -110.752
L273.969 -109.667
L271.373 -106.395
L267.429 -106.743
L265.838 -105.723
L267.429 -102.326
L271.373 -102.941
L275.317 -101.87
L275.355 -101.778
L275.763 -97.8344
L275.317 -94.2006
L275.012 -93.8903
L275.317 -93.7583
L279.261 -90.5708
L281.177 -89.9463
L279.261 -87.2772
L275.317 -87.0103
L272.096 -89.9463
L271.373 -91.3345
L267.429 -90.8876
L263.616 -89.9463
L267.353 -86.0022
L267.429 -85.9316
L268.756 -82.0582
L267.429 -81.8633
L263.485 -81.2518
L261.264 -78.1141
L259.541 -75.5035
L256.467 -78.1141
L256.696 -82.0582
L257.096 -86.0022
L255.597 -88.202
L252.654 -89.9463
L255.597 -92.7607
L259.541 -91.9536
L263.485 -90.0593
L264.541 -93.8903
L263.485 -96.1829
L260.207 -97.8344
L263.485 -100.494
L266.139 -101.778
L263.485 -102.501
L259.541 -105.062
L258.876 -105.723
L259.053 -109.667
L255.597 -110.945
L252.466 -109.667
L251.653 -108.674
L250.396 -109.667
L247.709 -112.718
L246.753 -109.667
L247.709 -106.495
L248.296 -105.723
L247.709 -105.289
L243.764 -104.168
L239.82 -103.877
L235.876 -104.682
L234.583 -105.723
L231.932 -106.737
L230.601 -109.667
L231.932 -110.374
L235.07 -113.611
L233.307 -117.555
L231.932 -118.789
L227.988 -120.771
L224.044 -120.994
L220.1 -120.327
L218.814 -121.499
L218.514 -125.443
L216.156 -127.613
L212.212 -127.487
L208.268 -127.366
L206.224 -129.387
L204.324 -131.201
L200.38 -131.11
L196.436 -131.033
L192.492 -130.967
L188.548 -130.911
L184.604 -130.864
L180.66 -130.824
L176.716 -130.79
L172.771 -130.762
L168.827 -130.738
L164.883 -130.718
L160.939 -130.7
L156.995 -130.685
L153.051 -130.672
L149.107 -130.661
L145.163 -130.651
L141.219 -130.641
L137.275 -130.633
L133.331 -130.624
L129.387 -130.617
L125.443 -130.609
L121.499 -130.602
L117.555 -130.595
L113.611 -130.588
L109.667 -130.581
L105.723 -130.574
L101.778 -130.567
L97.8344 -130.56
L93.8903 -130.554
L89.9463 -130.547
L86.0022 -130.541
L82.0582 -130.534
L78.1141 -130.528
L74.1701 -130.522
L70.226 -130.516
L66.282 -130.51
L62.3379 -130.504
L58.3938 -130.498
L54.4498 -130.493
L50.5057 -130.488
L46.5617 -130.483
L42.6176 -130.478
L38.6736 -130.473
L34.7295 -130.469
L30.7855 -130.464
L26.8414 -130.46
L22.8973 -130.456
L18.9533 -130.453
L15.0092 -130.449" id="C13_c_a07be61221"/>
    </defs>
    <g clip-path="url(#p85c0e9ffdb)">
     <use style="fill:none;stroke:#c7c6d4;stroke-linecap:butt;" x="0" xlink:href="#C13_0_61d1fcacaa" y="420.48"/>
    </g>
    <g clip-path="url(#p85c0e9ffdb)">
     <use style="fill:none;stroke:#c7c6d4;stroke-linecap:butt;" x="0" xlink:href="#C13_1_e58655b58c" y="420.48"/>
    </g>
    <g clip-path="url(#p85c0e9ffdb)">
     <use style="fill:none;stroke:#c7c6d4;stroke-linecap:butt;" x="0" xlink:href="#C13_2_f46d89ce98" y="420.48"/>
    </g>
    <g clip-path="url(#p85c0e9ffdb)">
     <use style="fill:none;stroke:#c7c6d4;stroke-linecap:butt;" x="0" xlink:href="#C13_3_6ddea9c4e2" y="420.48"/>
    </g>
    <g clip-path="url(#p85c0e9ffdb)">
     <use style="fill:none;stroke:#c7c6d4;stroke-linecap:butt;" x="0" xlink:href="#C13_4_589e56dc9a" y="420.48"/>
    </g>
    <g clip-path="url(#p85c0e9ffdb)">
     <use style="fill:none;stroke:#c7c6d4;stroke-linecap:butt;" x="0" xlink:href="#C13_5_5933bff3f7" y="420.48"/>
    </g>
    <g clip-path="url(#p85c0e9ffdb)">
     <use style="fill:none;stroke:#c7c6d4;stroke-linecap:butt;" x="0" xlink:href="#C13_6_d09e1e68af" y="420.48"/>
    </g>
    <g clip-path="url(#p85c0e9ffdb)">
     <use style="fill:none;stroke:#c7c6d4;stroke-linecap:butt;" x="0" xlink:href="#C13_7_c70790492b" y="420.48"/>
    </g>
    <g clip-path="url(#p85c0e9ffdb)">
     <use style="fill:none;stroke:#c7c6d4;stroke-linecap:butt;" x="0" xlink:href="#C13_8_ed07e5161f" y="420.48"/>
    </g>
    <g clip-path="url(#p85c0e9ffdb)">
     <use style="fill:none;stroke:#c7c6d4;stroke-linecap:butt;" x="0" xlink:href="#C13_9_d85d7dbc35" y="420.48"/>
    </g>
    <g clip-path="url(#p85c0e9ffdb)">
     <use style="fill:none;stroke:#c7c6d4;stroke-linecap:butt;" x="0" xlink:href="#C13_a_c394b76637" y="420.48"/>
    </g>
    <g clip-path="url(#p85c0e9ffdb)">
     <use style="fill:none;stroke:#c7c6d4;stroke-linecap:butt;" x="0" xlink:href="#C13_b_cd0148c9ae" y="420.48"/>
    </g>
    <g clip-path="url(#p85c0e9ffdb)">
     <use style="fill:none;stroke:#c7c6d4;stroke-linecap:butt;" x="0" xlink:href="#C13_c_a07be61221" y="420.48"/>
    </g>
   </g>
   <g id="LineCollection_9">
    <defs>
     <path d="
M334.478 -107.91
L338.367 -109.667
L334.478 -112.774
L333.031 -109.667
L334.478 -107.91" id="C14_0_db48623966"/>
     <path d="
M279.261 -184.041
L283.205 -181.457
L287.149 -180.895
L291.093 -181.22
L295.037 -183.227
L298.981 -184.128
L300.442 -184.604
L302.925 -185.653
L306.869 -184.945
L307.366 -184.604
L310.813 -183.225
L314.757 -182.243
L318.702 -181.378
L322.646 -181.06
L326.59 -181.992
L330.534 -184.154
L331.283 -184.604
L334.478 -187.233
L335.843 -188.548
L336.819 -192.492
L337.261 -196.436
L337.324 -200.38
L337.061 -204.324
L334.668 -208.268
L334.478 -208.44
L330.534 -211.37
L328.956 -212.212
L326.59 -213.559
L322.646 -215.205
L319.48 -216.156
L318.702 -216.427
L314.757 -217.454
L310.813 -218.244
L306.869 -218.306
L302.942 -216.156
L302.925 -216.147
L298.981 -214.078
L295.284 -212.212
L295.037 -212.102
L291.093 -210.418
L287.149 -208.699
L286.343 -208.268
L283.205 -206.959
L279.351 -204.324
L279.261 -204.221
L277.747 -200.38
L276.288 -196.436
L275.317 -193.03
L275.181 -192.492
L275.317 -192.188
L276.262 -188.548
L278.576 -184.604
L279.261 -184.041" id="C14_1_ace1505c4a"/>
    </defs>
    <g clip-path="url(#p85c0e9ffdb)">
     <use style="fill:none;stroke:#f2f2f2;stroke-linecap:butt;" x="0" xlink:href="#C14_0_db48623966" y="420.48"/>
    </g>
    <g clip-path="url(#p85c0e9ffdb)">
     <use style="fill:none;stroke:#f2f2f2;stroke-linecap:butt;" x="0" xlink:href="#C14_1_ace1505c4a" y="420.48"/>
    </g>
   </g>
   <g id="matplotlib.axis_1"/>
   <g id="matplotlib.axis_2"/>
  </g>
 </g>
 <defs>
  <clipPath id="p85c0e9ffdb">
   <rect height="406.08" width="406.08" x="7.2" y="7.2"/>
  </clipPath>
 </defs>
</svg>
