<?xml version="1.0" encoding="utf-8" standalone="no"?>
<!DOCTYPE svg PUBLIC "-//W3C//DTD SVG 1.1//EN"
  "http://www.w3.org/Graphics/SVG/1.1/DTD/svg11.dtd">
<!-- Created with matplotlib (http://matplotlib.sourceforge.net/) -->
<svg height="420pt" version="1.1" viewBox="0 0 420 420" width="420pt" xmlns="http://www.w3.org/2000/svg" xmlns:xlink="http://www.w3.org/1999/xlink">
 <defs>
  <style type="text/css">
*{stroke-linecap:square;stroke-linejoin:round;}
  </style>
 </defs>
 <g id="figure_1">
  <g id="patch_1">
   <path d="
M0 420.48
L420.48 420.48
L420.48 0
L0 0
z
" style="fill:#ffffff;"/>
  </g>
  <g id="axes_1">
   <g id="patch_2">
    <path d="
M7.2 413.28
L413.28 413.28
L413.28 7.2
L7.2 7.2
z
" style="fill:#ffffff;"/>
   </g>
   <g id="LineCollection_1">
    <defs>
     <path d="
M287.149 -122.892
L286.241 -125.443
L287.149 -126.508
L288.263 -125.443
L287.149 -122.892" id="C0_0_47e90f707c"/>
     <path d="
M275.317 -132.772
L274.951 -133.331
L275.317 -134.688
L278.045 -133.331
L275.317 -132.772" id="C0_1_20220565f0"/>
    </defs>
    <g clip-path="url(#p85c0e9ffdb)">
     <use style="fill:none;stroke:#000000;stroke-linecap:butt;" x="0" xlink:href="#C0_0_47e90f707c" y="420.48"/>
    </g>
    <g clip-path="url(#p85c0e9ffdb)">
     <use style="fill:none;stroke:#000000;stroke-linecap:butt;" x="0" xlink:href="#C0_1_20220565f0" y="420.48"/>
    </g>
   </g>
   <g id="LineCollection_2">
    <defs>
     <path d="
M243.764 -68.6956
L242.678 -70.226
L243.764 -71.6961
L244.898 -70.226
L243.764 -68.6956" id="C1_0_41d5e7e00e"/>
     <path d="
M267.429 -68.546
L266.883 -70.226
L266.648 -74.1701
L267.429 -75.2298
L271.051 -74.1701
L271.373 -72.7787
L272.146 -70.226
L271.373 -69.4777
L267.429 -68.546" id="C1_1_9dc7671b04"/>
     <path d="
M291.093 -84.3717
L289 -86.0022
L287.149 -86.4822
L286.073 -89.9463
L283.205 -92.96
L282.079 -93.8903
L283.205 -97.3626
L283.854 -97.8344
L286.97 -101.778
L287.149 -102.421
L288.598 -105.723
L287.945 -109.667
L287.149 -110.762
L286.53 -113.611
L283.758 -117.555
L283.205 -117.995
L279.261 -119.97
L275.317 -121.293
L274.93 -121.499
L271.373 -124.464
L270.529 -125.443
L268.361 -129.387
L267.467 -133.331
L267.429 -133.826
L267.328 -137.275
L266.459 -141.219
L265.494 -145.163
L265.2 -149.107
L265.748 -153.051
L267.091 -156.995
L267.429 -157.741
L269.364 -160.939
L271.373 -163.685
L272.58 -164.883
L275.317 -167.502
L277.241 -168.827
L279.261 -170.251
L283.205 -172.257
L284.658 -172.771
L287.149 -173.716
L291.093 -174.691
L295.037 -175.223
L298.981 -175.353
L302.925 -175.093
L306.869 -174.443
L310.813 -173.387
L312.516 -172.771
L314.757 -171.906
L318.702 -169.953
L320.578 -168.827
L322.646 -167.453
L325.937 -164.883
L326.59 -164.303
L329.969 -160.939
L330.534 -160.279
L333.14 -156.995
L334.478 -154.948
L335.663 -153.051
L337.655 -149.107
L338.422 -147.157
L339.199 -145.163
L340.347 -141.219
L341.114 -137.275
L341.527 -133.331
L341.599 -129.387
L341.333 -125.443
L340.72 -121.499
L339.738 -117.555
L338.422 -113.797
L338.356 -113.611
L336.574 -109.667
L334.478 -106.045
L334.283 -105.723
L331.427 -101.778
L330.534 -100.734
L327.843 -97.8344
L326.59 -96.6597
L323.291 -93.8903
L322.646 -93.4073
L318.702 -90.7781
L317.268 -89.9463
L314.757 -88.6273
L310.813 -86.8666
L308.544 -86.0022
L306.869 -85.4468
L302.925 -84.3965
L298.981 -83.7563
L295.037 -83.6747
L291.093 -84.3717" id="C1_2_cfaf0bf0ef"/>
     <path d="
M224.044 -86.7084
L223.033 -89.9463
L224.044 -91.1078
L226.014 -89.9463
L224.044 -86.7084" id="C1_3_e57efcbf96"/>
     <path d="
M224.044 -111.786
L222.602 -113.611
L224.044 -115.051
L227.259 -113.611
L224.044 -111.786" id="C1_4_6596e80898"/>
     <path d="
M243.764 -128.644
L242.774 -129.387
L241.718 -133.331
L243.764 -135.903
L247.709 -136.437
L249.796 -133.331
L247.994 -129.387
L247.709 -129.175
L243.764 -128.644" id="C1_5_6280d731fa"/>
    </defs>
    <g clip-path="url(#p85c0e9ffdb)">
     <use style="fill:none;stroke:#000000;stroke-linecap:butt;" x="0" xlink:href="#C1_0_41d5e7e00e" y="420.48"/>
    </g>
    <g clip-path="url(#p85c0e9ffdb)">
     <use style="fill:none;stroke:#000000;stroke-linecap:butt;" x="0" xlink:href="#C1_1_9dc7671b04" y="420.48"/>
    </g>
    <g clip-path="url(#p85c0e9ffdb)">
     <use style="fill:none;stroke:#000000;stroke-linecap:butt;" x="0" xlink:href="#C1_2_cfaf0bf0ef" y="420.48"/>
    </g>
    <g clip-path="url(#p85c0e9ffdb)">
     <use style="fill:none;stroke:#000000;stroke-linecap:butt;" x="0" xlink:href="#C1_3_e57efcbf96" y="420.48"/>
    </g>
    <g clip-path="url(#p85c0e9ffdb)">
     <use style="fill:none;stroke:#000000;stroke-linecap:butt;" x="0" xlink:href="#C1_4_6596e80898" y="420.48"/>
    </g>
    <g clip-path="url(#p85c0e9ffdb)">
     <use style="fill:none;stroke:#000000;stroke-linecap:butt;" x="0" xlink:href="#C1_5_6280d731fa" y="420.48"/>
    </g>
   </g>
   <g id="LineCollection_3">
    <defs>
     <path d="
M247.709 -92.8372
L251.653 -91.5539
L255.597 -91.7516
L258.271 -93.8903
L259.541 -95.4508
L260.927 -97.8344
L260.942 -101.778
L259.541 -104.316
L258.474 -105.723
L255.597 -108.032
L251.653 -108.227
L247.709 -106.909
L246.492 -105.723
L244.461 -101.778
L244.524 -97.8344
L246.606 -93.8903
L247.709 -92.8372" id="C2_0_31a38c16d6"/>
    </defs>
    <g clip-path="url(#p85c0e9ffdb)">
     <use style="fill:none;stroke:#aaaaaa;stroke-linecap:butt;" x="0" xlink:href="#C2_0_31a38c16d6" y="420.48"/>
    </g>
   </g>
   <g id="LineCollection_4">
    <defs>
     <path d="
M283.205 -185.814
L281.347 -188.548
L283.001 -192.492
L283.205 -192.743
L287.149 -193.519
L288.672 -192.492
L290.284 -188.548
L287.149 -185.15
L283.205 -185.814" id="C3_0_d894453223"/>
     <path d="
M318.702 -186.414
L315.666 -188.548
L314.757 -191.901
L314.536 -192.492
L314.757 -193.123
L316.757 -196.436
L318.702 -197.694
L322.646 -197.696
L324.418 -196.436
L326.59 -193.69
L327.041 -192.492
L326.59 -190.318
L326.233 -188.548
L322.646 -186.043
L318.702 -186.414" id="C3_1_b6f797aaa8"/>
    </defs>
    <g clip-path="url(#p85c0e9ffdb)">
     <use style="fill:none;stroke:#000000;stroke-linecap:butt;" x="0" xlink:href="#C3_0_d894453223" y="420.48"/>
    </g>
    <g clip-path="url(#p85c0e9ffdb)">
     <use style="fill:none;stroke:#000000;stroke-linecap:butt;" x="0" xlink:href="#C3_1_b6f797aaa8" y="420.48"/>
    </g>
   </g>
   <g id="LineCollection_5">
    <defs>
     <path d="
M405.471 -60.8693
L401.527 -61.3103
L397.583 -61.8454
L394.555 -62.3379
L393.639 -62.4775
L389.695 -63.1989
L385.75 -64.0302
L381.806 -64.9848
L377.862 -66.0828
L377.266 -66.282
L373.918 -67.2914
L369.974 -68.6668
L366.149 -70.226
L366.03 -70.2687
L362.086 -72.004
L358.142 -74.0878
L358.02 -74.1701
L354.198 -76.365
L351.853 -78.1141
L350.254 -79.0976
L346.757 -82.0582
L346.31 -82.3601
L342.679 -86.0022
L342.366 -86.2439
L339.454 -89.9463
L338.422 -90.9453
L336.803 -93.8903
L334.478 -97.5443
L334.394 -97.8344
L333.079 -101.778
L331.936 -105.723
L330.534 -107.714
L329.533 -109.667
L328.454 -113.611
L328.974 -117.555
L330.534 -121.383
L330.629 -121.499
L333.712 -125.443
L334.478 -126.597
L337.348 -129.387
L338.422 -130.911
L340.745 -133.331
L342.366 -136.192
L343.143 -137.275
L344.62 -141.219
L345.029 -145.163
L344.573 -149.107
L343.214 -153.051
L342.366 -154.431
L341.145 -156.995
L338.422 -160.427
L338.11 -160.939
L334.478 -164.644
L334.304 -164.883
L330.534 -167.972
L329.729 -168.827
L326.59 -170.736
L322.646 -172.396
L318.702 -172.523
L314.757 -171.789
L310.813 -170.821
L306.869 -169.994
L302.925 -169.424
L298.981 -169.154
L295.037 -169.218
L291.093 -169.659
L287.149 -170.522
L283.205 -171.845
L281.33 -172.771
L279.261 -173.849
L275.317 -176.096
L273.314 -176.716
L271.373 -177.704
L267.429 -178.405
L263.485 -178.562
L259.541 -178.715
L255.597 -179.095
L251.653 -179.769
L247.828 -180.66
L247.709 -180.696
L243.764 -181.929
L239.82 -183.284
L236.179 -184.604
L235.876 -184.739
L231.932 -186.421
L227.988 -188.142
L227.028 -188.548
L224.044 -190.056
L220.1 -192.043
L219.181 -192.492
L216.156 -194.227
L212.286 -196.436
L212.212 -196.485
L208.268 -198.99
L206.049 -200.38
L204.324 -201.622
L200.482 -204.324
L200.38 -204.406
L196.436 -207.451
L195.349 -208.268
L192.492 -210.698
L190.657 -212.212
L188.548 -214.171
L186.337 -216.156
L184.604 -217.9
L182.337 -220.1
L180.66 -221.916
L178.62 -224.044
L176.716 -226.253
L175.161 -227.988
L172.771 -230.943
L171.94 -231.932
L168.936 -235.876
L168.827 -236.033
L166.098 -239.82
L164.883 -241.673
L163.456 -243.764
L161.003 -247.709
L160.939 -247.82
L158.673 -251.653
L156.995 -254.753
L156.52 -255.597
L154.49 -259.541
L153.051 -262.591
L152.613 -263.485
L150.845 -267.429
L149.223 -271.373
L149.107 -271.683
L147.694 -275.317
L146.292 -279.261
L145.163 -282.741
L145.007 -283.205
L143.81 -287.149
L142.725 -291.093
L141.747 -295.037
L141.219 -297.425
L140.862 -298.981
L140.066 -302.925
L139.368 -306.869
L138.763 -310.813
L138.251 -314.757
L137.827 -318.702
L137.491 -322.646
L137.275 -326.059
L137.24 -326.59
L137.072 -330.534
L136.99 -334.478
L136.992 -338.422
L137.078 -342.366
L137.248 -346.31
L137.275 -346.742
L137.498 -350.254
L137.83 -354.198
L138.246 -358.142
L138.744 -362.086
L139.325 -366.03
L139.99 -369.974
L140.739 -373.918
L141.219 -376.209
L141.571 -377.862
L142.484 -381.806
L143.484 -385.75
L144.572 -389.695
L145.163 -391.7
L145.745 -393.639
L147.004 -397.583
L148.355 -401.527
L149.107 -403.607
L149.795 -405.471" id="C4_0_24795c733a"/>
     <path d="
M271.373 -69.4993
L271.11 -70.226
L271.373 -70.7124
L272.222 -70.226
L271.373 -69.4993" id="C4_1_933cde83e8"/>
     <path d="
M243.764 -73.0254
L240.351 -74.1701
L242.245 -78.1141
L243.764 -78.6555
L244.657 -78.1141
L247.221 -74.1701
L243.764 -73.0254" id="C4_2_f34c3d7bf1"/>
     <path d="
M263.485 -73.9943
L263.282 -74.1701
L262.422 -78.1141
L263.485 -79.3866
L267.429 -80.3946
L270.627 -78.1141
L267.429 -77.7991
L263.551 -74.1701
L263.485 -73.9943" id="C4_3_f6e9efa0b3"/>
     <path d="
M291.093 -82.5986
L289.42 -86.0022
L291.093 -87.4067
L294.919 -86.0022
L291.093 -82.5986" id="C4_4_d03d67564b"/>
     <path d="
M227.988 -87.5646
L227.708 -89.9463
L224.95 -93.8903
L227.988 -95.6241
L230.106 -93.8903
L230.768 -89.9463
L227.988 -87.5646" id="C4_5_baf188cd2d"/>
     <path d="
M279.261 -91.4773
L275.74 -93.8903
L276.274 -97.8344
L279.261 -100.726
L283.205 -100.623
L283.436 -97.8344
L283.205 -97.5515
L280.075 -93.8903
L279.261 -91.4773" id="C4_6_6a97f3e6ec"/>
     <path d="
M227.988 -111.697
L227.868 -113.611
L227.545 -117.555
L227.988 -119.004
L231.932 -118.939
L233.392 -117.555
L233.883 -113.611
L231.932 -111.275
L227.988 -111.697" id="C4_7_87be92cbbb"/>
     <path d="
M271.373 -114.68
L268.582 -117.555
L268.398 -121.499
L271.373 -122.232
L274.98 -121.499
L275.317 -121.326
L277.175 -117.555
L275.317 -114.292
L271.373 -114.68" id="C4_8_8f896b6db7"/>
     <path d="
M247.709 -123.544
L245.729 -125.443
L247.709 -125.999
L250.271 -129.387
L251.653 -131.802
L255.326 -129.387
L254.37 -125.443
L251.653 -123.24
L247.709 -123.544" id="C4_9_4ce54bd14a"/>
     <path d="
M267.429 -140.597
L266.824 -141.219
L267.429 -141.799
L267.779 -141.219
L267.429 -140.597" id="C4_a_df8c8337f8"/>
     <path d="
M263.485 -152.76
L263.183 -153.051
L263.485 -154.442
L267.429 -156.421
L269.27 -153.051
L267.429 -150.922
L263.485 -152.76" id="C4_b_72d63d07d7"/>
    </defs>
    <g clip-path="url(#p85c0e9ffdb)">
     <use style="fill:none;stroke:#000000;stroke-linecap:butt;" x="0" xlink:href="#C4_0_24795c733a" y="420.48"/>
    </g>
    <g clip-path="url(#p85c0e9ffdb)">
     <use style="fill:none;stroke:#000000;stroke-linecap:butt;" x="0" xlink:href="#C4_1_933cde83e8" y="420.48"/>
    </g>
    <g clip-path="url(#p85c0e9ffdb)">
     <use style="fill:none;stroke:#000000;stroke-linecap:butt;" x="0" xlink:href="#C4_2_f34c3d7bf1" y="420.48"/>
    </g>
    <g clip-path="url(#p85c0e9ffdb)">
     <use style="fill:none;stroke:#000000;stroke-linecap:butt;" x="0" xlink:href="#C4_3_f6e9efa0b3" y="420.48"/>
    </g>
    <g clip-path="url(#p85c0e9ffdb)">
     <use style="fill:none;stroke:#000000;stroke-linecap:butt;" x="0" xlink:href="#C4_4_d03d67564b" y="420.48"/>
    </g>
    <g clip-path="url(#p85c0e9ffdb)">
     <use style="fill:none;stroke:#000000;stroke-linecap:butt;" x="0" xlink:href="#C4_5_baf188cd2d" y="420.48"/>
    </g>
    <g clip-path="url(#p85c0e9ffdb)">
     <use style="fill:none;stroke:#000000;stroke-linecap:butt;" x="0" xlink:href="#C4_6_6a97f3e6ec" y="420.48"/>
    </g>
    <g clip-path="url(#p85c0e9ffdb)">
     <use style="fill:none;stroke:#000000;stroke-linecap:butt;" x="0" xlink:href="#C4_7_87be92cbbb" y="420.48"/>
    </g>
    <g clip-path="url(#p85c0e9ffdb)">
     <use style="fill:none;stroke:#000000;stroke-linecap:butt;" x="0" xlink:href="#C4_8_8f896b6db7" y="420.48"/>
    </g>
    <g clip-path="url(#p85c0e9ffdb)">
     <use style="fill:none;stroke:#000000;stroke-linecap:butt;" x="0" xlink:href="#C4_9_4ce54bd14a" y="420.48"/>
    </g>
    <g clip-path="url(#p85c0e9ffdb)">
     <use style="fill:none;stroke:#000000;stroke-linecap:butt;" x="0" xlink:href="#C4_a_df8c8337f8" y="420.48"/>
    </g>
    <g clip-path="url(#p85c0e9ffdb)">
     <use style="fill:none;stroke:#000000;stroke-linecap:butt;" x="0" xlink:href="#C4_b_72d63d07d7" y="420.48"/>
    </g>
   </g>
   <g id="LineCollection_6">
    <defs>
     <path d="
M287.149 -119.314
L291.093 -120.271
L292.736 -121.499
L294.369 -125.443
L293.142 -129.387
L291.239 -133.331
L291.093 -133.489
L287.149 -135.846
L285.604 -137.275
L283.205 -139.05
L279.261 -140.277
L275.317 -139.799
L273.338 -137.275
L272.418 -133.331
L275.317 -129.653
L276.349 -129.387
L279.261 -127.67
L281.252 -125.443
L283.205 -122.998
L284.008 -121.499
L287.149 -119.314" id="C5_0_abf9ce1414"/>
    </defs>
    <g clip-path="url(#p85c0e9ffdb)">
     <use style="fill:none;stroke:#aaaaaa;stroke-linecap:butt;" x="0" xlink:href="#C5_0_abf9ce1414" y="420.48"/>
    </g>
   </g>
   <g id="LineCollection_7">
    <defs>
     <path d="
M231.932 -121.397
L231.753 -121.499
L231.932 -121.601
L232.041 -121.499
L231.932 -121.397" id="C6_0_98dd80309a"/>
     <path d="
M164.883 -164.314
L163.822 -164.883
L160.939 -167.283
L159.629 -168.827
L158.097 -172.771
L158.11 -176.716
L159.642 -180.66
L160.939 -182.129
L163.6 -184.604
L164.883 -185.295
L168.827 -186.508
L172.771 -186.451
L176.716 -185
L177.214 -184.604
L180.66 -181.113
L180.937 -180.66
L182.19 -176.716
L182.025 -172.771
L180.66 -169.177
L180.434 -168.827
L176.716 -165.134
L176.077 -164.883
L172.771 -163.483
L168.827 -163.251
L164.883 -164.314" id="C6_1_f1cf9a5fb5"/>
     <path d="
M15.0092 -192.104
L18.9533 -192.009
L22.8973 -192.247
L24.5532 -192.492
L26.8414 -192.823
L30.7855 -193.751
L34.7295 -195.076
L37.7721 -196.436
L38.6736 -196.845
L42.6176 -199.114
L44.3881 -200.38
L46.5617 -202.018
L49.0695 -204.324
L50.5057 -205.76
L52.6146 -208.268
L54.4498 -210.745
L55.3842 -212.212
L57.5402 -216.156
L58.3938 -218.053
L59.2061 -220.1
L60.4447 -224.044
L61.3236 -227.988
L61.8652 -231.932
L62.0863 -235.876
L61.9974 -239.82
L61.6024 -243.764
L60.8977 -247.709
L59.874 -251.653
L58.5188 -255.597
L58.3938 -255.883
L56.7552 -259.541
L54.5952 -263.485
L54.4498 -263.709
L51.8823 -267.429
L50.5057 -269.147
L48.5478 -271.373
L46.5617 -273.367
L44.3603 -275.317
L42.6176 -276.72
L38.9263 -279.261
L38.6736 -279.424
L34.7295 -281.545
L30.8573 -283.205
L30.7855 -283.235
L26.8414 -284.48
L22.8973 -285.354
L18.9533 -285.868
L15.0092 -286.031" id="C6_2_9d7668439d"/>
    </defs>
    <g clip-path="url(#p85c0e9ffdb)">
     <use style="fill:none;stroke:#000000;stroke-linecap:butt;" x="0" xlink:href="#C6_0_98dd80309a" y="420.48"/>
    </g>
    <g clip-path="url(#p85c0e9ffdb)">
     <use style="fill:none;stroke:#000000;stroke-linecap:butt;" x="0" xlink:href="#C6_1_f1cf9a5fb5" y="420.48"/>
    </g>
    <g clip-path="url(#p85c0e9ffdb)">
     <use style="fill:none;stroke:#000000;stroke-linecap:butt;" x="0" xlink:href="#C6_2_9d7668439d" y="420.48"/>
    </g>
   </g>
   <g id="LineCollection_8">
    <defs>
     <path d="
M239.82 -76.8511
L237.23 -78.1141
L237.036 -82.0582
L239.82 -85.259
L241.122 -86.0022
L243.764 -88.9024
L245.873 -89.9463
L247.709 -91.5043
L250.6 -89.9463
L251.65 -86.0022
L251.596 -82.0582
L250.63 -78.1141
L247.709 -76.8996
L245.808 -78.1141
L243.764 -79.8666
L242.731 -78.1141
L239.82 -76.8511" id="C7_0_61d1fcacaa"/>
     <path d="
M346.31 -76.3402
L344.254 -78.1141
L342.366 -80.5641
L341.871 -82.0582
L342.164 -86.0022
L342.366 -86.0851
L344.623 -89.9463
L346.31 -92.0391
L350.254 -92.9934
L354.198 -91.1464
L355.827 -89.9463
L357.337 -86.0022
L356.961 -82.0582
L354.437 -78.1141
L354.198 -77.8541
L350.254 -75.8827
L346.31 -76.3402" id="C7_1_e58655b58c"/>
     <path d="
M231.932 -87.9476
L231.592 -89.9463
L231.626 -93.8903
L227.988 -96.6539
L224.044 -95.1747
L222.271 -93.8903
L220.1 -92.0389
L218.053 -93.8903
L220.1 -96.0372
L221.406 -97.8344
L224.044 -100.636
L227.988 -100.901
L231.932 -100.73
L235.876 -100.793
L239.82 -100.573
L243.764 -98.9883
L244.743 -97.8344
L243.764 -95.7639
L242.698 -93.8903
L239.82 -90.8816
L238.655 -89.9463
L235.876 -88.7063
L231.932 -87.9476" id="C7_2_f46d89ce98"/>
     <path d="
M291.093 -89.7926
L289.991 -89.9463
L291.093 -91.7115
L295.037 -90.7032
L295.769 -89.9463
L295.037 -89.6485
L291.093 -89.7926" id="C7_3_6ddea9c4e2"/>
     <path d="
M291.093 -106.51
L289.456 -109.667
L291.093 -111.961
L294.077 -109.667
L291.093 -106.51" id="C7_4_589e56dc9a"/>
     <path d="
M318.702 -113.417
L318.411 -113.611
L315.794 -117.555
L315.496 -121.499
L316.698 -125.443
L318.702 -128.451
L319.762 -129.387
L322.646 -131.625
L326.59 -133.275
L326.816 -133.331
L330.534 -134.129
L333.979 -133.331
L334.478 -133.285
L335.872 -129.387
L335.484 -125.443
L334.478 -124.788
L330.534 -123.95
L329.337 -121.499
L328.483 -117.555
L326.609 -113.611
L326.59 -113.551
L322.646 -112.039
L318.702 -113.417" id="C7_5_5933bff3f7"/>
     <path d="
M259.541 -132.167
L258.329 -133.331
L259.541 -134.687
L260.445 -133.331
L259.541 -132.167" id="C7_6_d09e1e68af"/>
     <path d="
M271.373 -150.13
L271.038 -153.051
L270.231 -156.995
L271.373 -159.336
L275.184 -156.995
L275.317 -154.329
L275.39 -153.051
L275.317 -152.963
L271.373 -150.13" id="C7_7_c70790492b"/>
     <path d="
M342.366 -151.836
L341.23 -153.051
L340.324 -156.995
L342.366 -157.682
L346.31 -158.828
L348.569 -156.995
L347.052 -153.051
L346.31 -152.196
L342.366 -151.836" id="C7_8_ed07e5161f"/>
     <path d="
M298.981 -155.879
L297.125 -156.995
L295.037 -158.722
L293.294 -160.939
L291.569 -164.883
L292.951 -168.827
L295.037 -169.251
L296.946 -168.827
L298.981 -167.681
L300.03 -168.827
L302.925 -169.865
L306.869 -170.016
L308.742 -168.827
L310.813 -165.277
L311.299 -164.883
L311.103 -160.939
L310.813 -160.204
L308.145 -156.995
L306.869 -155.982
L302.925 -155.061
L298.981 -155.879" id="C7_9_d85d7dbc35"/>
     <path d="
M330.534 -167.853
L329.888 -168.827
L330.534 -169.209
L331.287 -168.827
L330.534 -167.853" id="C7_a_c394b76637"/>
     <path d="
M247.709 -176.518
L247.069 -176.716
L243.851 -180.66
L246 -184.604
L247.709 -185.548
L251.653 -185.074
L252.124 -184.604
L253.82 -180.66
L251.653 -178.108
L248.075 -176.716
L247.709 -176.518" id="C7_b_cd0148c9ae"/>
     <path d="
M102.77 -405.471
L102.519 -401.527
L102.36 -397.583
L102.295 -393.639
L102.33 -389.695
L102.472 -385.75
L102.729 -381.806
L103.111 -377.862
L103.634 -373.918
L104.317 -369.974
L105.188 -366.03
L105.723 -364.098
L106.206 -362.086
L107.381 -358.142
L108.827 -354.198
L109.667 -352.285
L110.476 -350.254
L112.362 -346.31
L113.611 -344.084
L114.529 -342.366
L116.978 -338.422
L117.555 -337.58
L119.673 -334.478
L121.499 -332.061
L122.68 -330.534
L125.443 -327.186
L125.956 -326.59
L129.387 -322.724
L129.46 -322.646
L133.143 -318.702
L133.331 -318.5
L136.961 -314.757
L137.275 -314.429
L140.854 -310.813
L141.219 -310.436
L144.762 -306.869
L145.163 -306.454
L148.633 -302.925
L149.107 -302.429
L152.427 -298.981
L153.051 -298.313
L156.113 -295.037
L156.995 -294.067
L159.675 -291.093
L160.939 -289.653
L163.101 -287.149
L164.883 -285.038
L166.392 -283.205
L168.827 -280.187
L169.55 -279.261
L172.574 -275.317
L172.771 -275.055
L175.425 -271.373
L176.716 -269.568
L178.164 -267.429
L180.66 -263.72
L180.808 -263.485
L183.268 -259.541
L184.604 -257.397
L185.641 -255.597
L187.903 -251.653
L188.548 -250.529
L190.018 -247.709
L192.067 -243.764
L192.492 -242.948
L193.942 -239.82
L195.753 -235.876
L196.436 -234.38
L197.413 -231.932
L198.954 -227.988
L200.38 -224.223
L200.438 -224.044
L201.68 -220.1
L202.842 -216.156
L203.912 -212.212
L204.324 -210.572
L204.792 -208.268
L205.496 -204.324
L206.078 -200.38
L206.546 -196.436
L206.933 -192.492
L207.317 -188.548
L207.858 -184.604
L208.268 -182.86
L208.625 -180.66
L209.845 -176.716
L211.96 -172.771
L212.212 -172.329
L214.669 -168.827
L216.156 -166.749
L217.925 -164.883
L220.1 -162.132
L221.246 -160.939
L224.044 -157.311
L224.302 -156.995
L227.029 -153.051
L227.988 -151.634
L229.566 -149.107
L231.932 -145.743
L232.258 -145.163
L235.051 -141.219
L233.038 -137.275
L231.932 -136.075
L229.609 -133.331
L229.868 -129.387
L230.056 -125.443
L231.932 -124.219
L234.848 -121.499
L235.876 -120.343
L239.015 -117.555
L239.82 -116.149
L242.95 -113.611
L243.764 -112.233
L247.123 -113.611
L245.654 -117.555
L245.29 -121.499
L247.709 -121.874
L251.653 -121.919
L254.357 -125.443
L255.4 -129.387
L255.597 -131.154
L257.306 -129.387
L258.306 -125.443
L258.389 -121.499
L258.656 -117.555
L259.165 -113.611
L259.541 -111.21
L260.238 -113.611
L263.14 -117.555
L263.485 -117.738
L267.429 -119.374
L268.271 -117.555
L271.373 -113.897
L275.317 -114.154
L277.775 -113.611
L275.317 -110.752
L273.969 -109.667
L271.373 -106.395
L267.429 -106.743
L265.838 -105.723
L267.429 -102.326
L271.373 -102.941
L275.317 -101.87
L275.355 -101.778
L275.763 -97.8344
L275.317 -94.2006
L275.012 -93.8903
L275.317 -93.7583
L279.261 -90.5708
L281.177 -89.9463
L279.261 -87.2772
L275.317 -87.0103
L272.096 -89.9463
L271.373 -91.3345
L267.429 -90.8876
L263.616 -89.9463
L267.353 -86.0022
L267.429 -85.9316
L268.756 -82.0582
L267.429 -81.8633
L263.485 -81.2518
L261.264 -78.1141
L259.541 -75.5035
L256.467 -78.1141
L256.696 -82.0582
L257.096 -86.0022
L255.597 -88.202
L252.654 -89.9463
L255.597 -92.7607
L259.541 -91.9536
L263.485 -90.0593
L264.541 -93.8903
L263.485 -96.1829
L260.207 -97.8344
L263.485 -100.494
L266.139 -101.778
L263.485 -102.501
L259.541 -105.062
L258.876 -105.723
L259.053 -109.667
L255.597 -110.945
L252.466 -109.667
L251.653 -108.674
L250.396 -109.667
L247.709 -112.718
L246.753 -109.667
L247.709 -106.495
L248.296 -105.723
L247.709 -105.289
L243.764 -104.168
L239.82 -103.877
L235.876 -104.682
L234.583 -105.723
L231.932 -106.737
L230.601 -109.667
L231.932 -110.374
L235.07 -113.611
L233.307 -117.555
L231.932 -118.789
L227.988 -120.771
L224.044 -120.994
L220.1 -120.327
L218.814 -121.499
L218.514 -125.443
L216.156 -127.613
L212.212 -127.487
L208.268 -127.366
L206.224 -129.387
L204.324 -131.201
L200.38 -131.11
L196.436 -131.033
L192.492 -130.967
L188.548 -130.911
L184.604 -130.864
L180.66 -130.824
L176.716 -130.79
L172.771 -130.762
L168.827 -130.738
L164.883 -130.718
L160.939 -130.7
L156.995 -130.685
L153.051 -130.672
L149.107 -130.661
L145.163 -130.651
L141.219 -130.641
L137.275 -130.633
L133.331 -130.624
L129.387 -130.617
L125.443 -130.609
L121.499 -130.602
L117.555 -130.595
L113.611 -130.588
L109.667 -130.581
L105.723 -130.574
L101.778 -130.567
L97.8344 -130.56
L93.8903 -130.554
L89.9463 -130.547
L86.0022 -130.541
L82.0582 -130.534
L78.1141 -130.528
L74.1701 -130.522
L70.226 -130.516
L66.282 -130.51
L62.3379 -130.504
L58.3938 -130.498
L54.4498 -130.493
L50.5057 -130.488
L46.5617 -130.483
L42.6176 -130.478
L38.6736 -130.473
L34.7295 -130.469
L30.7855 -130.464
L26.8414 -130.46
L22.8973 -130.456
L18.9533 -130.453
L15.0092 -130.449" id="C7_c_a07be61221"/>
    </defs>
    <g clip-path="url(#p85c0e9ffdb)">
     <use style="fill:none;stroke:#000000;stroke-linecap:butt;" x="0" xlink:href="#C7_0_61d1fcacaa" y="420.48"/>
    </g>
    <g clip-path="url(#p85c0e9ffdb)">
     <use style="fill:none;stroke:#000000;stroke-linecap:butt;" x="0" xlink:href="#C7_1_e58655b58c" y="420.48"/>
    </g>
    <g clip-path="url(#p85c0e9ffdb)">
     <use style="fill:none;stroke:#000000;stroke-linecap:butt;" x="0" xlink:href="#C7_2_f46d89ce98" y="420.48"/>
    </g>
    <g clip-path="url(#p85c0e9ffdb)">
     <use style="fill:none;stroke:#000000;stroke-linecap:butt;" x="0" xlink:href="#C7_3_6ddea9c4e2" y="420.48"/>
    </g>
    <g clip-path="url(#p85c0e9ffdb)">
     <use style="fill:none;stroke:#000000;stroke-linecap:butt;" x="0" xlink:href="#C7_4_589e56dc9a" y="420.48"/>
    </g>
    <g clip-path="url(#p85c0e9ffdb)">
     <use style="fill:none;stroke:#000000;stroke-linecap:butt;" x="0" xlink:href="#C7_5_5933bff3f7" y="420.48"/>
    </g>
    <g clip-path="url(#p85c0e9ffdb)">
     <use style="fill:none;stroke:#000000;stroke-linecap:butt;" x="0" xlink:href="#C7_6_d09e1e68af" y="420.48"/>
    </g>
    <g clip-path="url(#p85c0e9ffdb)">
     <use style="fill:none;stroke:#000000;stroke-linecap:butt;" x="0" xlink:href="#C7_7_c70790492b" y="420.48"/>
    </g>
    <g clip-path="url(#p85c0e9ffdb)">
     <use style="fill:none;stroke:#000000;stroke-linecap:butt;" x="0" xlink:href="#C7_8_ed07e5161f" y="420.48"/>
    </g>
    <g clip-path="url(#p85c0e9ffdb)">
     <use style="fill:none;stroke:#000000;stroke-linecap:butt;" x="0" xlink:href="#C7_9_d85d7dbc35" y="420.48"/>
    </g>
    <g clip-path="url(#p85c0e9ffdb)">
     <use style="fill:none;stroke:#000000;stroke-linecap:butt;" x="0" xlink:href="#C7_a_c394b76637" y="420.48"/>
    </g>
    <g clip-path="url(#p85c0e9ffdb)">
     <use style="fill:none;stroke:#000000;stroke-linecap:butt;" x="0" xlink:href="#C7_b_cd0148c9ae" y="420.48"/>
    </g>
    <g clip-path="url(#p85c0e9ffdb)">
     <use style="fill:none;stroke:#000000;stroke-linecap:butt;" x="0" xlink:href="#C7_c_a07be61221" y="420.48"/>
    </g>
   </g>
   <g id="LineCollection_9">
    <defs>
     <path d="
M334.478 -107.91
L338.367 -109.667
L334.478 -112.774
L333.031 -109.667
L334.478 -107.91" id="C8_0_db48623966"/>
     <path d="
M279.261 -184.041
L283.205 -181.457
L287.149 -180.895
L291.093 -181.22
L295.037 -183.227
L298.981 -184.128
L300.442 -184.604
L302.925 -185.653
L306.869 -184.945
L307.366 -184.604
L310.813 -183.225
L314.757 -182.243
L318.702 -181.378
L322.646 -181.06
L326.59 -181.992
L330.534 -184.154
L331.283 -184.604
L334.478 -187.233
L335.843 -188.548
L336.819 -192.492
L337.261 -196.436
L337.324 -200.38
L337.061 -204.324
L334.668 -208.268
L334.478 -208.44
L330.534 -211.37
L328.956 -212.212
L326.59 -213.559
L322.646 -215.205
L319.48 -216.156
L318.702 -216.427
L314.757 -217.454
L310.813 -218.244
L306.869 -218.306
L302.942 -216.156
L302.925 -216.147
L298.981 -214.078
L295.284 -212.212
L295.037 -212.102
L291.093 -210.418
L287.149 -208.699
L286.343 -208.268
L283.205 -206.959
L279.351 -204.324
L279.261 -204.221
L277.747 -200.38
L276.288 -196.436
L275.317 -193.03
L275.181 -192.492
L275.317 -192.188
L276.262 -188.548
L278.576 -184.604
L279.261 -184.041" id="C8_1_ace1505c4a"/>
    </defs>
    <g clip-path="url(#p85c0e9ffdb)">
     <use style="fill:none;stroke:#aaaaaa;stroke-linecap:butt;" x="0" xlink:href="#C8_0_db48623966" y="420.48"/>
    </g>
    <g clip-path="url(#p85c0e9ffdb)">
     <use style="fill:none;stroke:#aaaaaa;stroke-linecap:butt;" x="0" xlink:href="#C8_1_ace1505c4a" y="420.48"/>
    </g>
   </g>
   <g id="matplotlib.axis_1"/>
   <g id="matplotlib.axis_2"/>
  </g>
 </g>
 <defs>
  <clipPath id="p85c0e9ffdb">
   <rect height="406.08" width="406.08" x="7.2" y="7.2"/>
  </clipPath>
 </defs>
</svg>
